<?xml version="1.0" standalone="no"?>
<!DOCTYPE svg PUBLIC "-//W3C//DTD SVG 1.1//EN" "http://www.w3.org/Graphics/SVG/1.1/DTD/svg11.dtd" >
<svg>
<metadata>
Created by FontForge 20090622 at Fri Jan 31 16:48:11 2014
 By ffonts
Pedro Arilla
</metadata>
<defs>
<font id="Valentina-Regular" horiz-adv-x="475" >
  <font-face 
    font-family="Valentina"
    font-weight="400"
    font-stretch="normal"
    units-per-em="1000"
    panose-1="0 0 5 0 0 0 0 0 0 0"
    ascent="800"
    descent="-200"
    x-height="500"
    cap-height="800"
    bbox="-439.378 -343.464 1350 1051"
    underline-thickness="50"
    underline-position="-50"
    unicode-range="U+0020-U+FB02"
  />
<missing-glyph horiz-adv-x="250" 
 />
    <glyph glyph-name="fi" unicode="fi" horiz-adv-x="615" 
d="M524 23l61 -8v-15h-231v15l61 8c8 1 8 7 8 24v317c0 23 0 113 -15 113h-206v-430c0 -17 0 -23 8 -24l61 -8v-15h-231v15l61 8c8 1 8 7 8 24v430h-69v23h69c0 62 -7 145 49 214c50 63 127 87 197 85c87 -1 164 -42 164 -95c0 -33 -27 -50 -52 -49s-48 17 -48 49
c0 18 9 34 23 42c8 6 16 12 7 18c-3 2 -46 17 -95 11c-70 -9 -152 -59 -152 -244v-31h145c74 0 119 21 144 21c18 1 25 -8 25 -42v-432c0 -17 0 -23 8 -24z" />
    <glyph glyph-name="fl" unicode="fl" horiz-adv-x="605" 
d="M524 23l61 -8v-15h-231v15l61 8c8 1 8 7 8 24v603c0 49 5 87 -36 114c-4 3 -55 25 -102 1c-43 -23 -83 -84 -83 -234v-31h107v-23h-107v-430c0 -17 0 -23 8 -24l61 -8v-15h-231v15l61 8c8 1 8 7 8 24v430h-69v23h69c0 62 0 154 53 224c43 57 109 76 154 76h184
c16 0 16 0 16 -35v-718c0 -17 0 -23 8 -24z" />
    <glyph glyph-name="f_b" unicode="fb" horiz-adv-x="889" 
d="M516 468l91 37c92 -22 233 -75 251 -282c14 -160 -105 -250 -220 -237c-53 6 -78 20 -122 54c0 -22 2 -46 -6 -53c-9 -8 -55 11 -123 13v17h23c7 0 11 25 13 55v578c0 49 5 87 -36 114c-4 3 -77 35 -130 -20c-31 -33 -55 -96 -55 -213v-31h107v-23h-107v-430
c0 -17 0 -23 8 -24l61 -8v-15h-231v15l61 8c8 1 8 7 8 24v430h-69v23h69c0 62 -1 154 53 224c40 59 109 78 154 76h184c16 0 16 0 16 -35v-297zM516 443v-305c0 -98 72 -129 114 -129c60 0 122 46 122 206c0 154 -107 230 -176 253z" />
    <glyph glyph-name="f_f" unicode="ff" horiz-adv-x="626" 
d="M40 500h69c0 62 -4 143 49 214s147 92 225 84c50 -5 93 -22 115 -46c36 38 77 50 115 48c64 -5 117 -52 118 -96c0 -36 -30 -52 -58 -49c-22 3 -42 19 -42 49c0 18 9 34 23 42c8 6 16 12 7 18c-6 4 -72 42 -113 -38c-19 -36 -32 -97 -32 -195v-31h107v-23h-107v-430
c0 -17 0 -23 8 -24l61 -8v-15h-231v15l61 8c8 1 8 7 8 24v430h-221v-430c0 -17 0 -23 8 -24l61 -8v-15h-231v15l61 8c8 1 8 7 8 24v430h-69v23zM202 500h221c0 145 16 180 65 240c-28 21 -126 59 -200 15c-48 -29 -86 -94 -86 -224v-31z" />
    <glyph glyph-name="f_f_i" unicode="ffi" horiz-adv-x="929" 
d="M838 23l61 -8v-15h-231v15l61 8c8 1 8 7 8 24v317c0 23 0 113 -15 113h-206v-430c0 -17 0 -23 8 -24l61 -8v-15h-231v15l61 8c8 1 8 7 8 24v430h-221v-430c0 -17 0 -23 8 -24l61 -8v-15h-231v15l61 8c8 1 8 7 8 24v430h-69v23h69c0 62 -4 143 49 214c47 63 126 87 198 85
c62 -1 119 -21 145 -51c45 38 106 52 163 51c89 -2 169 -42 169 -95c0 -36 -30 -52 -57 -49c-23 3 -43 19 -43 49c0 18 9 34 23 42c8 6 16 12 7 18c-5 3 -85 30 -152 -7c-51 -27 -95 -91 -95 -226v-31h145c72 0 117 20 142 21c19 1 27 -7 27 -42v-432c0 -17 0 -23 8 -24z
M202 500h221c0 112 4 174 68 238c-23 19 -119 60 -194 22c-52 -26 -95 -91 -95 -229v-31z" />
    <glyph glyph-name="f_f_l" unicode="ffl" horiz-adv-x="919" 
d="M838 23l61 -8v-15h-231v15l61 8c8 1 8 7 8 24v603c0 49 5 87 -36 114c-4 3 -66 30 -117 -9c-37 -28 -68 -91 -68 -224v-31h107v-23h-107v-430c0 -17 0 -23 8 -24l61 -8v-15h-231v15l61 8c8 1 8 7 8 24v430h-221v-430c0 -17 0 -23 8 -24l61 -8v-15h-231v15l61 8
c8 1 8 7 8 24v430h-69v23h69c0 62 -4 143 49 214c40 53 102 78 164 84c73 7 145 -12 176 -46c45 37 115 50 152 48h164c16 0 16 0 16 -35v-718c0 -17 0 -23 8 -24zM202 500h221c0 100 3 161 65 240c-20 16 -105 53 -178 25c-58 -21 -108 -85 -108 -234v-31z" />
    <glyph glyph-name="f_h" unicode="fh" horiz-adv-x="900" 
d="M819 23l61 -8v-15h-231v15l61 8c8 1 8 7 8 24v265c0 119 -26 155 -95 155c-99 0 -107 -90 -107 -112v-308c0 -17 0 -23 8 -24l61 -8v-15h-231v15l61 8c8 1 8 7 8 24v603c0 49 5 87 -36 114c-4 3 -65 30 -116 -9c-37 -28 -69 -91 -69 -224v-31h107v-23h-107v-430
c0 -17 0 -23 8 -24l61 -8v-15h-231v15l61 8c8 1 8 7 8 24v430h-69v23h69c0 62 -1 154 53 224c40 59 109 78 154 76h184c16 0 16 0 16 -35v-296l153 46c61 0 142 -38 142 -173v-295c0 -17 0 -23 8 -24z" />
    <glyph glyph-name="f_j" unicode="fj" horiz-adv-x="599" 
d="M202 500h145c80 0 126 24 150 21c13 -1 19 -12 19 -42v-575c-24 1 -33 -54 -63 -132c-17 -43 -60 -61 -99 -57c-37 4 -71 28 -71 70c0 17 16 50 50 49c30 0 44 -27 44 -46c0 0 2 -28 -21 -40c61 -19 67 43 67 223v393c0 23 0 113 -15 113h-206v-430c0 -17 0 -23 8 -24
l61 -8v-15h-231v15l61 8c8 1 8 7 8 24v430h-69v23h69c0 62 -3 143 49 214c43 59 113 83 180 85c94 3 181 -39 181 -95c0 -33 -27 -50 -52 -49s-48 17 -48 49c0 18 9 34 23 42c8 6 16 12 7 18c-5 4 -97 34 -167 -16c-44 -32 -80 -95 -80 -217v-31z" />
    <glyph glyph-name="f_k" unicode="fk" horiz-adv-x="925" 
d="M844 500v-23h-54c-45 0 -41 0 -202 -161c62 -69 230 -288 264 -293l53 -7v-16h-252v16l54 7c38 6 -108 160 -177 236l-14 -14v-198c0 -17 0 -23 8 -24l61 -8v-15h-231v15l61 8c8 1 8 7 8 24v603c0 49 5 87 -36 114c-4 3 -77 36 -130 -21c-31 -33 -55 -96 -55 -212v-31
h107v-23h-107v-430c0 -17 0 -23 8 -24l61 -8v-15h-231v15l61 8c8 1 8 7 8 24v430h-69v23h69c0 62 -1 154 53 224c40 59 109 78 154 76h184c16 0 16 0 16 -35v-489l142 141c35 38 45 52 40 57c-3 3 -12 3 -22 3h-60v23h228z" />
    <glyph glyph-name="f_r" unicode="fr" horiz-adv-x="743" 
d="M516 477v-36c39 56 84 75 123 72c56 -4 97 -52 81 -97c-13 -34 -44 -48 -69 -43c-21 4 -39 20 -39 48c0 49 38 44 38 60c0 7 -38 16 -73 -9c-31 -22 -61 -70 -61 -168v-257c0 -17 0 -23 8 -24l61 -8v-15h-231v15l61 8c8 1 8 7 8 24v316c0 23 0 114 -15 114h-206v-430
c0 -17 0 -23 8 -24l61 -8v-15h-231v15l61 8c8 1 8 7 8 24v430h-69v23h69c0 62 -1 154 53 224c39 58 89 78 135 76c64 -4 119 -52 120 -96c0 -39 -36 -55 -64 -47c-20 5 -36 20 -36 47c0 18 9 34 23 42c8 6 16 12 7 18c-6 4 -74 43 -115 -41c-18 -37 -30 -97 -30 -192v-31
h145c74 0 119 21 144 21c18 1 25 -9 25 -44z" />
    <glyph glyph-name="f_t" unicode="ft" horiz-adv-x="677" 
d="M663 62l14 -10c-14 -20 -77 -72 -152 -72c-94 0 -104 55 -104 143v354h-219v-430c0 -17 0 -23 8 -24l61 -8v-15h-231v15l61 8c8 1 8 7 8 24v430h-69v23h69c0 62 -1 154 53 224c37 55 84 76 127 76c68 0 127 -50 128 -96c0 -35 -29 -52 -56 -49c-23 3 -44 19 -44 49
c0 18 9 34 23 42c8 6 16 12 7 18c-4 3 -47 28 -85 -2c-32 -25 -60 -88 -60 -231v-31c181 0 208 -2 247 22s50 106 50 106h17v-128h108v-23h-107v-349c0 -37 10 -111 61 -111c46 0 80 37 85 45z" />
    <glyph glyph-name=".notdef" horiz-adv-x="250" 
 />
    <glyph glyph-name="A" unicode="A" horiz-adv-x="730" 
d="M662 22l53 -7v-15h-248v15l61 8c8 1 8 7 1 24l-72 205h-247l-71 -209c-4 -12 0 -19 8 -20l61 -8v-15h-193v15l61 8c8 1 12 7 16 20l260 757l17 13l272 -766c6 -17 10 -24 21 -25zM221 284h225l-114 325z" />
    <glyph glyph-name="Aacute" unicode="&#xc1;" horiz-adv-x="730" 
d="M416 1050h92c10 0 0 -9 0 -9l-167 -171h-17l75 171s4 9 17 9zM662 22l53 -7v-15h-248v15l61 8c8 1 8 7 1 24l-72 205h-247l-71 -209c-4 -12 0 -19 8 -20l61 -8v-15h-193v15l61 8c8 1 12 7 16 20l260 757l17 13l272 -766c6 -17 10 -24 21 -25zM221 284h225l-114 325z" />
    <glyph glyph-name="Abreve" unicode="&#x102;" horiz-adv-x="730" 
d="M469 1050h22l-18 -27c-33 -48 -81 -70 -128 -65c-35 4 -69 23 -96 58l-26 34h78l7 -10c14 -20 32 -34 51 -40c36 -12 78 2 104 41zM662 22l53 -7v-15h-248v15l61 8c8 1 8 7 1 24l-72 205h-247l-71 -209c-4 -12 0 -19 8 -20l61 -8v-15h-193v15l61 8c8 1 12 7 16 20
l260 757l17 13l272 -766c6 -17 10 -24 21 -25zM221 284h225l-114 325z" />
    <glyph glyph-name="Acaron" unicode="&#x1cd;" horiz-adv-x="730" 
d="M471 1050h22l-111 -170c-6 -10 -11 -16 -14 -17c-8 -4 -14 6 -14 6l-129 181h78l85 -124zM662 22l53 -7v-15h-248v15l61 8c8 1 8 7 1 24l-72 205h-247l-71 -209c-4 -12 0 -19 8 -20l61 -8v-15h-193v15l61 8c8 1 12 7 16 20l260 757l17 13l272 -766c6 -17 10 -24 21 -25z
M221 284h225l-114 325z" />
    <glyph glyph-name="Acircumflex" unicode="&#xc2;" horiz-adv-x="730" 
d="M259 862h-22l111 170c6 10 11 16 14 17c8 4 14 -6 14 -6l129 -181h-78l-85 124zM662 22l53 -7v-15h-248v15l61 8c8 1 8 7 1 24l-72 205h-247l-71 -209c-4 -12 0 -19 8 -20l61 -8v-15h-193v15l61 8c8 1 12 7 16 20l260 757l17 13l272 -766c6 -17 10 -24 21 -25zM221 284
h225l-114 325z" />
    <glyph glyph-name="Adieresis" unicode="&#xc4;" horiz-adv-x="730" 
d="M321 994c0 30 -25 56 -55 56s-56 -26 -56 -56s26 -55 56 -55s55 25 55 55zM521 994c0 30 -24 56 -56 56c-30 0 -53 -26 -53 -56s23 -55 53 -55c32 0 56 25 56 55zM662 22l53 -7v-15h-248v15l61 8c8 1 8 7 1 24l-72 205h-247l-71 -209c-4 -12 0 -19 8 -20l61 -8v-15h-193
v15l61 8c8 1 12 7 16 20l260 757l17 13l272 -766c6 -17 10 -24 21 -25zM221 284h225l-114 325z" />
    <glyph glyph-name="Agrave" unicode="&#xc0;" horiz-adv-x="730" 
d="M378 870l-167 171s-10 9 0 9h92c13 0 17 -9 17 -9l75 -171h-17zM662 22l53 -7v-15h-248v15l61 8c8 1 8 7 1 24l-72 205h-247l-71 -209c-4 -12 0 -19 8 -20l61 -8v-15h-193v15l61 8c8 1 12 7 16 20l260 757l17 13l272 -766c6 -17 10 -24 21 -25zM221 284h225l-114 325z
" />
    <glyph glyph-name="Aring" unicode="&#xc5;" horiz-adv-x="730" 
d="M427 981c0 37 -30 70 -70 70c-38 0 -66 -33 -66 -70c0 -38 28 -69 66 -69c40 0 70 31 70 69zM403 981c0 -24 -20 -45 -46 -45c-24 0 -43 21 -43 45s19 46 43 46c26 0 46 -22 46 -46zM662 22l53 -7v-15h-248v15l61 8c8 1 8 7 1 24l-72 205h-247l-71 -209
c-4 -12 0 -19 8 -20l61 -8v-15h-193v15l61 8c8 1 12 7 16 20l260 757l17 13l272 -766c6 -17 10 -24 21 -25zM221 284h225l-114 325z" />
    <glyph glyph-name="Atilde" unicode="&#xc3;" horiz-adv-x="730" 
d="M201 942l47 70c32 50 60 42 114 23c39 -13 115 -43 139 -15c13 15 22 29 22 29l9 -7l-46 -67c-36 -52 -71 -44 -124 -24c-23 8 -104 50 -130 15c-14 -19 -21 -31 -21 -31zM662 22l53 -7v-15h-248v15l61 8c8 1 8 7 1 24l-72 205h-247l-71 -209c-4 -12 0 -19 8 -20l61 -8
v-15h-193v15l61 8c8 1 12 7 16 20l260 757l17 13l272 -766c6 -17 10 -24 21 -25zM221 284h225l-114 325z" />
    <glyph glyph-name="AE" unicode="&#xc6;" horiz-adv-x="1180" 
d="M1142 214h13c-6 -37 -7 -90 -7 -122c0 -46 7 -92 7 -92h-592v15l61 8c8 1 8 7 8 24v205h-334l-148 -209c-7 -10 0 -19 8 -20l61 -8v-15h-204v15l61 8c8 1 18 8 26 20l529 757h484c-7 -16 -7 -38 -7 -54c0 -53 15 -159 15 -159h-23c0 68 -22 182 -228 182h-106
c-21 0 -24 -9 -24 -16v-308h137c85 0 85 142 85 142h21v-321h-21s15 149 -85 149h-137v-354c0 -18 2 -26 10 -30s35 -8 96 -8c255 0 268 69 294 191zM315 284h316v445z" />
    <glyph glyph-name="B" unicode="B" horiz-adv-x="642" 
d="M50 800l249 8c136 4 272 -32 272 -187c0 -145 -99 -182 -149 -199c90 -25 195 -83 195 -199c0 -123 -80 -223 -303 -223h-264v15l61 8c8 1 8 7 8 24v706c0 17 0 23 -8 24l-61 8v15zM229 777v-334h39c163 0 178 86 178 171c0 140 -85 170 -139 170c-17 0 -50 -1 -78 -7z
M229 401v-352c0 -30 2 -34 28 -34c231 0 245 114 245 201c0 93 -22 213 -273 185z" />
    <glyph glyph-name="C" unicode="C" horiz-adv-x="702" 
d="M660 214h17s-17 -84 -17 -137c0 -47 8 -77 8 -77h-23s-7 30 -37 30c-32 0 -62 -45 -200 -45c-213 0 -373 190 -373 411c0 222 153 419 381 419c69 0 137 -38 168 -45c24 -9 30 30 30 30h23s-11 -23 -6 -81c4 -52 14 -132 14 -132h-23s7 190 -197 190
c-174 0 -259 -191 -260 -380c0 -171 69 -340 206 -367c256 -51 289 184 289 184z" />
    <glyph glyph-name="Cacute" unicode="&#x106;" horiz-adv-x="702" 
d="M411 1050h92c10 0 0 -9 0 -9l-167 -171h-17l75 171s4 9 17 9zM660 214h17s-17 -84 -17 -137c0 -47 8 -77 8 -77h-23s-7 30 -37 30c-32 0 -62 -45 -200 -45c-213 0 -373 190 -373 411c0 222 153 419 381 419c69 0 137 -38 168 -45c24 -9 30 30 30 30h23s-11 -23 -6 -81
c4 -52 14 -132 14 -132h-23s7 190 -197 190c-175 0 -261 -195 -260 -386c1 -169 71 -334 206 -361c256 -51 289 184 289 184z" />
    <glyph glyph-name="Ccaron" unicode="&#x10c;" horiz-adv-x="702" 
d="M501 1050h22l-111 -170c-6 -10 -11 -16 -14 -17c-8 -4 -14 6 -14 6l-129 181h78l85 -124zM660 214h17s-17 -84 -17 -137c0 -47 8 -77 8 -77h-23s-7 30 -37 30c-32 0 -62 -45 -200 -45c-213 0 -373 190 -373 411c0 222 153 419 381 419c69 0 137 -38 168 -45
c24 -9 30 30 30 30h23s-11 -23 -6 -81c4 -52 14 -132 14 -132h-23s7 190 -197 190c-175 0 -261 -195 -260 -386c1 -169 71 -334 206 -361c256 -51 289 184 289 184z" />
    <glyph glyph-name="Ccedilla" unicode="&#xc7;" horiz-adv-x="702" 
d="M660 214h17s-17 -84 -17 -137c0 -47 8 -77 8 -77h-23s-7 30 -37 30c-32 0 -62 -45 -200 -45h-15l-15 -39c80 0 120 -59 116 -111c-3 -40 -33 -75 -92 -75c-63 0 -101 40 -109 47l8 7c23 -14 47 -30 77 -30c45 0 68 23 71 51c5 42 -32 95 -101 95l16 58
c-191 24 -329 203 -329 408c0 222 153 419 381 419c69 0 137 -38 168 -45c24 -9 30 30 30 30h23s-11 -23 -6 -81c4 -52 14 -132 14 -132h-23s7 190 -197 190c-175 0 -261 -193 -260 -384c1 -169 70 -336 206 -363c256 -51 289 184 289 184z" />
    <glyph glyph-name="Ccircumflex" unicode="&#x108;" horiz-adv-x="702" 
d="M277 862h-22l111 170c6 10 11 16 14 17c8 4 14 -6 14 -6l129 -181h-78l-85 124zM660 214h17s-17 -84 -17 -137c0 -47 8 -77 8 -77h-23s-7 30 -37 30c-32 0 -62 -45 -200 -45c-213 0 -373 190 -373 411c0 222 153 419 381 419c69 0 137 -38 168 -45c24 -9 30 30 30 30h23
s-11 -23 -6 -81c4 -52 14 -132 14 -132h-23s7 190 -197 190c-173 0 -259 -189 -260 -378c-1 -171 68 -342 206 -369c256 -51 289 184 289 184z" />
    <glyph glyph-name="D" unicode="D" horiz-adv-x="807" 
d="M50 785v15c179 9 326 9 334 9c249 0 379 -191 388 -388c9 -208 -117 -421 -380 -421h-342v15l61 8c8 1 8 7 8 24v706c0 17 0 23 -8 24zM229 778v-700c0 -56 62 -55 62 -55s54 -5 111 0c167 14 246 209 236 398c-8 162 -82 318 -222 353c0 0 -48 17 -187 4z" />
    <glyph glyph-name="E" unicode="E" horiz-adv-x="667" 
d="M629 214h13c-6 -37 -7 -90 -7 -122c0 -46 7 -92 7 -92h-592v15l61 8c8 1 8 7 8 24v706c0 17 0 23 -8 24l-61 8v15h552c-7 -16 -7 -38 -7 -54c0 -53 15 -159 15 -159h-23c0 68 -22 182 -228 182h-106c-21 0 -24 -9 -24 -16v-308h137c85 0 85 142 85 142h21v-321h-21
s15 149 -85 149h-137v-354c0 -18 2 -26 10 -30s35 -8 96 -8c255 0 268 69 294 191z" />
    <glyph glyph-name="Eacute" unicode="&#xc9;" horiz-adv-x="667" 
d="M406 1050h92c10 0 0 -9 0 -9l-167 -171h-17l75 171s4 9 17 9zM629 214h13c-6 -37 -7 -90 -7 -122c0 -46 7 -92 7 -92h-592v15l61 8c8 1 8 7 8 24v706c0 17 0 23 -8 24l-61 8v15h552c-7 -16 -7 -38 -7 -54c0 -53 15 -159 15 -159h-23c0 68 -22 182 -228 182h-106
c-21 0 -24 -9 -24 -16v-308h137c85 0 85 142 85 142h21v-321h-21s15 149 -85 149h-137v-354c0 -18 2 -26 10 -30s35 -8 96 -8c255 0 268 69 294 191z" />
    <glyph glyph-name="Ebreve" unicode="&#x114;" horiz-adv-x="667" 
d="M451 1050h22l-18 -27c-29 -43 -71 -65 -113 -65c-40 -1 -81 18 -111 58l-26 34h78l7 -10c17 -24 39 -39 63 -43c33 -6 69 9 92 44zM629 214h13c-6 -37 -7 -90 -7 -122c0 -46 7 -92 7 -92h-592v15l61 8c8 1 8 7 8 24v706c0 17 0 23 -8 24l-61 8v15h552
c-7 -16 -7 -38 -7 -54c0 -53 15 -159 15 -159h-23c0 68 -22 182 -228 182h-106c-21 0 -24 -9 -24 -16v-308h137c85 0 85 142 85 142h21v-321h-21s15 149 -85 149h-137v-354c0 -18 2 -26 10 -30s35 -8 96 -8c255 0 268 69 294 191z" />
    <glyph glyph-name="Ecaron" unicode="&#x11a;" horiz-adv-x="667" 
d="M456 1050h22l-111 -170c-6 -10 -11 -16 -14 -17c-8 -4 -14 6 -14 6l-129 181h78l85 -124zM629 214h13c-6 -37 -7 -90 -7 -122c0 -46 7 -92 7 -92h-592v15l61 8c8 1 8 7 8 24v706c0 17 0 23 -8 24l-61 8v15h552c-7 -16 -7 -38 -7 -54c0 -53 15 -159 15 -159h-23
c0 68 -22 182 -228 182h-106c-21 0 -24 -9 -24 -16v-308h137c85 0 85 142 85 142h21v-321h-21s15 149 -85 149h-137v-354c0 -18 2 -26 10 -30s35 -8 96 -8c255 0 268 69 294 191z" />
    <glyph glyph-name="uni0228" unicode="&#x228;" horiz-adv-x="667" 
d="M642 0h-264l-15 -40h24c46 0 92 -38 92 -92s-46 -94 -92 -94c-63 0 -101 40 -109 47l8 7c23 -14 47 -30 77 -30c39 0 70 23 70 70c0 46 -55 76 -93 76h-7l15 56h-298v15l61 8c8 1 8 7 8 24v706c0 17 0 23 -8 24l-61 8v15h552c-7 -16 -7 -38 -7 -54c0 -53 15 -159 15 -159
h-23c0 68 -22 182 -228 182h-106c-21 0 -24 -9 -24 -16v-308h137c85 0 85 142 85 142h21v-321h-21s15 149 -85 149h-137v-354c0 -18 2 -26 10 -30s35 -8 96 -8c255 0 268 69 294 191h13c-6 -37 -7 -90 -7 -122c0 -46 7 -92 7 -92z" />
    <glyph glyph-name="Ecircumflex" unicode="&#xca;" horiz-adv-x="667" 
d="M230 862h-22l111 170c6 10 11 16 14 17c8 4 14 -6 14 -6l129 -181h-78l-85 124zM629 214h13c-6 -37 -7 -90 -7 -122c0 -46 7 -92 7 -92h-592v15l61 8c8 1 8 7 8 24v706c0 17 0 23 -8 24l-61 8v15h552c-7 -16 -7 -38 -7 -54c0 -53 15 -159 15 -159h-23
c0 68 -22 182 -228 182h-106c-21 0 -24 -9 -24 -16v-308h137c85 0 85 142 85 142h21v-321h-21s15 149 -85 149h-137v-354c0 -18 2 -26 10 -30s35 -8 96 -8c255 0 268 69 294 191z" />
    <glyph glyph-name="Edieresis" unicode="&#xcb;" horiz-adv-x="667" 
d="M311 994c0 30 -25 56 -55 56s-56 -26 -56 -56s26 -55 56 -55s55 25 55 55zM511 994c0 30 -24 56 -56 56c-30 0 -53 -26 -53 -56s23 -55 53 -55c32 0 56 25 56 55zM629 214h13c-6 -37 -7 -90 -7 -122c0 -46 7 -92 7 -92h-592v15l61 8c8 1 8 7 8 24v706c0 17 0 23 -8 24
l-61 8v15h552c-7 -16 -7 -38 -7 -54c0 -53 15 -159 15 -159h-23c0 68 -22 182 -228 182h-106c-21 0 -24 -9 -24 -16v-308h137c85 0 85 142 85 142h21v-321h-21s15 149 -85 149h-137v-354c0 -18 2 -26 10 -30s35 -8 96 -8c255 0 268 69 294 191z" />
    <glyph glyph-name="Egrave" unicode="&#xc8;" horiz-adv-x="667" 
d="M399 870l-167 171s-10 9 0 9h92c13 0 17 -9 17 -9l75 -171h-17zM629 214h13c-6 -37 -7 -90 -7 -122c0 -46 7 -92 7 -92h-592v15l61 8c8 1 8 7 8 24v706c0 17 0 23 -8 24l-61 8v15h552c-7 -16 -7 -38 -7 -54c0 -53 15 -159 15 -159h-23c0 68 -22 182 -228 182h-106
c-21 0 -24 -9 -24 -16v-308h137c85 0 85 142 85 142h21v-321h-21s15 149 -85 149h-137v-354c0 -18 2 -26 10 -30s35 -8 96 -8c255 0 268 69 294 191z" />
    <glyph glyph-name="Etilde" unicode="&#x1ebc;" horiz-adv-x="667" 
d="M186 942l47 70c32 50 60 42 114 23c39 -13 115 -43 139 -15c13 15 22 29 22 29l9 -7l-46 -67c-36 -52 -71 -44 -124 -24c-23 8 -104 50 -130 15c-14 -19 -21 -31 -21 -31zM629 214h13c-6 -37 -7 -90 -7 -122c0 -46 7 -92 7 -92h-592v15l61 8c8 1 8 7 8 24v706
c0 17 0 23 -8 24l-61 8v15h552c-7 -16 -7 -38 -7 -54c0 -53 15 -159 15 -159h-23c0 68 -22 182 -228 182h-106c-21 0 -24 -9 -24 -16v-308h137c85 0 85 142 85 142h21v-321h-21s15 149 -85 149h-137v-354c0 -18 2 -26 10 -30s35 -8 96 -8c255 0 268 69 294 191z" />
    <glyph glyph-name="F" unicode="F" horiz-adv-x="635" 
d="M50 800h552c-7 -16 -7 -38 -7 -54c0 -53 15 -159 15 -159h-23c0 68 -22 182 -228 182h-106c-21 0 -24 -9 -24 -16v-308h137c85 0 85 142 85 142h21v-321h-21s15 149 -85 149h-137v-368c0 -17 0 -23 8 -24l61 -8v-15h-248v15l61 8c8 1 8 7 8 24v706c0 17 0 23 -8 24l-61 8
v15z" />
    <glyph glyph-name="G" unicode="G" horiz-adv-x="786" 
d="M743 247v15h-248v-15l61 -8c8 -1 8 -7 8 -24v-147c-46 -29 -90 -60 -157 -54c-169 15 -248 202 -246 387c3 191 92 380 259 380c208 0 216 -194 216 -194h23s-10 80 -14 132c-5 58 6 81 6 81h-23s-10 -27 -40 -27c-31 0 -80 45 -168 45c-235 0 -385 -199 -385 -421
c0 -223 159 -417 379 -417c143 0 203 71 260 62v173c0 17 0 23 8 24z" />
    <glyph glyph-name="H" unicode="H" horiz-adv-x="817" 
d="M767 785l-61 -8c-8 -1 -8 -7 -8 -24v-706c0 -17 0 -23 8 -24l61 -8v-15h-248v15l61 8c8 1 8 7 8 24v362h-359v-362c0 -17 0 -23 8 -24l61 -8v-15h-248v15l61 8c8 1 8 7 8 24v706c0 17 0 23 -8 24l-61 8v15h248v-15l-61 -8c-8 -1 -8 -7 -8 -24v-312h359v312
c0 17 0 23 -8 24l-61 8v15h248v-15z" />
    <glyph glyph-name="I" unicode="I" horiz-adv-x="348" 
d="M50 800h248v-15l-61 -8c-8 -1 -8 -7 -8 -24v-706c0 -17 0 -23 8 -24l61 -8v-15h-248v15l61 8c8 1 8 7 8 24v706c0 17 0 23 -8 24l-61 8v15z" />
    <glyph glyph-name="Iacute" unicode="&#xcd;" horiz-adv-x="348" 
d="M202 1050h92c10 0 0 -9 0 -9l-167 -171h-17l75 171s4 9 17 9zM50 800h248v-15l-61 -8c-8 -1 -8 -7 -8 -24v-706c0 -17 0 -23 8 -24l61 -8v-15h-248v15l61 8c8 1 8 7 8 24v706c0 17 0 23 -8 24l-61 8v15z" />
    <glyph glyph-name="Ibreve" unicode="&#x12c;" horiz-adv-x="368" 
d="M296 1050h22l-18 -27c-30 -44 -73 -66 -117 -65c-39 0 -78 20 -107 58l-26 34h78l7 -10c15 -23 36 -37 58 -42c35 -8 72 6 97 43zM55 800h248v-15l-61 -8c-8 -1 -8 -7 -8 -24v-706c0 -17 0 -23 8 -24l61 -8v-15h-248v15l61 8c8 1 8 7 8 24v706c0 17 0 23 -8 24l-61 8v15z
" />
    <glyph glyph-name="Icaron" unicode="&#x1cf;" horiz-adv-x="368" 
d="M296 1050h22l-111 -170c-6 -10 -11 -16 -14 -17c-8 -4 -14 6 -14 6l-129 181h78l85 -124zM58 800h248v-15l-61 -8c-8 -1 -8 -7 -8 -24v-706c0 -17 0 -23 8 -24l61 -8v-15h-248v15l61 8c8 1 8 7 8 24v706c0 17 0 23 -8 24l-61 8v15z" />
    <glyph glyph-name="Icircumflex" unicode="&#xce;" horiz-adv-x="368" 
d="M72 862h-22l111 170c6 10 11 16 14 17c8 4 14 -6 14 -6l129 -181h-78l-85 124zM60 800h248v-15l-61 -8c-8 -1 -8 -7 -8 -24v-706c0 -17 0 -23 8 -24l61 -8v-15h-248v15l61 8c8 1 8 7 8 24v706c0 17 0 23 -8 24l-61 8v15z" />
    <glyph glyph-name="Idieresis" unicode="&#xcf;" horiz-adv-x="411" 
d="M161 994c0 30 -25 56 -55 56s-56 -26 -56 -56s26 -55 56 -55s55 25 55 55zM361 994c0 30 -24 56 -56 56c-30 0 -53 -26 -53 -56s23 -55 53 -55c32 0 56 25 56 55zM82 800h248v-15l-61 -8c-8 -1 -8 -7 -8 -24v-706c0 -17 0 -23 8 -24l61 -8v-15h-248v15l61 8c8 1 8 7 8 24
v706c0 17 0 23 -8 24l-61 8v15z" />
    <glyph glyph-name="Igrave" unicode="&#xcc;" horiz-adv-x="348" 
d="M234 870l-167 171s-10 9 0 9h92c13 0 17 -9 17 -9l75 -171h-17zM50 800h248v-15l-61 -8c-8 -1 -8 -7 -8 -24v-706c0 -17 0 -23 8 -24l61 -8v-15h-248v15l61 8c8 1 8 7 8 24v706c0 17 0 23 -8 24l-61 8v15z" />
    <glyph glyph-name="Itilde" unicode="&#x128;" horiz-adv-x="431" 
d="M50 942l47 70c15 23 38 38 53 38c23 0 29 -4 61 -15c39 -13 115 -43 139 -15c13 15 22 29 22 29l9 -7l-46 -67c-16 -23 -39 -40 -62 -40c-16 0 -38 7 -62 16c-23 8 -104 50 -130 15c-14 -19 -21 -31 -21 -31zM92 800h248v-15l-61 -8c-8 -1 -8 -7 -8 -24v-706
c0 -17 0 -23 8 -24l61 -8v-15h-248v15l61 8c8 1 8 7 8 24v706c0 17 0 23 -8 24l-61 8v15z" />
    <glyph glyph-name="J" unicode="J" horiz-adv-x="441" 
d="M123 800h248v-15l-61 -8c-8 -1 -8 -7 -8 -24v-671c-32 0 -36 -64 -73 -156c-25 -66 -90 -83 -142 -68c-43 12 -76 45 -72 90c2 20 22 52 68 52c32 0 53 -35 53 -60c0 -36 -28 -48 -28 -48c76 -22 84 108 84 258v603c0 17 0 23 -8 24l-61 8v15z" />
    <glyph glyph-name="K" unicode="K" horiz-adv-x="763" 
d="M695 21l53 -6v-15h-257v15l61 8c8 1 12 9 1 24l-291 379l-33 -37v-342c0 -17 0 -23 8 -24l61 -8v-15h-248v15l61 8c8 1 8 7 8 24v706c0 17 0 23 -8 24l-61 8v15h248v-15l-61 -8c-8 -1 -8 -7 -8 -24v-303l298 307c12 12 7 18 -8 20l-61 8v15h220v-15l-53 -7
c-12 -2 -31 -8 -44 -21l-250 -266l334 -444c7 -9 21 -24 30 -26z" />
    <glyph glyph-name="L" unicode="L" horiz-adv-x="657" 
d="M629 214h13c-6 -37 -7 -90 -7 -122c0 -46 7 -92 7 -92h-592v15l61 8c8 1 8 7 8 24v706c0 17 0 23 -8 24l-61 8v15h248v-15l-61 -8c-8 -1 -8 -7 -8 -24v-692c0 -18 2 -26 10 -30s35 -8 96 -8c255 0 268 69 294 191z" />
    <glyph glyph-name="M" unicode="M" horiz-adv-x="905" 
d="M855 785l-61 -8c-8 -1 -8 -7 -8 -24v-706c0 -17 0 -23 8 -24l61 -8v-15h-248v15l61 8c8 1 8 7 8 24v631l-248 -688l-270 671v-614c0 -17 0 -23 8 -24l61 -8v-15h-184v15l61 8c8 1 8 7 8 24v692c0 33 0 36 -7 38l-62 8v15h185l235 -585l213 585h179v-15z" />
    <glyph glyph-name="N" unicode="N" horiz-adv-x="733" 
d="M506 800h184v-15l-61 -8c-8 -1 -8 -7 -8 -24v-738s0 -15 -8 -15c-11 0 -30 30 -30 30l-425 621v-604c0 -17 0 -23 8 -24l61 -8v-15h-184v15l61 8c8 1 8 7 8 24v692c0 33 0 36 -7 38l-62 8v15h151l381 -567v520c0 17 0 23 -8 24l-61 8v15z" />
    <glyph glyph-name="Ntilde" unicode="&#xd1;" horiz-adv-x="733" 
d="M199 890l47 70c32 50 60 42 114 23c39 -13 115 -43 139 -15c13 15 22 29 22 29l9 -7l-46 -67c-36 -52 -71 -44 -124 -24c-23 8 -104 50 -130 15c-14 -19 -21 -31 -21 -31zM506 800h184v-15l-61 -8c-8 -1 -8 -7 -8 -24v-738s0 -15 -8 -15c-11 0 -30 30 -30 30l-425 621
v-604c0 -17 0 -23 8 -24l61 -8v-15h-184v15l61 8c8 1 8 7 8 24v692c0 33 0 36 -7 38l-62 8v15h151l381 -567v520c0 17 0 23 -8 24l-61 8v15z" />
    <glyph glyph-name="O" unicode="O" horiz-adv-x="822" 
d="M411 815c206 0 376 -184 376 -415c0 -230 -170 -415 -376 -415s-376 185 -376 415c0 231 170 415 376 415zM411 19c139 0 260 158 260 381s-121 381 -260 381s-260 -158 -260 -381s121 -381 260 -381z" />
    <glyph glyph-name="Oacute" unicode="&#xd3;" horiz-adv-x="822" 
d="M446 1050h92c10 0 0 -9 0 -9l-167 -171h-17l75 171s4 9 17 9zM411 815c206 0 376 -184 376 -415c0 -230 -170 -415 -376 -415s-376 185 -376 415c0 231 170 415 376 415zM411 19c139 0 260 158 260 381s-121 381 -260 381s-260 -158 -260 -381s121 -381 260 -381z" />
    <glyph glyph-name="Obreve" unicode="&#x14e;" horiz-adv-x="822" 
d="M519 1050h22l-18 -27c-28 -42 -68 -64 -109 -65c-42 -2 -84 17 -115 58l-26 34h78l7 -10c15 -23 36 -37 58 -42c35 -8 72 6 97 43zM411 815c206 0 376 -184 376 -415c0 -230 -170 -415 -376 -415s-376 185 -376 415c0 231 170 415 376 415zM411 19c139 0 260 158 260 381
s-121 381 -260 381s-260 -158 -260 -381s121 -381 260 -381z" />
    <glyph glyph-name="Ocaron" unicode="&#x1d1;" horiz-adv-x="822" 
d="M517 1050h22l-111 -170c-6 -10 -11 -16 -14 -17c-8 -4 -14 6 -14 6l-129 181h78l85 -124zM411 815c206 0 376 -184 376 -415c0 -230 -170 -415 -376 -415s-376 185 -376 415c0 231 170 415 376 415zM411 19c139 0 260 158 260 381s-121 381 -260 381s-260 -158 -260 -381
s121 -381 260 -381z" />
    <glyph glyph-name="Ocircumflex" unicode="&#xd4;" horiz-adv-x="822" 
d="M309 862h-22l111 170c6 10 11 16 14 17c8 4 14 -6 14 -6l129 -181h-78l-85 124zM411 815c206 0 376 -184 376 -415c0 -230 -170 -415 -376 -415s-376 185 -376 415c0 231 170 415 376 415zM411 19c139 0 260 158 260 381s-121 381 -260 381s-260 -158 -260 -381
s121 -381 260 -381z" />
    <glyph glyph-name="Odieresis" unicode="&#xd6;" horiz-adv-x="822" 
d="M369 994c0 30 -25 56 -55 56s-56 -26 -56 -56s26 -55 56 -55s55 25 55 55zM569 994c0 30 -24 56 -56 56c-30 0 -53 -26 -53 -56s23 -55 53 -55c32 0 56 25 56 55zM411 815c206 0 376 -184 376 -415c0 -230 -170 -415 -376 -415s-376 185 -376 415c0 231 170 415 376 415z
M411 19c139 0 260 158 260 381s-121 381 -260 381s-260 -158 -260 -381s121 -381 260 -381z" />
    <glyph glyph-name="Ograve" unicode="&#xd2;" horiz-adv-x="822" 
d="M428 870l-167 171s-10 9 0 9h92c13 0 17 -9 17 -9l75 -171h-17zM411 815c206 0 376 -184 376 -415c0 -230 -170 -415 -376 -415s-376 185 -376 415c0 231 170 415 376 415zM411 19c139 0 260 158 260 381s-121 381 -260 381s-260 -158 -260 -381s121 -381 260 -381z" />
    <glyph glyph-name="Oslash" unicode="&#xd8;" horiz-adv-x="822" 
d="M648 815l-35 -65c104 -73 174 -202 174 -350c0 -230 -170 -415 -376 -415c-68 0 -132 20 -187 55l-31 -56h-47l44 81c-94 75 -155 197 -155 335c0 231 170 415 376 415c59 0 115 -15 165 -42l23 42h49zM226 130l323 594c-40 37 -88 57 -138 57
c-139 0 -260 -158 -260 -381c0 -109 29 -203 75 -270zM580 691l-326 -596c44 -48 99 -76 157 -76c139 0 260 158 260 381c0 121 -36 223 -91 291z" />
    <glyph glyph-name="Otilde" unicode="&#xd5;" horiz-adv-x="822" 
d="M251 942l47 70c32 50 60 42 114 23c39 -13 115 -43 139 -15c13 15 22 29 22 29l9 -7l-46 -67c-36 -52 -71 -44 -124 -24c-23 8 -104 50 -130 15c-14 -19 -21 -31 -21 -31zM411 815c206 0 376 -184 376 -415c0 -230 -170 -415 -376 -415s-376 185 -376 415
c0 231 170 415 376 415zM411 19c139 0 260 158 260 381s-121 381 -260 381s-260 -158 -260 -381s121 -381 260 -381z" />
    <glyph glyph-name="OE" unicode="&#x152;" horiz-adv-x="1134" 
d="M1096 214h13c-6 -37 -7 -90 -7 -122c0 -46 7 -92 7 -92h-698c-206 0 -376 170 -376 400c0 231 170 400 376 400h658c-7 -16 -7 -38 -7 -54c0 -53 15 -159 15 -159h-23c0 68 -22 182 -228 182h-106c-21 0 -24 -9 -24 -16v-308h137c85 0 85 142 85 142h21v-321h-21
s15 149 -85 149h-137v-354c0 -18 2 -26 10 -30s35 -8 96 -8c255 0 268 69 294 191zM586 168v464c0 93 -92 142 -175 142c-139 0 -260 -151 -260 -374s121 -374 260 -374c83 0 175 49 175 142z" />
    <glyph glyph-name="P" unicode="P" horiz-adv-x="606" 
d="M50 785v15l249 8c136 4 272 -32 272 -187c0 -116 -63 -166 -132 -193c-109 -42 -210 -1 -210 -1v-380c0 -17 0 -23 8 -24l61 -8v-15h-248v15l61 8c8 1 8 7 8 24v706c0 17 0 23 -8 24zM229 777v-334h39c163 0 178 86 178 171c0 180 -133 181 -217 163z" />
    <glyph glyph-name="Q" unicode="Q" horiz-adv-x="808" 
d="M1334 -182l16 -16c-145 -103 -293 -133 -436 -125c-324 20 -626 240 -825 262c0 101 84 138 84 138c-77 70 -138 192 -138 323c0 231 170 416 377 416c216 0 361 -185 361 -416c0 -229 -145 -415 -361 -415c-69 0 -145 32 -200 62c-39 -15 -69 -38 -69 -85
c269 -64 522 -166 771 -192c141 -16 281 -6 420 48zM159 400c0 -265 130 -392 256 -384c120 8 236 137 236 384c0 252 -120 377 -242 379c-124 3 -250 -125 -250 -379z" />
    <glyph glyph-name="R" unicode="R" horiz-adv-x="765" 
d="M50 785v15l249 8c136 4 272 -32 272 -187c0 -152 -110 -198 -195 -209c63 -7 156 -78 171 -210c16 -171 102 -187 203 -187l-8 -15c-210 -54 -280 32 -303 124c-21 84 7 250 -148 281c-23 5 -62 0 -62 0v-358c0 -17 0 -23 8 -24l61 -8v-15h-248v15l61 8c8 1 8 7 8 24v706
c0 17 0 23 -8 24zM229 777v-334h39c163 0 178 86 178 171c0 180 -133 181 -217 163z" />
    <glyph glyph-name="S" unicode="S" horiz-adv-x="611" 
d="M489 587v10c-3 43 -26 187 -199 187c-115 0 -154 -70 -154 -146c0 -100 168 -157 223 -184c108 -53 192 -93 207 -215c23 -201 -122 -254 -246 -254c-83 0 -176 53 -207 53s-38 -38 -38 -38h-23s8 30 8 77c0 53 -17 137 -17 137h22c0 -162 185 -194 255 -194
c109 0 147 58 147 142c0 79 -66 124 -146 165c-119 62 -269 114 -269 257c0 208 176 231 230 231c62 0 115 -27 147 -32c30 -5 52 17 52 17h23s-11 -23 -6 -81c4 -52 14 -132 14 -132h-23z" />
    <glyph glyph-name="Sacute" unicode="&#x15a;" horiz-adv-x="625" 
d="M351 1050h92c10 0 0 -9 0 -9l-167 -171h-17l75 171s4 9 17 9zM496 587v10c-3 43 -26 187 -199 187c-115 0 -154 -70 -154 -146c0 -100 168 -157 223 -184c108 -53 192 -93 207 -215c23 -201 -122 -254 -246 -254c-83 0 -176 53 -207 53s-38 -38 -38 -38h-23s8 30 8 77
c0 53 -17 137 -17 137h22c0 -162 185 -194 255 -194c109 0 147 58 147 142c0 89 -84 135 -177 181c-113 56 -238 110 -238 241c0 208 176 231 230 231c62 0 115 -27 147 -32c30 -5 52 17 52 17h23s-11 -23 -6 -81c4 -52 14 -132 14 -132h-23z" />
    <glyph glyph-name="Scaron" unicode="&#x160;" horiz-adv-x="625" 
d="M402 1050h22l-111 -170c-6 -10 -11 -16 -14 -17c-8 -4 -14 6 -14 6l-129 181h78l85 -124zM496 587v10c-3 43 -26 187 -199 187c-115 0 -154 -70 -154 -146c0 -100 168 -157 223 -184c108 -53 192 -93 207 -215c23 -201 -122 -254 -246 -254c-83 0 -176 53 -207 53
s-38 -38 -38 -38h-23s8 30 8 77c0 53 -17 137 -17 137h22c0 -162 185 -194 255 -194c109 0 147 58 147 142c0 82 -72 128 -155 170c-118 60 -260 113 -260 252c0 208 176 231 230 231c62 0 115 -27 147 -32c30 -5 52 17 52 17h23s-11 -23 -6 -81c4 -52 14 -132 14 -132h-23z
" />
    <glyph glyph-name="Scedilla" unicode="&#x15e;" horiz-adv-x="625" 
d="M496 587v10c-3 43 -26 187 -199 187c-115 0 -154 -70 -154 -146c0 -100 168 -157 223 -184c108 -53 192 -93 207 -215c23 -201 -122 -254 -246 -254h-2l-15 -39c73 0 114 -51 116 -99c2 -44 -27 -87 -92 -87c-63 0 -101 40 -109 47l8 7c23 -14 47 -30 77 -30
c53 0 75 33 71 67c-4 38 -41 79 -101 79l16 57c-74 10 -149 51 -176 51c-31 0 -38 -38 -38 -38h-23s8 30 8 77c0 53 -17 137 -17 137h22c0 -162 185 -194 255 -194c109 0 147 58 147 142c0 85 -77 131 -164 175c-116 58 -251 111 -251 247c0 208 176 231 230 231
c62 0 115 -27 147 -32c30 -5 52 17 52 17h23s-11 -23 -6 -81c4 -52 14 -132 14 -132h-23z" />
    <glyph glyph-name="Scircumflex" unicode="&#x15c;" horiz-adv-x="625" 
d="M184 862h-22l111 170c6 10 11 16 14 17c8 4 14 -6 14 -6l129 -181h-78l-85 124zM496 587v10c-3 43 -26 187 -199 187c-115 0 -154 -70 -154 -146c0 -100 168 -157 223 -184c108 -53 192 -93 207 -215c23 -201 -122 -254 -246 -254c-83 0 -176 53 -207 53s-38 -38 -38 -38
h-23s8 30 8 77c0 53 -17 137 -17 137h22c0 -162 185 -194 255 -194c109 0 147 58 147 142c0 77 -63 122 -140 163c-121 62 -275 114 -275 259c0 208 176 231 230 231c62 0 115 -27 147 -32c30 -5 52 17 52 17h23s-11 -23 -6 -81c4 -52 14 -132 14 -132h-23z" />
    <glyph glyph-name="T" unicode="T" horiz-adv-x="646" 
d="M23 800h600c-7 -16 -7 -38 -7 -54c0 -53 15 -159 15 -159h-23c0 68 -22 181 -229 182c-1 -4 -1 -9 -1 -16v-706c0 -17 0 -23 8 -24l61 -8v-15h-248v15l61 8c8 1 8 7 8 24v706c0 7 0 12 -1 16c-207 -1 -229 -114 -229 -182h-23s15 106 15 159c0 16 0 38 -7 54z" />
    <glyph glyph-name="U" unicode="U" horiz-adv-x="783" 
d="M556 800h184v-15l-61 -8c-8 -1 -7 -7 -7 -24v-468c0 -161 -56 -298 -258 -298c-272 0 -295 163 -295 389v377c0 17 0 23 -8 24l-61 8v15h248v-15l-61 -8c-8 -1 -8 -7 -8 -24v-375c0 -210 5 -352 189 -352c164 0 207 124 207 278v449c0 17 0 23 -8 24l-61 8v15z" />
    <glyph glyph-name="Uacute" unicode="&#xda;" horiz-adv-x="783" 
d="M451 1050h92c10 0 0 -9 0 -9l-167 -171h-17l75 171s4 9 17 9zM556 800h184v-15l-61 -8c-8 -1 -7 -7 -7 -24v-468c0 -161 -56 -298 -258 -298c-272 0 -295 163 -295 389v377c0 17 0 23 -8 24l-61 8v15h248v-15l-61 -8c-8 -1 -8 -7 -8 -24v-375c0 -210 5 -352 189 -352
c164 0 207 124 207 278v449c0 17 0 23 -8 24l-61 8v15z" />
    <glyph glyph-name="Ubreve" unicode="&#x16c;" horiz-adv-x="783" 
d="M544 1050h22l-18 -27c-30 -44 -73 -66 -116 -65c-39 0 -79 19 -108 58l-26 34h78l7 -10c17 -25 40 -39 64 -43c33 -5 68 9 91 44zM556 800h184v-15l-61 -8c-8 -1 -7 -7 -7 -24v-468c0 -161 -56 -298 -258 -298c-272 0 -295 163 -295 389v377c0 17 0 23 -8 24l-61 8v15
h248v-15l-61 -8c-8 -1 -8 -7 -8 -24v-375c0 -210 5 -352 189 -352c164 0 207 124 207 278v449c0 17 0 23 -8 24l-61 8v15z" />
    <glyph glyph-name="Ucaron" unicode="&#x1d3;" horiz-adv-x="783" 
d="M517 1050h22l-111 -170c-6 -10 -11 -16 -14 -17c-8 -4 -14 6 -14 6l-129 181h78l85 -124zM556 800h184v-15l-61 -8c-8 -1 -7 -7 -7 -24v-468c0 -161 -56 -298 -258 -298c-272 0 -295 163 -295 389v377c0 17 0 23 -8 24l-61 8v15h248v-15l-61 -8c-8 -1 -8 -7 -8 -24v-375
c0 -210 5 -352 189 -352c164 0 207 124 207 278v449c0 17 0 23 -8 24l-61 8v15z" />
    <glyph glyph-name="Ucircumflex" unicode="&#xdb;" horiz-adv-x="783" 
d="M310 862h-22l111 170c6 10 11 16 14 17c8 4 14 -6 14 -6l129 -181h-78l-85 124zM556 800h184v-15l-61 -8c-8 -1 -7 -7 -7 -24v-468c0 -161 -56 -298 -258 -298c-272 0 -295 163 -295 389v377c0 17 0 23 -8 24l-61 8v15h248v-15l-61 -8c-8 -1 -8 -7 -8 -24v-375
c0 -210 5 -352 189 -352c164 0 207 124 207 278v449c0 17 0 23 -8 24l-61 8v15z" />
    <glyph glyph-name="Udieresis" unicode="&#xdc;" horiz-adv-x="783" 
d="M346 994c0 30 -25 56 -55 56s-56 -26 -56 -56s26 -55 56 -55s55 25 55 55zM546 994c0 30 -24 56 -56 56c-30 0 -53 -26 -53 -56s23 -55 53 -55c32 0 56 25 56 55zM556 800h184v-15l-61 -8c-8 -1 -7 -7 -7 -24v-468c0 -161 -56 -298 -258 -298c-272 0 -295 163 -295 389
v377c0 17 0 23 -8 24l-61 8v15h248v-15l-61 -8c-8 -1 -8 -7 -8 -24v-375c0 -210 5 -352 189 -352c164 0 207 124 207 278v449c0 17 0 23 -8 24l-61 8v15z" />
    <glyph glyph-name="Ugrave" unicode="&#xd9;" horiz-adv-x="783" 
d="M433 870l-167 171s-10 9 0 9h92c13 0 17 -9 17 -9l75 -171h-17zM556 800h184v-15l-61 -8c-8 -1 -7 -7 -7 -24v-468c0 -161 -56 -298 -258 -298c-272 0 -295 163 -295 389v377c0 17 0 23 -8 24l-61 8v15h248v-15l-61 -8c-8 -1 -8 -7 -8 -24v-375c0 -210 5 -352 189 -352
c164 0 207 124 207 278v449c0 17 0 23 -8 24l-61 8v15z" />
    <glyph glyph-name="Uring" unicode="&#x16e;" horiz-adv-x="783" 
d="M472 981c0 37 -30 70 -70 70c-38 0 -66 -33 -66 -70c0 -38 28 -69 66 -69c40 0 70 31 70 69zM448 981c0 -24 -20 -45 -46 -45c-24 0 -43 21 -43 45s19 46 43 46c26 0 46 -22 46 -46zM556 800h184v-15l-61 -8c-8 -1 -7 -7 -7 -24v-468c0 -161 -56 -298 -258 -298
c-272 0 -295 163 -295 389v377c0 17 0 23 -8 24l-61 8v15h248v-15l-61 -8c-8 -1 -8 -7 -8 -24v-375c0 -210 5 -352 189 -352c164 0 207 124 207 278v449c0 17 0 23 -8 24l-61 8v15z" />
    <glyph glyph-name="Utilde" unicode="&#x168;" horiz-adv-x="783" 
d="M243 942l47 70c32 50 60 42 114 23c39 -13 115 -43 139 -15c13 15 22 29 22 29l9 -7l-46 -67c-36 -52 -71 -44 -124 -24c-23 8 -104 50 -130 15c-14 -19 -21 -31 -21 -31zM556 800h184v-15l-61 -8c-8 -1 -7 -7 -7 -24v-468c0 -161 -56 -298 -258 -298
c-272 0 -295 163 -295 389v377c0 17 0 23 -8 24l-61 8v15h248v-15l-61 -8c-8 -1 -8 -7 -8 -24v-375c0 -210 5 -352 189 -352c164 0 207 124 207 278v449c0 17 0 23 -8 24l-61 8v15z" />
    <glyph glyph-name="V" unicode="V" horiz-adv-x="730" 
d="M522 800h193v-15l-61 -8c-8 -1 -12 -7 -16 -20l-260 -757l-17 -13l-272 766c-6 17 -10 24 -21 25l-53 7v15h248v-15l-61 -8c-8 -1 -8 -7 -1 -24l197 -561l193 565c4 12 0 19 -8 20l-61 8v15z" />
    <glyph glyph-name="W" unicode="W" horiz-adv-x="1123" 
d="M915 800h193v-15l-61 -8c-8 -1 -12 -7 -16 -20l-260 -757l-17 -13l-193 544l-183 -531l-17 -13l-272 766c-6 17 -10 24 -21 25l-53 7v15h248v-15l-61 -8c-8 -1 -8 -7 -1 -24l197 -561l139 407l-55 154c-6 17 -10 24 -21 25l-53 7v15h248v-15l-61 -8c-8 -1 -8 -7 -1 -24
l197 -561l193 565c4 12 0 19 -8 20l-61 8v15z" />
    <glyph glyph-name="X" unicode="X" horiz-adv-x="733" 
d="M665 22l53 -7v-15h-248v15l61 8c8 1 11 7 1 24l-180 308l-207 -312c-7 -12 0 -19 8 -20l61 -8v-15h-199v15l53 7c12 2 26 15 30 21l232 349l-213 361c-5 9 -12 23 -21 25l-53 7v15h248v-15l-61 -8c-8 -1 -11 -7 -1 -24l170 -289l194 293c7 12 0 19 -8 20l-61 8v15h193
v-15l-53 -7c-12 -2 -20 -15 -24 -21l-219 -331l223 -379c5 -9 12 -23 21 -25z" />
    <glyph glyph-name="Y" unicode="Y" horiz-adv-x="704" 
d="M496 800h193v-15l-53 -7c-12 -2 -20 -15 -24 -21l-207 -313v-397c0 -17 0 -23 8 -24l61 -8v-15h-248v15l61 8c8 1 8 7 8 24v356l-206 350c-5 9 -12 23 -21 25l-53 7v15h248v-15l-61 -8c-8 -1 -11 -7 -1 -24l170 -289l194 293c7 12 0 19 -8 20l-61 8v15z" />
    <glyph glyph-name="Yacute" unicode="&#xdd;" horiz-adv-x="704" 
d="M426 1050h92c10 0 0 -9 0 -9l-167 -171h-17l75 171s4 9 17 9zM496 800h193v-15l-53 -7c-12 -2 -20 -15 -24 -21l-207 -313v-397c0 -17 0 -23 8 -24l61 -8v-15h-248v15l61 8c8 1 8 7 8 24v356l-206 350c-5 9 -12 23 -21 25l-53 7v15h248v-15l-61 -8c-8 -1 -11 -7 -1 -24
l170 -289l194 293c7 12 0 19 -8 20l-61 8v15z" />
    <glyph glyph-name="Ycircumflex" unicode="&#x176;" horiz-adv-x="704" 
d="M254 862h-22l111 170c6 10 11 16 14 17c8 4 14 -6 14 -6l129 -181h-78l-85 124zM496 800h193v-15l-53 -7c-12 -2 -20 -15 -24 -21l-207 -313v-397c0 -17 0 -23 8 -24l61 -8v-15h-248v15l61 8c8 1 8 7 8 24v356l-206 350c-5 9 -12 23 -21 25l-53 7v15h248v-15l-61 -8
c-8 -1 -11 -7 -1 -24l170 -289l194 293c7 12 0 19 -8 20l-61 8v15z" />
    <glyph glyph-name="Ydieresis" unicode="&#x178;" horiz-adv-x="704" 
d="M336 994c0 30 -25 56 -55 56s-56 -26 -56 -56s26 -55 56 -55s55 25 55 55zM536 994c0 30 -24 56 -56 56c-30 0 -53 -26 -53 -56s23 -55 53 -55c32 0 56 25 56 55zM496 800h193v-15l-53 -7c-12 -2 -20 -15 -24 -21l-207 -313v-397c0 -17 0 -23 8 -24l61 -8v-15h-248v15
l61 8c8 1 8 7 8 24v356l-206 350c-5 9 -12 23 -21 25l-53 7v15h248v-15l-61 -8c-8 -1 -11 -7 -1 -24l170 -289l194 293c7 12 0 19 -8 20l-61 8v15z" />
    <glyph glyph-name="Ygrave" unicode="&#x1ef2;" horiz-adv-x="704" 
d="M398 870l-167 171s-10 9 0 9h92c13 0 17 -9 17 -9l75 -171h-17zM496 800h193v-15l-53 -7c-12 -2 -20 -15 -24 -21l-207 -313v-397c0 -17 0 -23 8 -24l61 -8v-15h-248v15l61 8c8 1 8 7 8 24v356l-206 350c-5 9 -12 23 -21 25l-53 7v15h248v-15l-61 -8c-8 -1 -11 -7 -1 -24
l170 -289l194 293c7 12 0 19 -8 20l-61 8v15z" />
    <glyph glyph-name="Ytilde" unicode="&#x1ef8;" horiz-adv-x="704" 
d="M208 942l47 70c32 50 60 42 114 23c39 -13 115 -43 139 -15c13 15 22 29 22 29l9 -7l-46 -67c-36 -52 -71 -44 -124 -24c-23 8 -104 50 -130 15c-14 -19 -21 -31 -21 -31zM496 800h193v-15l-53 -7c-12 -2 -20 -15 -24 -21l-207 -313v-397c0 -17 0 -23 8 -24l61 -8v-15
h-248v15l61 8c8 1 8 7 8 24v356l-206 350c-5 9 -12 23 -21 25l-53 7v15h248v-15l-61 -8c-8 -1 -11 -7 -1 -24l170 -289l194 293c7 12 0 19 -8 20l-61 8v15z" />
    <glyph glyph-name="Z" unicode="Z" horiz-adv-x="642" 
d="M94 817l24 -17h477v-22l-443 -743h184c130 0 244 1 259 179h22s-17 -91 -17 -137c0 -31 1 -62 2 -77h-577v30l440 736h-186c-176 0 -192 -163 -192 -179h-23s16 106 16 154c0 37 -9 76 -9 76h23z" />
    <glyph glyph-name="Zacute" unicode="&#x179;" horiz-adv-x="642" 
d="M386 1050h92c10 0 0 -9 0 -9l-167 -171h-17l75 171s4 9 17 9zM94 817l24 -17h477v-22l-443 -743h184c130 0 244 1 259 179h22s-17 -91 -17 -137c0 -31 1 -62 2 -77h-577v30l440 736h-186c-176 0 -192 -163 -192 -179h-23s16 106 16 154c0 37 -9 76 -9 76h23z" />
    <glyph glyph-name="Zcaron" unicode="&#x17d;" horiz-adv-x="642" 
d="M447 1050h22l-111 -170c-6 -10 -11 -16 -14 -17c-8 -4 -14 6 -14 6l-129 181h78l85 -124zM94 817l24 -17h477v-22l-443 -743h184c130 0 244 1 259 179h22s-17 -91 -17 -137c0 -31 1 -62 2 -77h-577v30l440 736h-186c-176 0 -192 -163 -192 -179h-23s16 106 16 154
c0 37 -9 76 -9 76h23z" />
    <glyph glyph-name="Zcircumflex" unicode="&#x1e90;" horiz-adv-x="642" 
d="M219 862h-22l111 170c6 10 11 16 14 17c8 4 14 -6 14 -6l129 -181h-78l-85 124zM94 817l24 -17h477v-22l-443 -743h184c130 0 244 1 259 179h22s-17 -91 -17 -137c0 -31 1 -62 2 -77h-577v30l440 736h-186c-176 0 -192 -163 -192 -179h-23s16 106 16 154
c0 37 -9 76 -9 76h23z" />
    <glyph glyph-name="a" unicode="a" horiz-adv-x="476" 
d="M380 376v-253c0 -38 8 -92 16 -92h60v-15c-68 0 -107 -16 -129 -31c-27 5 -40 19 -40 46v39c-14 -46 -75 -85 -128 -85c-118 0 -151 124 -86 198l16 16l198 62v107c0 46 -5 83 -22 100c-31 31 -87 22 -121 0s-55 -50 -55 -78c0 0 8 18 40 18c23 0 44 -19 44 -48
c0 -31 -24 -47 -49 -47c-23 1 -48 15 -57 43c-14 47 12 91 47 120c32 25 62 35 106 38c145 10 160 -86 160 -138zM287 239l-159 -49c-39 -84 16 -142 61 -150c28 -5 98 0 98 98v101z" />
    <glyph glyph-name="aacute" unicode="&#xe1;" horiz-adv-x="476" 
d="M257 750h92c10 0 0 -9 0 -9l-167 -171h-17l75 171s4 9 17 9zM380 376v-253c0 -38 8 -92 16 -92h60v-15c-68 0 -107 -16 -129 -31c-27 5 -40 19 -40 46v39c-14 -46 -75 -85 -128 -85c-118 0 -151 124 -86 198c8 9 16 16 16 16l198 62v107c0 46 -5 83 -22 100
c-31 31 -87 22 -121 0s-55 -50 -55 -78c0 0 8 18 40 18c23 0 44 -19 44 -48c0 -31 -24 -47 -49 -47c-23 1 -48 15 -57 43c-14 47 12 91 47 120c32 25 62 35 106 38c145 10 160 -86 160 -138zM287 239l-159 -49c-39 -84 16 -142 61 -150c28 -5 98 0 98 98v101z" />
    <glyph glyph-name="abreve" unicode="&#x103;" horiz-adv-x="476" 
d="M335 736h22l-18 -27c-29 -43 -71 -65 -113 -65c-40 -1 -81 19 -111 58l-26 34h78l7 -10c16 -24 39 -39 62 -43c34 -6 69 9 93 44zM380 376v-253c0 -38 8 -92 16 -92h60v-15c-68 0 -107 -16 -129 -31c-27 5 -40 19 -40 46v39c-14 -46 -75 -85 -128 -85
c-118 0 -151 124 -86 198c8 9 16 16 16 16l198 62v107c0 46 -5 83 -22 100c-31 31 -87 22 -121 0s-55 -50 -55 -78c0 0 8 18 40 18c23 0 44 -19 44 -48c0 -31 -24 -47 -49 -47c-23 0 -48 15 -57 43c-14 47 12 91 47 120c32 25 62 35 106 38c145 10 160 -86 160 -138z
M287 239l-159 -49c-39 -84 16 -142 61 -150c28 -5 98 0 98 98v101z" />
    <glyph glyph-name="acaron" unicode="&#x1ce;" horiz-adv-x="476" 
d="M349 761h22l-111 -170c-6 -10 -11 -16 -14 -17c-8 -4 -14 6 -14 6l-129 181h78l85 -124zM380 376v-253c0 -38 8 -92 16 -92h60v-15c-68 0 -107 -16 -129 -31c-27 5 -40 19 -40 46v39c-14 -46 -75 -85 -128 -85c-118 0 -151 124 -86 198c8 9 16 16 16 16l198 62v107
c0 46 -5 83 -22 100c-31 31 -87 22 -121 0s-55 -50 -55 -78c0 0 8 18 40 18c23 0 44 -19 44 -48c0 -30 -22 -45 -46 -47c-24 -1 -51 13 -60 43c-14 47 12 91 47 120c32 25 62 35 106 38c145 10 160 -86 160 -138zM287 239l-159 -49c-39 -84 16 -142 61 -150
c28 -5 98 0 98 98v101z" />
    <glyph glyph-name="acircumflex" unicode="&#xe2;" horiz-adv-x="476" 
d="M135 579h-22l111 170c6 10 11 16 14 17c8 4 14 -6 14 -6l129 -181h-78l-85 124zM380 376v-253c0 -38 8 -92 16 -92h60v-15c-68 0 -107 -16 -129 -31c-27 5 -40 19 -40 46v39c-14 -46 -75 -85 -128 -85c-118 0 -151 124 -86 198c8 9 16 16 16 16l198 62v107
c0 46 -5 83 -22 100c-31 31 -87 22 -121 0s-55 -50 -55 -78c0 0 8 18 40 18c23 0 44 -19 44 -48c0 -31 -24 -47 -49 -47c-23 0 -48 15 -57 43c-14 47 12 91 47 120c32 25 62 35 106 38c145 10 160 -86 160 -138zM287 239l-159 -49c-39 -84 16 -142 61 -150c28 -5 98 0 98 98
v101z" />
    <glyph glyph-name="adieresis" unicode="&#xe4;" horiz-adv-x="476" 
d="M178 699c0 30 -25 56 -55 56s-56 -26 -56 -56s26 -55 56 -55s55 25 55 55zM378 699c0 30 -24 56 -56 56c-30 0 -53 -26 -53 -56s23 -55 53 -55c32 0 56 25 56 55zM380 376v-253c0 -38 8 -92 16 -92h60v-15c-68 0 -107 -16 -129 -31c-27 5 -40 19 -40 46v39
c-14 -46 -75 -85 -128 -85c-118 0 -151 124 -86 198c8 9 16 16 16 16l198 62v107c0 46 -5 83 -22 100c-31 31 -87 22 -121 0s-55 -50 -55 -78c0 0 8 18 40 18c23 0 44 -19 44 -48c0 -32 -25 -48 -52 -47c-22 2 -46 16 -54 43c-14 47 12 91 47 120c32 25 62 35 106 38
c145 10 160 -86 160 -138zM287 239l-159 -49c-39 -84 16 -142 61 -150c28 -5 98 0 98 98v101z" />
    <glyph glyph-name="agrave" unicode="&#xe0;" horiz-adv-x="476" 
d="M277 570l-167 171s-10 9 0 9h92c13 0 17 -9 17 -9l75 -171h-17zM380 376v-253c0 -38 8 -92 16 -92h60v-15c-68 0 -107 -16 -129 -31c-27 5 -40 19 -40 46v39c-14 -46 -75 -85 -128 -85c-118 0 -151 124 -86 198c8 9 16 16 16 16l198 62v107c0 46 -5 83 -22 100
c-31 31 -87 22 -121 0s-55 -50 -55 -78c0 0 8 18 40 18c23 0 44 -19 44 -48c0 -33 -27 -49 -54 -46c-22 1 -44 15 -52 42c-14 47 12 91 47 120c32 25 62 35 106 38c145 10 160 -86 160 -138zM287 239l-159 -49c-39 -84 16 -142 61 -150c28 -5 98 0 98 98v101z" />
    <glyph glyph-name="aring" unicode="&#xe5;" horiz-adv-x="476" 
d="M306 680c0 37 -30 70 -70 70c-38 0 -66 -33 -66 -70c0 -38 28 -69 66 -69c40 0 70 31 70 69zM282 680c0 -24 -20 -45 -46 -45c-24 0 -43 21 -43 45s19 46 43 46c26 0 46 -22 46 -46zM380 376v-253c0 -38 8 -92 16 -92h60v-15c-68 0 -107 -16 -129 -31
c-27 5 -40 19 -40 46v39c-14 -46 -75 -85 -128 -85c-118 0 -151 124 -86 198c8 9 16 16 16 16l198 62v107c0 46 -5 83 -22 100c-31 31 -87 22 -121 0s-55 -50 -55 -78c0 0 8 18 40 18c23 0 44 -19 44 -48c0 -31 -24 -47 -49 -47c-23 0 -48 15 -57 43c-14 47 12 91 47 120
c32 25 62 35 106 38c145 10 160 -86 160 -138zM287 239l-159 -49c-39 -84 16 -142 61 -150c28 -5 98 0 98 98v101z" />
    <glyph glyph-name="atilde" unicode="&#xe3;" horiz-adv-x="476" 
d="M67 642l47 70c15 23 38 38 53 38c23 0 29 -4 61 -15c39 -13 115 -43 139 -15c13 15 22 29 22 29l9 -7l-46 -67c-16 -23 -39 -40 -62 -40c-16 0 -38 7 -62 16c-23 8 -104 50 -130 15c-14 -19 -21 -31 -21 -31zM380 376v-253c0 -38 8 -92 16 -92h60v-15
c-68 0 -107 -16 -129 -31c-27 5 -40 19 -40 46v39c-14 -46 -75 -85 -128 -85c-118 0 -151 124 -86 198c8 9 16 16 16 16l198 62v107c0 46 -5 83 -22 100c-31 31 -87 22 -121 0s-55 -50 -55 -78c0 0 8 18 40 18c23 0 44 -19 44 -48c0 -30 -23 -46 -47 -47
c-24 0 -50 14 -59 43c-14 47 12 91 47 120c32 25 62 35 106 38c145 10 160 -86 160 -138zM287 239l-159 -49c-39 -84 16 -142 61 -150c28 -5 98 0 98 98v101z" />
    <glyph glyph-name="ae" unicode="&#xe6;" horiz-adv-x="708" 
d="M674 345l-314 -94s0 -30 8 -75c22 -101 76 -147 162 -147c92 0 130 96 138 116l15 -16c-2 -14 -30 -138 -192 -138c-89 0 -153 43 -191 104c-15 -68 -90 -110 -143 -110c-118 0 -148 124 -86 192l16 16l198 62v113c0 46 -5 83 -22 100c-31 31 -87 22 -121 0
s-55 -50 -55 -78c0 0 8 18 40 18c23 0 44 -19 44 -48c0 -30 -22 -46 -47 -47c-24 0 -50 14 -59 43c-14 47 12 91 47 120c32 25 62 35 106 38c69 5 109 -14 132 -41c36 31 84 50 141 50c146 0 192 -125 192 -171c0 -4 -3 -5 -9 -7zM358 274l233 69c0 15 0 156 -108 156
c-138 0 -125 -225 -125 -225zM285 138v95l-159 -49c-36 -78 16 -136 61 -144c28 -5 98 0 98 98z" />
    <glyph glyph-name="b" unicode="b" horiz-adv-x="570" 
d="M197 468l91 37c92 -22 233 -75 251 -282c14 -160 -105 -250 -220 -237c-53 6 -78 20 -122 54c0 -22 2 -46 -6 -53c-9 -8 -55 11 -123 13v17h23c15 0 15 106 15 137v494c0 23 0 100 -15 100l-61 -2v23c82 0 124 30 146 35c17 3 21 -8 21 -58v-278zM197 443v-305
c0 -98 72 -129 114 -129c60 0 122 46 122 206c0 154 -107 230 -176 253z" />
    <glyph glyph-name="c" unicode="c" horiz-adv-x="481" 
d="M440 136l16 -15c-8 -24 -31 -140 -194 -140c-162 0 -236 129 -232 261c5 128 85 260 232 274c93 9 205 -51 186 -140c-5 -25 -27 -38 -48 -39c-26 -1 -53 15 -53 47c0 23 10 34 22 49c25 32 -37 81 -115 60c-96 -26 -137 -137 -131 -245c7 -118 70 -232 178 -228
c102 3 132 97 139 116z" />
    <glyph glyph-name="cacute" unicode="&#x107;" horiz-adv-x="481" 
d="M265 750h92c10 0 0 -9 0 -9l-167 -171h-17l75 171s4 9 17 9zM440 136l16 -15c-8 -24 -31 -140 -194 -140c-157 0 -232 122 -232 250c0 132 80 270 232 285c93 9 205 -51 186 -140c-6 -28 -32 -41 -56 -39c-23 2 -45 18 -45 47c0 23 10 34 22 49c25 32 -37 81 -115 60
c-99 -27 -140 -145 -130 -257c10 -113 72 -220 177 -216c102 3 132 97 139 116z" />
    <glyph glyph-name="ccaron" unicode="&#x10d;" horiz-adv-x="481" 
d="M374 761h22l-111 -170c-6 -10 -11 -16 -14 -17c-8 -4 -14 6 -14 6l-129 181h78l85 -124zM440 136l16 -15c-8 -24 -31 -140 -194 -140c-154 0 -228 117 -232 241c-3 135 77 279 232 294c93 9 205 -51 186 -140c-7 -31 -36 -43 -62 -38c-21 4 -39 20 -39 46
c0 23 10 34 22 49c25 32 -37 81 -115 60c-101 -27 -141 -150 -129 -263c12 -111 73 -213 176 -210c102 3 132 97 139 116z" />
    <glyph glyph-name="ccedilla" unicode="&#xe7;" horiz-adv-x="482" 
d="M440 136l17 -15c-9 -26 -33 -133 -180 -140l-14 -38c77 0 117 -56 116 -106c-1 -42 -31 -80 -92 -80c-63 0 -101 40 -109 47l8 7c23 -14 47 -30 77 -30c47 0 69 25 71 54c3 42 -34 92 -101 92l15 54c-148 7 -219 127 -218 252c1 131 81 268 232 283
c93 9 205 -51 186 -140c-7 -31 -36 -43 -62 -38c-21 4 -39 20 -39 46c0 23 10 34 22 49c25 32 -37 81 -115 60c-97 -26 -138 -140 -130 -250c8 -116 70 -227 177 -223c102 3 132 97 139 116z" />
    <glyph glyph-name="ccircumflex" unicode="&#x109;" horiz-adv-x="481" 
d="M163 579h-22l111 170c6 10 11 16 14 17c8 4 14 -6 14 -6l129 -181h-78l-85 124zM440 136l16 -15c-8 -24 -31 -140 -194 -140c-154 0 -228 117 -232 241c-3 135 77 279 232 294c93 9 205 -51 186 -140c-6 -29 -33 -41 -58 -38c-22 2 -43 18 -43 46c0 23 10 34 22 49
c25 32 -37 81 -115 60c-101 -27 -141 -149 -129 -262c11 -111 73 -214 176 -211c102 3 132 97 139 116z" />
    <glyph glyph-name="d" unicode="d" horiz-adv-x="570" 
d="M480 30h60v-15c-68 0 -149 -38 -161 -28c-8 7 -6 31 -6 53c-44 -34 -69 -48 -122 -54c-115 -13 -234 77 -220 237c18 207 159 260 251 282l91 -37v181c0 23 0 99 -15 99l-61 -2v23c79 0 122 26 144 30c18 3 23 -8 23 -56v-627c1 -37 9 -86 16 -86zM373 443l-77 32
c-69 -23 -159 -106 -159 -260c0 -160 62 -206 122 -206c42 0 114 31 114 129v305z" />
    <glyph glyph-name="e" unicode="e" horiz-adv-x="481" 
d="M447 332l-314 -94s0 -24 8 -69c22 -101 76 -147 162 -147c92 0 130 96 138 116l15 -16c-2 -14 -30 -138 -192 -138c-158 0 -235 132 -234 265s81 267 234 267c146 0 192 -131 192 -177c0 -4 -3 -5 -9 -7zM131 261l233 69s0 162 -108 162c-138 0 -125 -231 -125 -231z" />
    <glyph glyph-name="eacute" unicode="&#xe9;" horiz-adv-x="481" 
d="M260 750h92c10 0 0 -9 0 -9l-167 -171h-17l75 171s4 9 17 9zM447 332l-314 -94s0 -24 8 -69c22 -101 76 -147 162 -147c92 0 130 96 138 116l15 -16c-2 -14 -30 -138 -192 -138c-157 0 -234 130 -234 262c0 134 80 270 234 270c146 0 192 -131 192 -177c0 -4 -3 -5 -9 -7
zM131 261l233 69s0 162 -108 162c-138 0 -125 -231 -125 -231z" />
    <glyph glyph-name="ebreve" unicode="&#x115;" horiz-adv-x="481" 
d="M372 736h22l-18 -27c-32 -46 -78 -68 -123 -65c-37 3 -73 22 -101 58l-26 34h78l7 -10c16 -24 39 -38 62 -43c33 -6 69 9 93 44zM447 332l-314 -94s0 -24 8 -69c22 -101 76 -147 162 -147c92 0 130 96 138 116l15 -16c-2 -14 -30 -138 -192 -138
c-158 0 -234 131 -234 264c1 133 80 268 234 268c146 0 192 -131 192 -177c0 -4 -3 -5 -9 -7zM131 261l233 69s0 162 -108 162c-138 0 -125 -231 -125 -231z" />
    <glyph glyph-name="ecaron" unicode="&#x11b;" horiz-adv-x="481" 
d="M359 761h22l-111 -170c-6 -10 -11 -16 -14 -17c-8 -4 -14 6 -14 6l-129 181h78l85 -124zM447 332l-314 -94s0 -24 8 -69c22 -101 76 -147 162 -147c92 0 130 96 138 116l15 -16c-2 -14 -30 -138 -192 -138c-158 0 -235 132 -234 265s81 267 234 267
c146 0 192 -131 192 -177c0 -4 -3 -5 -9 -7zM131 261l233 69s0 162 -108 162c-138 0 -125 -231 -125 -231z" />
    <glyph glyph-name="uni0229" unicode="&#x229;" horiz-adv-x="481" 
d="M447 332l-314 -94s0 -24 8 -69c22 -101 76 -147 162 -147c92 0 130 96 138 116l15 -16c-2 -14 -29 -131 -179 -138l-14 -37c74 0 115 -52 116 -101c1 -44 -28 -85 -92 -85c-63 0 -101 40 -109 47l8 7c23 -14 47 -30 77 -30c53 0 75 32 71 66c-4 39 -40 80 -101 80l15 53
c-148 9 -220 138 -218 267c2 133 81 265 234 265c146 0 192 -131 192 -177c0 -4 -3 -5 -9 -7zM131 261l233 69s0 162 -108 162c-138 0 -125 -231 -125 -231z" />
    <glyph glyph-name="ecircumflex" unicode="&#xea;" horiz-adv-x="481" 
d="M148 579h-22l111 170c6 10 11 16 14 17c8 4 14 -6 14 -6l129 -181h-78l-85 124zM447 332l-314 -94s0 -24 8 -69c22 -101 76 -147 162 -147c92 0 130 96 138 116l15 -16c-2 -14 -30 -138 -192 -138c-159 0 -236 134 -234 268c3 132 82 264 234 264
c146 0 192 -131 192 -177c0 -4 -3 -5 -9 -7zM131 261l233 69s0 162 -108 162c-138 0 -125 -231 -125 -231z" />
    <glyph glyph-name="edieresis" unicode="&#xeb;" horiz-adv-x="481" 
d="M220 699c0 30 -25 56 -55 56s-56 -26 -56 -56s26 -55 56 -55s55 25 55 55zM420 699c0 30 -24 56 -56 56c-30 0 -53 -26 -53 -56s23 -55 53 -55c32 0 56 25 56 55zM447 332l-314 -94s0 -24 8 -69c22 -101 76 -147 162 -147c92 0 130 96 138 116l15 -16
c-2 -14 -30 -138 -192 -138c-155 0 -232 127 -234 258c-2 135 78 274 234 274c146 0 192 -131 192 -177c0 -4 -3 -5 -9 -7zM131 261l233 69s0 162 -108 162c-138 0 -125 -231 -125 -231z" />
    <glyph glyph-name="egrave" unicode="&#xe8;" horiz-adv-x="481" 
d="M300 570l-167 171s-10 9 0 9h92c13 0 17 -9 17 -9l75 -171h-17zM447 332l-314 -94s0 -24 8 -69c22 -101 76 -147 162 -147c92 0 130 96 138 116l15 -16c-2 -14 -30 -138 -192 -138c-156 0 -232 129 -234 259c-1 135 78 273 234 273c146 0 192 -131 192 -177
c0 -4 -3 -5 -9 -7zM131 261l233 69s0 162 -108 162c-138 0 -125 -231 -125 -231z" />
    <glyph glyph-name="etilde" unicode="&#x1ebd;" horiz-adv-x="481" 
d="M100 642l47 70c32 50 60 42 114 23c39 -13 115 -43 139 -15c13 15 22 29 22 29l9 -7l-46 -67c-36 -52 -71 -44 -124 -24c-23 8 -104 50 -130 15c-14 -19 -21 -31 -21 -31zM447 332l-314 -94s0 -24 8 -69c22 -101 76 -147 162 -147c92 0 130 96 138 116l15 -16
c-2 -14 -30 -138 -192 -138c-154 0 -231 126 -234 255c-3 136 77 277 234 277c146 0 192 -131 192 -177c0 -4 -3 -5 -9 -7zM131 261l233 69s0 162 -108 162c-138 0 -125 -231 -125 -231z" />
    <glyph glyph-name="f" unicode="f" horiz-adv-x="312" 
d="M40 500h69c0 62 -1 154 53 224c36 53 81 74 123 76c69 2 131 -49 132 -96c0 -27 -22 -50 -50 -50s-50 23 -50 50c0 18 9 34 23 42c8 6 16 12 7 18c-3 3 -30 18 -60 10c-40 -10 -85 -61 -85 -243v-31h107v-23h-107v-430c0 -17 0 -23 8 -24l61 -8v-15h-231v15l61 8
c8 1 8 7 8 24v430h-69v23z" />
    <glyph glyph-name="g" unicode="g" horiz-adv-x="537" 
d="M134 202l-11 11c-39 35 -56 83 -54 130c2 88 68 173 177 173c59 0 112 -29 145 -74c44 -63 97 -52 97 -41c0 10 -32 21 -32 49c0 30 22 43 44 42c19 -1 39 -14 45 -36c9 -37 -19 -74 -59 -80c-21 -4 -46 1 -70 18c29 -100 -34 -230 -170 -230c-36 0 -71 12 -100 29
c-31 -14 -114 -94 -8 -135c197 32 277 48 327 -61c11 -24 49 -213 -207 -269c-185 -41 -273 29 -278 111c-3 58 36 123 114 154c-134 78 -27 176 40 209zM333 341c0 105 -43 158 -86 159c-44 1 -89 -52 -89 -159s43 -161 86 -162c44 -1 89 53 89 162zM130 -8
c0 0 -56 -46 -56 -126c0 -57 58 -122 176 -113c133 11 165 95 173 134c19 112 -56 151 -293 105z" />
    <glyph glyph-name="h" unicode="h" horiz-adv-x="588" 
d="M507 23l61 -8v-15h-231v15l61 8c8 1 8 7 8 24v265c0 119 -26 155 -95 155c-99 0 -107 -90 -107 -112v-308c0 -17 0 -23 8 -24l61 -8v-15h-231v15l61 8c8 1 8 7 8 24v602c0 23 0 99 -15 99l-61 -2v23c85 0 131 34 153 32c11 -2 16 -13 16 -43v-289l153 46
c61 0 142 -38 142 -173v-295c0 -17 0 -23 8 -24z" />
    <glyph glyph-name="i" unicode="i" horiz-adv-x="303" 
d="M150 644c-31 0 -55 24 -55 54c0 31 24 55 55 55c29 0 54 -24 54 -55c0 -30 -25 -54 -54 -54zM212 23l61 -8v-15h-231v15l61 8c8 1 8 7 8 24v317c0 23 0 98 -15 98l-61 -2v23c83 0 129 34 151 35c13 0 18 -9 18 -39v-432c0 -17 0 -23 8 -24z" />
    <glyph glyph-name="iacute" unicode="&#xed;" horiz-adv-x="302" 
d="M183 750h92c10 0 0 -9 0 -9l-167 -171h-17l75 171s4 9 17 9zM205 23l61 -8v-15h-231v15l61 8c8 1 8 7 8 24v317c0 23 0 98 -15 98l-61 -2v23c77 0 123 30 147 34c16 3 22 -4 22 -38v-432c0 -17 0 -23 8 -24z" />
    <glyph glyph-name="ibreve" unicode="&#x12d;" horiz-adv-x="303" 
d="M266 736h22l-18 -27c-27 -40 -65 -62 -103 -65c-44 -4 -88 15 -121 58l-26 34h78l7 -10c18 -26 42 -41 68 -44c32 -3 65 12 87 45zM227 23l61 -8v-15h-231v15l61 8c8 1 8 7 8 24v317c0 23 0 98 -15 98l-61 -2v23c76 0 121 29 146 34c16 4 23 -3 23 -38v-432
c0 -17 0 -23 8 -24z" />
    <glyph glyph-name="icaron" unicode="&#x1d0;" horiz-adv-x="303" 
d="M266 761h22l-111 -170c-6 -10 -11 -16 -14 -17c-8 -4 -14 6 -14 6l-129 181h78l85 -124zM219 23l61 -8v-15h-231v15l61 8c8 1 8 7 8 24v317c0 23 0 98 -15 98l-61 -2v23c76 0 121 28 145 34c17 4 24 -3 24 -38v-432c0 -17 0 -23 8 -24z" />
    <glyph glyph-name="icircumflex" unicode="&#xee;" horiz-adv-x="303" 
d="M42 579h-22l111 170c6 10 11 16 14 17c8 4 14 -6 14 -6l129 -181h-78l-85 124zM206 23l61 -8v-15h-231v15l61 8c8 1 8 7 8 24v317c0 23 0 98 -15 98l-61 -2v23c79 0 125 31 149 35c14 2 20 -7 20 -39v-432c0 -17 0 -23 8 -24z" />
    <glyph glyph-name="idieresis" unicode="&#xef;" horiz-adv-x="303" 
d="M106 699c0 30 -25 56 -55 56s-56 -26 -56 -56s26 -55 56 -55s55 25 55 55zM306 699c0 30 -24 56 -56 56c-30 0 -53 -26 -53 -56s23 -55 53 -55c32 0 56 25 56 55zM209 23l61 -8v-15h-231v15l61 8c8 1 8 7 8 24v317c0 23 0 98 -15 98l-61 -2v23c84 0 131 35 153 35
c11 0 16 -10 16 -39v-432c0 -17 0 -23 8 -24z" />
    <glyph glyph-name="igrave" unicode="&#xec;" horiz-adv-x="304" 
d="M197 570l-167 171s-10 9 0 9h92c13 0 17 -9 17 -9l75 -171h-17zM219 23l61 -8v-15h-231v15l61 8c8 1 8 7 8 24v317c0 23 0 98 -15 98l-61 -2v23c75 0 120 28 145 34c17 4 24 -3 24 -38v-432c0 -17 0 -23 8 -24z" />
    <glyph glyph-name="itilde" unicode="&#x129;" horiz-adv-x="303" 
d="M-11 642l47 70c15 23 38 38 53 38c23 0 29 -4 61 -15c39 -13 115 -43 139 -15c13 15 22 29 22 29l9 -7l-46 -67c-16 -23 -39 -40 -62 -40c-16 0 -38 7 -62 16c-23 8 -104 50 -130 15c-14 -19 -21 -31 -21 -31zM213 23l61 -8v-15h-231v15l61 8c8 1 8 7 8 24v317
c0 23 0 98 -15 98l-61 -2v23c85 0 132 36 153 35c11 -1 16 -10 16 -39v-432c0 -17 0 -23 8 -24z" />
    <glyph glyph-name="j" unicode="j" horiz-adv-x="263" 
d="M128 645c-30 0 -54 25 -54 54s24 54 54 54c29 0 54 -25 54 -54s-25 -54 -54 -54zM14 460v23c84 0 132 36 154 34c10 0 15 -9 15 -32v-581c-24 1 -33 -54 -63 -132c-16 -41 -57 -59 -94 -57c-40 2 -76 27 -76 70c0 17 16 50 50 49c30 0 44 -27 44 -46c0 0 2 -28 -21 -40
c61 -19 67 43 67 223v393c0 23 0 98 -15 98z" />
    <glyph glyph-name="k" unicode="k" horiz-adv-x="613" 
d="M532 500v-23h-54c-45 0 -41 0 -202 -161c62 -69 230 -288 264 -293l53 -7v-16h-252v16l54 7c38 6 -108 160 -177 236l-14 -14v-198c0 -17 0 -23 8 -24l61 -8v-15h-231v15l61 8c8 1 8 7 8 24v602c0 23 0 99 -15 99l-61 -2v23c85 0 131 33 153 32c11 0 16 -10 16 -38v-487
l142 141c58 62 46 60 18 60h-60v23h228z" />
    <glyph glyph-name="l" unicode="l" horiz-adv-x="293" 
d="M212 23l61 -8v-15h-231v15l61 8c8 1 8 7 8 24v603c0 23 0 98 -15 98l-61 -2v23c77 0 122 26 146 31c16 3 23 -4 23 -35v-718c0 -17 0 -23 8 -24z" />
    <glyph glyph-name="m" unicode="m" horiz-adv-x="838" 
d="M757 23l61 -8v-15h-231v15l61 8c8 1 8 7 8 24v265c0 119 -16 155 -95 155c-89 0 -87 -90 -87 -112v-308c0 -17 0 -23 8 -24l61 -8v-15h-231v15l61 8c8 1 8 7 8 24v265c0 119 -16 155 -95 155c-89 0 -87 -90 -87 -112v-308c0 -17 0 -23 8 -24l61 -8v-15h-231v15l61 8
c8 1 8 7 8 24v316c0 23 0 99 -15 99l-61 -2v23c77 0 122 27 146 32c17 3 23 -6 23 -46l133 46c38 0 83 -14 112 -57l163 57c61 0 142 -38 142 -173v-295c0 -17 0 -23 8 -24z" />
    <glyph glyph-name="n" unicode="n" horiz-adv-x="583" 
d="M502 23l61 -8v-15h-231v15l61 8c8 1 8 7 8 24v265c0 119 -26 155 -95 155c-99 0 -107 -90 -107 -112v-308c0 -17 0 -23 8 -24l61 -8v-15h-231v15l61 8c8 1 8 7 8 24v316c0 23 0 99 -15 99l-61 -2v23c80 0 125 30 148 33c15 2 21 -8 21 -47l153 46c61 0 142 -38 142 -173
v-295c0 -17 0 -23 8 -24z" />
    <glyph glyph-name="ntilde" unicode="&#xf1;" horiz-adv-x="583" 
d="M135 642l47 70c32 50 60 42 114 23c39 -13 115 -43 139 -15c13 15 22 29 22 29l9 -7l-46 -67c-36 -52 -71 -44 -124 -24c-23 8 -104 50 -130 15c-14 -19 -21 -31 -21 -31zM502 23l61 -8v-15h-231v15l61 8c8 1 8 7 8 24v265c0 119 -26 155 -95 155
c-99 0 -107 -90 -107 -112v-308c0 -17 0 -23 8 -24l61 -8v-15h-231v15l61 8c8 1 8 7 8 24v316c0 23 0 99 -15 99l-61 -2v23c79 0 124 30 147 33c16 3 22 -7 22 -47l153 46c61 0 142 -38 142 -173v-295c0 -17 0 -23 8 -24z" />
    <glyph glyph-name="o" unicode="o" horiz-adv-x="548" 
d="M274 517c134 0 244 -120 244 -269c0 -147 -110 -268 -244 -268s-244 121 -244 268c0 149 110 269 244 269zM274 0c76 0 137 111 137 251s-61 249 -137 249s-137 -109 -137 -249s61 -251 137 -251z" />
    <glyph glyph-name="oacute" unicode="&#xf3;" horiz-adv-x="548" 
d="M295 750h92c10 0 0 -9 0 -9l-167 -171h-17l75 171s4 9 17 9zM274 517c134 0 244 -120 244 -269c0 -147 -110 -268 -244 -268s-244 121 -244 268c0 149 110 269 244 269zM274 0c76 0 137 111 137 251s-61 249 -137 249s-137 -109 -137 -249s61 -251 137 -251z" />
    <glyph glyph-name="obreve" unicode="&#x14f;" horiz-adv-x="548" 
d="M377 736h22l-18 -27c-28 -42 -69 -64 -110 -65c-41 -2 -83 17 -114 58l-26 34h78l7 -10c16 -24 39 -39 62 -43c34 -6 69 9 93 44zM274 517c134 0 244 -120 244 -269c0 -147 -110 -268 -244 -268s-244 121 -244 268c0 149 110 269 244 269zM274 0c76 0 137 111 137 251
s-61 249 -137 249s-137 -109 -137 -249s61 -251 137 -251z" />
    <glyph glyph-name="ocaron" unicode="&#x1d2;" horiz-adv-x="548" 
d="M377 761h22l-111 -170c-6 -10 -11 -16 -14 -17c-8 -4 -14 6 -14 6l-129 181h78l85 -124zM274 517c134 0 244 -120 244 -269c0 -147 -110 -268 -244 -268s-244 121 -244 268c0 149 110 269 244 269zM274 0c76 0 137 111 137 251s-61 249 -137 249s-137 -109 -137 -249
s61 -251 137 -251z" />
    <glyph glyph-name="ocircumflex" unicode="&#xf4;" horiz-adv-x="548" 
d="M173 579h-22l111 170c6 10 11 16 14 17c8 4 14 -6 14 -6l129 -181h-78l-85 124zM274 517c134 0 244 -120 244 -269c0 -147 -110 -268 -244 -268s-244 121 -244 268c0 149 110 269 244 269zM274 0c76 0 137 111 137 251s-61 249 -137 249s-137 -109 -137 -249
s61 -251 137 -251z" />
    <glyph glyph-name="odieresis" unicode="&#xf6;" horiz-adv-x="548" 
d="M234 699c0 30 -25 56 -55 56s-56 -26 -56 -56s26 -55 56 -55s55 25 55 55zM434 699c0 30 -24 56 -56 56c-30 0 -53 -26 -53 -56s23 -55 53 -55c32 0 56 25 56 55zM274 517c134 0 244 -120 244 -269c0 -147 -110 -268 -244 -268s-244 121 -244 268c0 149 110 269 244 269z
M274 0c76 0 137 111 137 251s-61 249 -137 249s-137 -109 -137 -249s61 -251 137 -251z" />
    <glyph glyph-name="ograve" unicode="&#xf2;" horiz-adv-x="548" 
d="M311 570l-167 171s-10 9 0 9h92c13 0 17 -9 17 -9l75 -171h-17zM274 517c134 0 244 -120 244 -269c0 -147 -110 -268 -244 -268s-244 121 -244 268c0 149 110 269 244 269zM274 0c76 0 137 111 137 251s-61 249 -137 249s-137 -109 -137 -249s61 -251 137 -251z" />
    <glyph glyph-name="oslash" unicode="&#xf8;" horiz-adv-x="551" 
d="M521 517l-69 -85c41 -48 66 -113 66 -184c0 -147 -110 -268 -244 -268c-55 0 -106 21 -147 55l-42 -51h-47l62 76c-43 49 -70 115 -70 188c0 149 110 269 244 269c57 0 109 -22 151 -58l47 58h49zM155 127l227 279c-25 58 -64 94 -108 94c-76 0 -137 -109 -137 -249
c0 -45 6 -87 18 -124zM396 365l-226 -277c25 -54 62 -88 104 -88c76 0 137 111 137 251c0 41 -5 80 -15 114z" />
    <glyph glyph-name="otilde" unicode="&#xf5;" horiz-adv-x="548" 
d="M114 642l47 70c32 50 60 42 114 23c39 -13 115 -43 139 -15c13 15 22 29 22 29l9 -7l-46 -67c-36 -52 -71 -44 -124 -24c-23 8 -104 50 -130 15c-14 -19 -21 -31 -21 -31zM274 517c134 0 244 -120 244 -269c0 -147 -110 -268 -244 -268s-244 121 -244 268
c0 149 110 269 244 269zM274 0c76 0 137 111 137 251s-61 249 -137 249s-137 -109 -137 -249s61 -251 137 -251z" />
    <glyph glyph-name="oe" unicode="&#x153;" horiz-adv-x="869" 
d="M835 332l-314 -94s0 -24 8 -69c22 -101 76 -147 162 -147c92 0 130 96 138 116l15 -16c-2 -14 -30 -138 -192 -138c-87 0 -149 40 -187 98c-45 -62 -114 -102 -191 -102c-134 0 -244 121 -244 268c0 149 110 269 244 269c77 0 147 -40 191 -102c39 60 102 101 187 101
c146 0 192 -131 192 -177c0 -4 -3 -5 -9 -7zM274 0c76 0 137 111 137 251s-61 249 -137 249s-137 -109 -137 -249s61 -251 137 -251zM519 261l233 69s0 162 -108 162c-138 0 -125 -231 -125 -231z" />
    <glyph glyph-name="p" unicode="p" horiz-adv-x="581" 
d="M35 462v23c83 0 126 26 148 30c17 3 21 -7 21 -54c30 32 78 53 119 54c123 4 242 -78 227 -243c-15 -204 -165 -260 -259 -283l-87 29v-255c0 -17 0 -23 8 -24l61 -8v-15h-231v15l61 8c8 1 8 7 8 24v603c0 23 0 98 -15 98zM204 45l55 -17c79 24 180 95 180 252
c0 165 -63 209 -124 213c-41 3 -111 -32 -111 -126v-322z" />
    <glyph glyph-name="q" unicode="q" horiz-adv-x="570" 
d="M498 463l-12 1c-15 1 -15 -75 -15 -98v-603c0 -17 0 -23 8 -24l61 -8v-15h-231v15l61 8c8 1 8 7 8 24v281c-31 -30 -79 -51 -119 -55c-118 -12 -243 79 -228 244c15 205 166 259 260 283l87 -31c0 25 5 32 16 32c19 -1 55 -31 104 -31v-23zM378 123v339l-87 30
c-70 -23 -150 -110 -150 -267c0 -165 64 -203 126 -203c40 0 111 31 111 101z" />
    <glyph glyph-name="r" unicode="r" horiz-adv-x="426" 
d="M30 460v23c84 0 126 25 148 30c19 4 21 -8 21 -72c37 54 80 73 118 72c58 -1 102 -51 86 -97c-13 -35 -44 -48 -70 -43c-21 4 -38 20 -38 48c0 49 38 44 38 60c0 7 -38 16 -73 -9c-31 -22 -61 -70 -61 -168v-257c0 -17 0 -23 8 -24l61 -8v-15h-231v15l61 8c8 1 8 7 8 24
v316c0 23 0 99 -15 99z" />
    <glyph glyph-name="s" unicode="s" horiz-adv-x="408" 
d="M54 0h-16s3 6 3 37c0 32 -11 114 -11 114h16c0 -104 100 -146 168 -146c66 0 91 36 90 86c-1 43 -41 65 -90 87c-77 35 -176 71 -176 190c0 132 115 149 149 149c43 0 74 -15 92 -22c21 -8 33 5 33 5h15s-2 -11 -2 -36c0 -30 9 -96 9 -96h-16c0 12 -2 128 -127 127
c-72 0 -100 -38 -94 -95c6 -55 114 -94 143 -108c75 -36 124 -72 132 -153c13 -128 -82 -161 -161 -161c-70 0 -112 42 -134 42c-21 0 -23 -20 -23 -20z" />
    <glyph glyph-name="sacute" unicode="&#x15b;" horiz-adv-x="408" 
d="M215 750h92c10 0 0 -9 0 -9l-167 -171h-17l75 171s4 9 17 9zM54 0h-16s3 6 3 37c0 32 -11 114 -11 114h16c0 -104 100 -146 168 -146c66 0 91 36 90 86c-1 51 -58 72 -118 100c-71 32 -148 72 -148 177c0 132 115 149 149 149c43 0 74 -15 92 -22c21 -8 33 5 33 5h15
s-2 -11 -2 -36c0 -30 9 -96 9 -96h-16c0 12 -2 128 -127 127c-72 0 -100 -38 -94 -95c6 -55 114 -94 143 -108c75 -36 124 -72 132 -153c13 -128 -82 -161 -161 -161c-70 0 -112 42 -134 42c-21 0 -23 -20 -23 -20z" />
    <glyph glyph-name="scaron" unicode="&#x161;" horiz-adv-x="408" 
d="M299 761h22l-111 -170c-6 -10 -11 -16 -14 -17c-8 -4 -14 6 -14 6l-129 181h78l85 -124zM54 0h-16s3 6 3 37c0 32 -11 114 -11 114h16c0 -104 100 -146 168 -146c66 0 91 36 90 86c-1 48 -52 70 -109 96c-74 33 -157 72 -157 181c0 132 115 149 149 149
c43 0 74 -15 92 -22c21 -8 33 5 33 5h15s-2 -11 -2 -36c0 -30 9 -96 9 -96h-16c0 12 -2 128 -127 127c-72 0 -100 -38 -94 -95c6 -55 114 -94 143 -108c75 -36 124 -72 132 -153c13 -128 -82 -161 -161 -161c-70 0 -112 42 -134 42c-21 0 -23 -20 -23 -20z" />
    <glyph glyph-name="scedilla" unicode="&#x15f;" horiz-adv-x="408" 
d="M312 500h15s-2 -11 -2 -36c0 -30 9 -96 9 -96h-16c0 12 -2 128 -127 127c-72 0 -100 -38 -94 -95c6 -55 114 -94 143 -108c75 -36 124 -72 132 -153c13 -125 -78 -160 -156 -161l-13 -35c79 0 120 -59 116 -110c-3 -40 -33 -76 -92 -76c-63 0 -101 40 -109 47l8 7
c23 -14 47 -30 77 -30c45 0 68 23 71 51c5 42 -33 95 -101 95l15 53c-57 7 -92 40 -111 40c-21 0 -23 -20 -23 -20h-16s3 6 3 37c0 32 -11 114 -11 114h16c0 -104 100 -146 168 -146c66 0 91 36 90 86c-1 44 -44 66 -95 89c-77 35 -171 72 -171 188c0 132 115 149 149 149
c43 0 74 -15 92 -22c21 -8 33 5 33 5z" />
    <glyph glyph-name="scircumflex" unicode="&#x15d;" horiz-adv-x="408" 
d="M93 579h-22l111 170c6 10 11 16 14 17c8 4 14 -6 14 -6l129 -181h-78l-85 124zM54 0h-16s3 6 3 37c0 32 -11 114 -11 114h16c0 -104 100 -146 168 -146c66 0 91 36 90 86c-1 48 -52 70 -109 95c-73 33 -157 73 -157 182c0 132 115 149 149 149c43 0 74 -15 92 -22
c21 -8 33 5 33 5h15s-2 -11 -2 -36c0 -30 9 -96 9 -96h-16c0 12 -2 128 -127 127c-72 0 -100 -38 -94 -95c6 -55 114 -94 143 -108c75 -36 124 -72 132 -153c13 -128 -82 -161 -161 -161c-70 0 -112 42 -134 42c-21 0 -23 -20 -23 -20z" />
    <glyph glyph-name="germandbls" unicode="&#xdf;" horiz-adv-x="605" 
d="M104 47v453c0 158 53 315 223 315c112 0 202 -66 202 -163c0 -100 -93 -161 -184 -176c130 -10 220 -82 220 -240c0 -143 -85 -251 -204 -251c-63 0 -134 54 -113 117c7 22 28 33 46 33s34 -10 34 -32c0 -16 -7 -30 -26 -41c-12 -7 -21 -11 -21 -19c2 -25 36 -43 76 -43
c71 0 103 132 103 232c0 161 -49 236 -181 236l9 18c98 1 145 60 145 179c0 86 -32 135 -99 135c-112 0 -137 -131 -137 -269v-531h-162v15l61 8c8 1 8 7 8 24z" />
    <glyph glyph-name="t" unicode="t" horiz-adv-x="360" 
d="M200 483v-355c0 -37 10 -111 61 -111c46 0 80 37 85 45l14 -10c-14 -20 -77 -72 -152 -72c-94 0 -104 55 -104 143v360h-69v17s57 -3 97 22c39 24 50 106 50 106h18v-128h107v-17h-107z" />
    <glyph glyph-name="u" unicode="u" horiz-adv-x="588" 
d="M491 478v-339c1 -37 3 -95 18 -95l59 2v-20c-115 0 -152 -42 -161 -42c-10 0 -12 9 -12 45l-156 -45c-69 5 -142 18 -142 183v183c0 25 0 115 -16 115c-29 0 -53 -2 -61 -3v22c88 0 133 34 154 35c12 0 16 -10 16 -41v-282c0 -129 25 -175 94 -175c101 0 114 91 114 122
v207c0 25 0 115 -16 115c-28 0 -52 -2 -60 -3v22c79 0 124 29 147 34c16 4 22 -4 22 -40z" />
    <glyph glyph-name="uacute" unicode="&#xfa;" horiz-adv-x="588" 
d="M343 750h92c10 0 0 -9 0 -9l-167 -171h-17l75 171s4 9 17 9zM491 478v-339c1 -37 3 -95 18 -95l59 2v-20c-115 0 -152 -42 -161 -42c-10 0 -12 9 -12 45l-156 -45c-69 5 -142 18 -142 183v183c0 25 0 115 -16 115c-29 0 -53 -2 -61 -3v22c90 0 135 36 156 35
c10 -1 14 -11 14 -41v-282c0 -129 25 -175 94 -175c101 0 114 91 114 122v207c0 25 0 115 -16 115c-28 0 -52 -2 -60 -3v22c89 0 135 37 155 35c10 -1 14 -11 14 -41z" />
    <glyph glyph-name="ubreve" unicode="&#x16d;" horiz-adv-x="588" 
d="M402 736h22l-18 -27c-31 -45 -75 -67 -120 -65c-38 1 -75 21 -104 58l-26 34h78l7 -10c14 -21 33 -35 53 -41c36 -10 76 3 102 42zM491 478v-339c1 -37 3 -95 18 -95l59 2v-20c-115 0 -152 -42 -161 -42c-10 0 -12 9 -12 45l-156 -45c-69 5 -142 18 -142 183v183
c0 25 0 115 -16 115c-29 0 -53 -2 -61 -3v22c90 0 135 36 156 35c10 -1 14 -11 14 -41v-282c0 -129 25 -175 94 -175c101 0 114 91 114 122v207c0 25 0 115 -16 115c-28 0 -52 -2 -60 -3v22c86 0 131 34 152 35c12 1 17 -9 17 -41z" />
    <glyph glyph-name="ucaron" unicode="&#x1d4;" horiz-adv-x="588" 
d="M395 761h22l-111 -170c-6 -10 -11 -16 -14 -17c-8 -4 -14 6 -14 6l-129 181h78l85 -124zM491 478v-339c1 -37 3 -95 18 -95l59 2v-20c-115 0 -152 -42 -161 -42c-10 0 -12 9 -12 45l-156 -45c-69 5 -142 18 -142 183v183c0 25 0 115 -16 115c-29 0 -53 -2 -61 -3v22
c86 0 131 33 153 35c12 1 17 -9 17 -41v-282c0 -129 25 -175 94 -175c101 0 114 91 114 122v207c0 25 0 115 -16 115c-28 0 -52 -2 -60 -3v22c86 0 131 34 152 35c12 1 17 -9 17 -41z" />
    <glyph glyph-name="ucircumflex" unicode="&#xfb;" horiz-adv-x="588" 
d="M179 579h-22l111 170c6 10 11 16 14 17c8 4 14 -6 14 -6l129 -181h-78l-85 124zM491 478v-339c1 -37 3 -95 18 -95l59 2v-20c-115 0 -152 -42 -161 -42c-10 0 -12 9 -12 45l-156 -45c-69 5 -142 18 -142 183v183c0 25 0 115 -16 115c-29 0 -53 -2 -61 -3v22
c83 0 128 31 151 34c14 3 19 -6 19 -40v-282c0 -129 25 -175 94 -175c101 0 114 91 114 122v207c0 25 0 115 -16 115c-28 0 -52 -2 -60 -3v22c81 0 125 30 148 35c15 3 21 -6 21 -41z" />
    <glyph glyph-name="udieresis" unicode="&#xfc;" horiz-adv-x="588" 
d="M238 699c0 30 -25 56 -55 56s-56 -26 -56 -56s26 -55 56 -55s55 25 55 55zM438 699c0 30 -24 56 -56 56c-30 0 -53 -26 -53 -56s23 -55 53 -55c32 0 56 25 56 55zM491 478v-339c1 -37 3 -95 18 -95l59 2v-20c-115 0 -152 -42 -161 -42c-10 0 -12 9 -12 45l-156 -45
c-69 5 -142 18 -142 183v183c0 25 0 115 -16 115c-29 0 -53 -2 -61 -3v22c88 0 133 34 154 35c12 0 16 -10 16 -41v-282c0 -129 25 -175 94 -175c101 0 114 91 114 122v207c0 25 0 115 -16 115c-28 0 -52 -2 -60 -3v22c90 0 135 37 155 35c10 -1 14 -12 14 -41z" />
    <glyph glyph-name="ugrave" unicode="&#xf9;" horiz-adv-x="588" 
d="M311 570l-167 171s-10 9 0 9h92c13 0 17 -9 17 -9l75 -171h-17zM491 478v-339c1 -37 3 -95 18 -95l59 2v-20c-115 0 -152 -42 -161 -42c-10 0 -12 9 -12 45l-156 -45c-69 5 -142 18 -142 183v183c0 25 0 115 -16 115c-29 0 -53 -2 -61 -3v22c90 0 135 36 156 35
c10 -1 14 -11 14 -41v-282c0 -129 25 -175 94 -175c101 0 114 91 114 122v207c0 25 0 115 -16 115c-28 0 -52 -2 -60 -3v22c88 0 133 36 154 35c11 0 15 -10 15 -41z" />
    <glyph glyph-name="uring" unicode="&#x16f;" horiz-adv-x="588" 
d="M362 680c0 37 -30 70 -70 70c-38 0 -66 -33 -66 -70c0 -38 28 -69 66 -69c40 0 70 31 70 69zM338 680c0 -24 -20 -45 -46 -45c-24 0 -43 21 -43 45s19 46 43 46c26 0 46 -22 46 -46zM491 478v-339c1 -37 3 -95 18 -95l59 2v-20c-115 0 -152 -42 -161 -42
c-10 0 -12 9 -12 45l-156 -45c-69 5 -142 18 -142 183v183c0 25 0 115 -16 115c-29 0 -53 -2 -61 -3v22c81 0 126 29 149 34c15 3 21 -4 21 -40v-282c0 -129 25 -175 94 -175c101 0 114 91 114 122v207c0 25 0 115 -16 115c-28 0 -52 -2 -60 -3v22c79 0 124 29 147 34
c16 4 22 -4 22 -40z" />
    <glyph glyph-name="utilde" unicode="&#x169;" horiz-adv-x="588" 
d="M131 642l47 70c32 50 60 42 114 23c39 -13 115 -43 139 -15c13 15 22 29 22 29l9 -7l-46 -67c-36 -52 -71 -44 -124 -24c-23 8 -104 50 -130 15c-14 -19 -21 -31 -21 -31zM491 478v-339c1 -37 3 -95 18 -95l59 2v-20c-115 0 -152 -42 -161 -42c-10 0 -12 9 -12 45
l-156 -45c-69 5 -142 18 -142 183v183c0 25 0 115 -16 115c-29 0 -53 -2 -61 -3v22c90 0 135 36 156 35c10 -1 14 -11 14 -41v-282c0 -129 25 -175 94 -175c101 0 114 91 114 122v207c0 25 0 115 -16 115c-28 0 -52 -2 -60 -3v22c90 0 135 37 155 35c10 -1 14 -12 14 -41z
" />
    <glyph glyph-name="v" unicode="v" horiz-adv-x="541" 
d="M341 500h180v-15l-61 -8c-15 -2 -20 -15 -23 -23l-145 -453c-3 -7 -37 -6 -39 0l-153 452c-7 22 -13 23 -19 24l-61 8v15h231v-15l-61 -8c-6 -1 -9 -5 -5 -14l117 -345l110 342c3 12 -3 16 -10 17l-61 8v15z" />
    <glyph glyph-name="w" unicode="w" horiz-adv-x="772" 
d="M572 500h180v-15l-61 -8c-15 -2 -20 -15 -22 -23l-146 -453c-3 -7 -37 -6 -39 0l-97 299l-95 -299c-3 -7 -37 -6 -39 0l-153 452c-7 22 -13 23 -19 24l-61 8v15h462v-15l-61 -8c-6 -1 -9 -5 -5 -14l117 -345l110 342c3 12 -3 16 -10 17l-61 8v15zM302 118l70 217l-40 118
c-8 22 -10 32 -20 32h-122c-11 0 -9 -13 -5 -22z" />
    <glyph glyph-name="x" unicode="x" horiz-adv-x="555" 
d="M474 23l61 -8v-15h-247v15l61 8c8 1 17 9 8 24l-98 163l-118 -163c-10 -13 0 -23 8 -24l61 -8v-15h-190v15l61 8c8 1 18 11 27 24l136 188l-131 218c-10 17 -14 23 -22 24l-61 8v15h245v-15l-61 -8c-8 -1 -18 -7 -8 -24l93 -155l113 155c10 13 0 23 -8 24l-61 8v15h189
v-15l-61 -8c-8 -1 -16 -11 -26 -24l-130 -181l135 -225c9 -15 16 -23 24 -24z" />
    <glyph glyph-name="y" unicode="y" horiz-adv-x="541" 
d="M341 500h180v-15l-61 -8c-15 -2 -20 -15 -23 -23l-216 -673c-16 -53 -55 -70 -91 -65c-40 6 -75 41 -67 88c3 17 15 41 50 41c33 0 53 -33 45 -66c-5 -21 -25 -32 -46 -32c26 -17 69 -13 83 37l64 198l-159 471c-7 22 -13 23 -19 24l-61 8v15h231v-15l-61 -8
c-6 -1 -9 -5 -5 -14l117 -345l110 342c3 12 -3 16 -10 17l-61 8v15z" />
    <glyph glyph-name="yacute" unicode="&#xfd;" horiz-adv-x="541" 
d="M343 750h92c10 0 0 -9 0 -9l-167 -171h-17l75 171s4 9 17 9zM341 500h180v-15l-61 -8c-15 -2 -20 -15 -23 -23l-216 -673c-15 -51 -53 -69 -88 -66c-41 5 -79 40 -70 89c3 17 15 41 50 41c33 0 53 -33 45 -66c-5 -21 -25 -32 -46 -32c26 -17 69 -13 83 37l64 198
l-159 471c-7 22 -13 23 -19 24l-61 8v15h231v-15l-61 -8c-6 -1 -9 -5 -5 -14l117 -345l110 342c3 12 -3 16 -10 17l-61 8v15z" />
    <glyph glyph-name="ycircumflex" unicode="&#x177;" horiz-adv-x="541" 
d="M181 579h-22l111 170c6 10 11 16 14 17c8 4 14 -6 14 -6l129 -181h-78l-85 124zM341 500h180v-15l-61 -8c-15 -2 -20 -15 -23 -23l-216 -673c-17 -54 -58 -72 -95 -65c-38 8 -71 42 -63 88c3 17 15 41 50 41c33 0 53 -33 45 -66c-5 -21 -25 -32 -46 -32
c26 -17 69 -13 83 37l64 198l-159 471c-7 22 -13 23 -19 24l-61 8v15h231v-15l-61 -8c-6 -1 -9 -5 -5 -14l117 -345l110 342c3 12 -3 16 -10 17l-61 8v15z" />
    <glyph glyph-name="ydieresis" unicode="&#xff;" horiz-adv-x="541" 
d="M233 699c0 30 -25 56 -55 56s-56 -26 -56 -56s26 -55 56 -55s55 25 55 55zM433 699c0 30 -24 56 -56 56c-30 0 -53 -26 -53 -56s23 -55 53 -55c32 0 56 25 56 55zM341 500h180v-15l-61 -8c-15 -2 -20 -15 -23 -23l-216 -673c-15 -51 -53 -69 -88 -66c-41 5 -79 41 -70 89
c3 17 15 41 50 41c33 0 53 -33 45 -66c-5 -21 -25 -32 -46 -32c26 -17 69 -13 83 37l64 198l-159 471c-7 22 -13 23 -19 24l-61 8v15h231v-15l-61 -8c-6 -1 -9 -5 -5 -14l117 -345l110 342c3 12 -3 16 -10 17l-61 8v15z" />
    <glyph glyph-name="ygrave" unicode="&#x1ef3;" horiz-adv-x="541" 
d="M301 570l-167 171s-10 9 0 9h92c13 0 17 -9 17 -9l75 -171h-17zM341 500h180v-15l-61 -8c-15 -2 -20 -15 -23 -23l-216 -673c-16 -52 -55 -70 -91 -65c-40 5 -76 41 -67 88c3 17 15 41 50 41c33 0 53 -33 45 -66c-5 -21 -25 -32 -46 -32c26 -17 69 -13 83 37l64 198
l-159 471c-7 22 -13 23 -19 24l-61 8v15h231v-15l-61 -8c-6 -1 -9 -5 -5 -14l117 -345l110 342c3 12 -3 16 -10 17l-61 8v15z" />
    <glyph glyph-name="ytilde" unicode="&#x1ef9;" horiz-adv-x="541" 
d="M114 642l47 70c32 50 60 42 114 23c39 -13 115 -43 139 -15c13 15 22 29 22 29l9 -7l-46 -67c-36 -52 -71 -44 -124 -24c-23 8 -104 50 -130 15c-14 -19 -21 -31 -21 -31zM341 500h180v-15l-61 -8c-15 -2 -20 -15 -23 -23l-216 -673c-16 -54 -58 -71 -94 -65
c-39 8 -72 42 -64 88c3 17 15 41 50 41c33 0 53 -33 45 -66c-5 -21 -25 -32 -46 -32c26 -17 69 -13 83 37l64 198l-159 471c-7 22 -13 23 -19 24l-61 8v15h231v-15l-61 -8c-6 -1 -9 -5 -5 -14l117 -345l110 342c3 12 -3 16 -10 17l-61 8v15z" />
    <glyph glyph-name="z" unicode="z" horiz-adv-x="457" 
d="M410 151h12s-10 -75 -10 -106c0 -19 1 -35 2 -45h-384v17l276 466h-98c-113 -1 -127 -103 -127 -115h-14s9 65 9 95c0 23 -2 48 -2 48h14l13 -11h306v-17l-276 -466h115c66 0 164 33 164 134z" />
    <glyph glyph-name="zacute" unicode="&#x17a;" horiz-adv-x="457" 
d="M293 750h92c10 0 0 -9 0 -9l-167 -171h-17l75 171s4 9 17 9zM410 151h12s-10 -75 -10 -106c0 -19 1 -35 2 -45h-384v17l276 466h-98c-113 -1 -127 -103 -127 -115h-14s9 65 9 95c0 23 -2 48 -2 48h14l13 -11h306v-17l-276 -466h115c66 0 164 33 164 134z" />
    <glyph glyph-name="zcaron" unicode="&#x17e;" horiz-adv-x="457" 
d="M343 761h22l-111 -170c-6 -10 -11 -16 -14 -17c-8 -4 -14 6 -14 6l-129 181h78l85 -124zM410 151h12s-10 -75 -10 -106c0 -19 1 -35 2 -45h-384v17l276 466h-98c-113 -1 -127 -103 -127 -115h-14s9 65 9 95c0 23 -2 48 -2 48h14l13 -11h306v-17l-276 -466h115
c66 0 164 33 164 134z" />
    <glyph glyph-name="zcircumflex" unicode="&#x1e91;" horiz-adv-x="457" 
d="M140 579h-22l111 170c6 10 11 16 14 17c8 4 14 -6 14 -6l129 -181h-78l-85 124zM410 151h12s-10 -75 -10 -106c0 -19 1 -35 2 -45h-384v17l276 466h-98c-113 -1 -127 -103 -127 -115h-14s9 65 9 95c0 23 -2 48 -2 48h14l13 -11h306v-17l-276 -466h115
c66 0 164 33 164 134z" />
    <glyph glyph-name="a.alt1" horiz-adv-x="463" 
d="M380 376v-253c0 -38 -3 -78 19 -80c54 -6 139 3 190 21c98 34 131 108 131 177c0 60 -48 125 -101 129c-24 2 -60 1 -84 -44c10 6 21 10 32 10c28 0 52 -24 52 -52c0 -35 -26 -52 -52 -51c-29 1 -59 20 -62 55c-6 59 45 97 105 97s141 -54 132 -168
c-11 -111 -86 -164 -186 -189c-54 -14 -173 -37 -229 -43c-27 -3 -40 19 -40 46v39c-14 -46 -75 -85 -128 -85c-118 0 -151 124 -86 198c8 9 16 16 16 16l198 62v107c0 46 -5 83 -22 100c-31 31 -87 22 -121 0s-55 -50 -55 -78c0 0 8 18 40 18c23 0 44 -19 44 -48
c0 -30 -22 -45 -45 -47c-25 -1 -52 13 -61 43c-14 47 12 91 47 120c32 25 62 35 106 38c145 10 160 -86 160 -138zM287 138v101l-159 -49c-39 -84 16 -142 61 -150c28 -5 98 0 98 98z" />
    <glyph glyph-name="a.alt2" 
d="M453 23h209c101 0 146 13 173 41c21 25 5 61 30 85c17 16 34 14 45 3c17 -15 23 -48 4 -74c-43 -61 -139 -78 -246 -78h-218c-21 0 -58 0 -123 -15c-27 5 -40 19 -40 46v39c-14 -46 -75 -85 -128 -85c-118 0 -151 124 -86 198c8 9 16 16 16 16l198 62v107
c0 46 -5 83 -22 100c-31 31 -87 22 -121 0s-55 -50 -55 -78c0 0 8 18 40 18c23 0 44 -19 44 -48c0 -35 -30 -51 -58 -46c-21 4 -40 17 -48 42c-14 47 12 91 47 120c32 25 62 35 106 38c145 10 160 -86 160 -138v-253c0 -38 1 -100 73 -100zM287 138v101l-159 -49
c-39 -84 16 -142 61 -150c28 -5 98 0 98 98z" />
    <glyph glyph-name="a.alt3" horiz-adv-x="482" 
d="M380 291l125 39c96 30 135 58 153 93c12 30 -14 59 3 90c12 23 32 24 48 13c17 -12 29 -39 20 -66c-23 -71 -109 -116 -212 -148l-137 -44v-145c0 -38 8 -92 16 -92h60v-15c-68 0 -107 -16 -129 -31c-27 5 -40 19 -40 46v39c-14 -46 -75 -85 -128 -85
c-118 0 -151 124 -86 198c8 9 16 16 16 16l198 62v107c0 46 -5 83 -22 100c-31 31 -87 22 -121 0s-55 -50 -55 -78c0 0 8 18 40 18c23 0 44 -19 44 -48s-21 -45 -44 -46c-25 -2 -53 11 -62 42c-14 47 12 91 47 120c32 25 62 35 106 38c145 10 160 -86 160 -138v-85zM287 138
v101l-159 -49c-39 -84 16 -142 61 -150c28 -5 98 0 98 98z" />
    <glyph glyph-name="aacute.alt1" horiz-adv-x="463" 
d="M257 750h92c10 0 0 -9 0 -9l-167 -171h-17l75 171s4 9 17 9zM380 376v-253c0 -38 -3 -78 19 -80c54 -6 139 3 190 21c98 34 131 108 131 177c0 60 -48 125 -101 129c-24 2 -60 1 -84 -44c10 6 21 10 32 10c28 0 52 -24 52 -52c0 -35 -26 -52 -52 -51c-29 1 -59 20 -62 55
c-6 59 45 97 105 97s141 -54 132 -168c-11 -111 -86 -164 -186 -189c-54 -14 -173 -37 -229 -43c-27 -3 -40 19 -40 46v39c-14 -46 -75 -85 -128 -85c-118 0 -151 124 -86 198c8 9 16 16 16 16l198 62v107c0 46 -5 83 -22 100c-31 31 -87 22 -121 0s-55 -50 -55 -78
c0 0 8 18 40 18c23 0 44 -19 44 -48c0 -30 -22 -45 -45 -47c-25 -1 -52 13 -61 43c-14 47 12 91 47 120c32 25 62 35 106 38c145 10 160 -86 160 -138zM287 138v101l-159 -49c-39 -84 16 -142 61 -150c28 -5 98 0 98 98z" />
    <glyph glyph-name="aacute.alt2" 
d="M257 750h92c10 0 0 -9 0 -9l-167 -171h-17l75 171s4 9 17 9zM453 23h209c101 0 146 13 173 41c21 25 5 61 30 85c19 18 38 13 49 -1c13 -17 17 -46 0 -70c-43 -61 -139 -78 -246 -78h-218c-21 0 -58 0 -123 -15c-27 5 -40 19 -40 46v39c-14 -46 -75 -85 -128 -85
c-118 0 -151 124 -86 198c8 9 16 16 16 16l198 62v107c0 46 -5 83 -22 100c-31 31 -87 22 -121 0s-55 -50 -55 -78c0 0 8 18 40 18c23 0 44 -19 44 -48c0 -33 -27 -49 -54 -46c-22 2 -44 16 -52 42c-14 47 12 91 47 120c32 25 62 35 106 38c145 10 160 -86 160 -138v-253
c0 -38 1 -100 73 -100zM287 138v101l-159 -49c-39 -84 16 -142 61 -150c28 -5 98 0 98 98z" />
    <glyph glyph-name="aacute.alt3" horiz-adv-x="482" 
d="M255 750h92c10 0 0 -9 0 -9l-167 -171h-17l75 171s4 9 17 9zM380 291l125 39c96 30 135 58 153 93c12 30 -14 59 3 90c13 24 34 24 49 12c17 -13 28 -39 19 -65c-23 -71 -109 -116 -212 -148l-137 -44v-145c0 -38 8 -92 16 -92h60v-15c-68 0 -107 -16 -129 -31
c-27 5 -40 19 -40 46v39c-14 -46 -75 -85 -128 -85c-118 0 -151 124 -86 198c8 9 16 16 16 16l198 62v107c0 46 -5 83 -22 100c-31 31 -87 22 -121 0s-55 -50 -55 -78c0 0 8 18 40 18c23 0 44 -19 44 -48c0 -31 -23 -46 -48 -47c-24 0 -49 14 -58 43c-14 47 12 91 47 120
c32 25 62 35 106 38c145 10 160 -86 160 -138v-85zM287 138v101l-159 -49c-39 -84 16 -142 61 -150c28 -5 98 0 98 98z" />
    <glyph glyph-name="abreve.alt1" horiz-adv-x="463" 
d="M337 736h22l-18 -27c-29 -42 -70 -64 -111 -65s-82 18 -113 58l-26 34h78l7 -10c16 -24 38 -38 61 -42c34 -7 70 7 94 43zM380 376v-253c0 -38 -3 -78 19 -80c54 -6 139 3 190 21c98 34 131 108 131 177c0 60 -48 125 -101 129c-24 2 -60 1 -84 -44c10 6 21 10 32 10
c28 0 52 -24 52 -52c0 -35 -26 -52 -52 -51c-29 1 -59 20 -62 55c-6 59 45 97 105 97s141 -54 132 -168c-11 -111 -86 -164 -186 -189c-54 -14 -173 -37 -229 -43c-27 -3 -40 19 -40 46v39c-14 -46 -75 -85 -128 -85c-118 0 -151 124 -86 198c8 9 16 16 16 16l198 62v107
c0 46 -5 83 -22 100c-31 31 -87 22 -121 0s-55 -50 -55 -78c0 0 8 18 40 18c23 0 44 -19 44 -48c0 -30 -22 -45 -45 -47c-25 -1 -52 13 -61 43c-14 47 12 91 47 120c32 25 62 35 106 38c145 10 160 -86 160 -138zM287 138v101l-159 -49c-39 -84 16 -142 61 -150
c28 -5 98 0 98 98z" />
    <glyph glyph-name="abreve.alt2" 
d="M337 736h22l-18 -27c-31 -45 -75 -67 -119 -65c-38 1 -76 20 -105 58l-26 34h78l7 -10c16 -23 37 -37 59 -42c34 -8 72 6 96 43zM453 23h209c101 0 146 13 173 41c21 25 5 61 30 85c17 16 35 14 46 2c16 -16 21 -47 3 -73c-43 -61 -139 -78 -246 -78h-218
c-21 0 -58 0 -123 -15c-27 5 -40 19 -40 46v39c-14 -46 -75 -85 -128 -85c-118 0 -151 124 -86 198c8 9 16 16 16 16l198 62v107c0 46 -5 83 -22 100c-31 31 -87 22 -121 0s-55 -50 -55 -78c0 0 8 18 40 18c23 0 44 -19 44 -48c0 -31 -23 -46 -48 -47c-24 0 -49 14 -58 43
c-14 47 12 91 47 120c32 25 62 35 106 38c145 10 160 -86 160 -138v-253c0 -38 1 -100 73 -100zM287 138v101l-159 -49c-39 -84 16 -142 61 -150c28 -5 98 0 98 98z" />
    <glyph glyph-name="abreve.alt3" horiz-adv-x="482" 
d="M335 736h22l-18 -27c-32 -47 -80 -69 -126 -65c-36 4 -71 23 -98 58l-26 34h78l7 -10c16 -23 37 -37 59 -42c35 -8 72 7 96 43zM380 291l125 39c96 30 135 58 153 93c12 30 -14 59 3 90c26 48 85 -1 68 -53c-23 -71 -109 -116 -212 -148l-137 -44v-145
c0 -38 8 -92 16 -92h60v-15c-68 0 -107 -16 -129 -31c-27 5 -40 19 -40 46v39c-14 -46 -75 -85 -128 -85c-118 0 -151 124 -86 198c8 9 16 16 16 16l198 62v107c0 46 -5 83 -22 100c-31 31 -87 22 -121 0s-55 -50 -55 -78c0 0 8 18 40 18c23 0 44 -19 44 -48
c0 -60 -88 -63 -106 -4c-14 47 12 91 47 120c32 25 62 35 106 38c145 10 160 -86 160 -138v-85zM287 138v101l-159 -49c-39 -84 16 -142 61 -150c28 -5 98 0 98 98z" />
    <glyph glyph-name="acaron.alt1" horiz-adv-x="463" 
d="M349 761h22l-111 -170c-6 -10 -11 -16 -14 -17c-8 -4 -14 6 -14 6l-129 181h78l85 -124zM380 376v-253c0 -38 -3 -78 19 -80c54 -6 139 3 190 21c98 34 131 108 131 177c0 60 -48 125 -101 129c-24 2 -60 1 -84 -44c10 6 21 10 32 10c28 0 52 -24 52 -52
c0 -35 -26 -52 -52 -51c-29 1 -59 20 -62 55c-6 59 45 97 105 97s141 -54 132 -168c-11 -111 -86 -164 -186 -189c-54 -14 -173 -37 -229 -43c-27 -3 -40 19 -40 46v39c-14 -46 -75 -85 -128 -85c-118 0 -151 124 -86 198c8 9 16 16 16 16l198 62v107c0 46 -5 83 -22 100
c-31 31 -87 22 -121 0s-55 -50 -55 -78c0 0 8 18 40 18c23 0 44 -19 44 -48c0 -30 -22 -45 -45 -47c-25 -1 -52 13 -61 43c-14 47 12 91 47 120c32 25 62 35 106 38c145 10 160 -86 160 -138zM287 138v101l-159 -49c-39 -84 16 -142 61 -150c28 -5 98 0 98 98z" />
    <glyph glyph-name="acaron.alt2" 
d="M349 761h22l-111 -170c-6 -10 -11 -16 -14 -17c-8 -4 -14 6 -14 6l-129 181h78l85 -124zM453 23h209c101 0 146 13 173 41c21 25 5 61 30 85c16 15 32 14 44 4c17 -14 24 -48 5 -75c-43 -61 -139 -78 -246 -78h-218c-21 0 -58 0 -123 -15c-27 5 -40 19 -40 46v39
c-14 -46 -75 -85 -128 -85c-118 0 -151 124 -86 198c8 9 16 16 16 16l198 62v107c0 46 -5 83 -22 100c-31 31 -87 22 -121 0s-55 -50 -55 -78c0 0 8 18 40 18c23 0 44 -19 44 -48s-20 -45 -44 -46c-25 -2 -53 11 -62 42c-14 47 12 91 47 120c32 25 62 35 106 38
c145 10 160 -86 160 -138v-253c0 -38 1 -100 73 -100zM287 138v101l-159 -49c-39 -84 16 -142 61 -150c28 -5 98 0 98 98z" />
    <glyph glyph-name="acaron.alt3" horiz-adv-x="482" 
d="M347 761h22l-111 -170c-6 -10 -11 -16 -14 -17c-8 -4 -14 6 -14 6l-129 181h78l85 -124zM380 291l125 39c96 30 135 58 153 93c12 30 -14 59 3 90c10 18 24 22 37 18c22 -6 42 -38 31 -71c-23 -71 -109 -116 -212 -148l-137 -44v-145c0 -38 8 -92 16 -92h60v-15
c-68 0 -107 -16 -129 -31c-27 5 -40 19 -40 46v39c-14 -46 -75 -85 -128 -85c-118 0 -151 124 -86 198c8 9 16 16 16 16l198 62v107c0 46 -5 83 -22 100c-31 31 -87 22 -121 0s-55 -50 -55 -78c0 0 8 18 40 18c23 0 44 -19 44 -48c0 -32 -25 -48 -51 -47
c-23 1 -47 15 -55 43c-14 47 12 91 47 120c32 25 62 35 106 38c145 10 160 -86 160 -138v-85zM287 138v101l-159 -49c-39 -84 16 -142 61 -150c28 -5 98 0 98 98z" />
    <glyph glyph-name="acircumflex.alt1" horiz-adv-x="463" 
d="M135 579h-22l111 170c6 10 11 16 14 17c8 4 14 -6 14 -6l129 -181h-78l-85 124zM380 376v-253c0 -38 -3 -78 19 -80c54 -6 139 3 190 21c98 34 131 108 131 177c0 60 -48 125 -101 129c-24 2 -60 1 -84 -44c10 6 21 10 32 10c28 0 52 -24 52 -52c0 -35 -26 -52 -52 -51
c-29 1 -59 20 -62 55c-6 59 45 97 105 97s141 -54 132 -168c-11 -111 -86 -164 -186 -189c-54 -14 -173 -37 -229 -43c-27 -3 -40 19 -40 46v39c-14 -46 -75 -85 -128 -85c-118 0 -151 124 -86 198c8 9 16 16 16 16l198 62v107c0 46 -5 83 -22 100c-31 31 -87 22 -121 0
s-55 -50 -55 -78c0 0 8 18 40 18c23 0 44 -19 44 -48c0 -30 -22 -45 -45 -47c-25 -1 -52 13 -61 43c-14 47 12 91 47 120c32 25 62 35 106 38c145 10 160 -86 160 -138zM287 138v101l-159 -49c-39 -84 16 -142 61 -150c28 -5 98 0 98 98z" />
    <glyph glyph-name="acircumflex.alt2" 
d="M135 579h-22l111 170c6 10 11 16 14 17c8 4 14 -6 14 -6l129 -181h-78l-85 124zM453 23h209c101 0 146 13 173 41c21 25 5 61 30 85c17 16 35 14 46 2c16 -16 21 -47 3 -73c-43 -61 -139 -78 -246 -78h-218c-21 0 -58 0 -123 -15c-27 5 -40 19 -40 46v39
c-14 -46 -75 -85 -128 -85c-118 0 -151 124 -86 198c8 9 16 16 16 16l198 62v107c0 46 -5 83 -22 100c-31 31 -87 22 -121 0s-55 -50 -55 -78c0 0 8 18 40 18c23 0 44 -19 44 -48c0 -31 -24 -47 -49 -47c-23 1 -48 15 -57 43c-14 47 12 91 47 120c32 25 62 35 106 38
c145 10 160 -86 160 -138v-253c0 -38 1 -100 73 -100zM287 138v101l-159 -49c-39 -84 16 -142 61 -150c28 -5 98 0 98 98z" />
    <glyph glyph-name="acircumflex.alt3" horiz-adv-x="482" 
d="M133 579h-22l111 170c6 10 11 16 14 17c8 4 14 -6 14 -6l129 -181h-78l-85 124zM380 291l125 39c96 30 135 58 153 93c12 30 -14 59 3 90c11 21 29 23 44 15c19 -11 34 -39 24 -68c-23 -71 -109 -116 -212 -148l-137 -44v-145c0 -38 8 -92 16 -92h60v-15
c-68 0 -107 -16 -129 -31c-27 5 -40 19 -40 46v39c-14 -46 -75 -85 -128 -85c-118 0 -151 124 -86 198c8 9 16 16 16 16l198 62v107c0 46 -5 83 -22 100c-31 31 -87 22 -121 0s-55 -50 -55 -78c0 0 8 18 40 18c23 0 44 -19 44 -48c0 -33 -26 -49 -53 -46
c-22 1 -45 15 -53 42c-14 47 12 91 47 120c32 25 62 35 106 38c145 10 160 -86 160 -138v-85zM287 138v101l-159 -49c-39 -84 16 -142 61 -150c28 -5 98 0 98 98z" />
    <glyph glyph-name="adieresis.al1" horiz-adv-x="463" 
d="M178 699c0 30 -25 56 -55 56s-56 -26 -56 -56s26 -55 56 -55s55 25 55 55zM378 699c0 30 -24 56 -56 56c-30 0 -53 -26 -53 -56s23 -55 53 -55c32 0 56 25 56 55zM380 376v-253c0 -38 -3 -78 19 -80c54 -6 139 3 190 21c98 34 131 108 131 177c0 60 -48 125 -101 129
c-24 2 -60 1 -84 -44c10 6 21 10 32 10c28 0 52 -24 52 -52c0 -35 -26 -52 -52 -51c-29 1 -59 20 -62 55c-6 59 45 97 105 97s141 -54 132 -168c-11 -111 -86 -164 -186 -189c-54 -14 -173 -37 -229 -43c-27 -3 -40 19 -40 46v39c-14 -46 -75 -85 -128 -85
c-118 0 -151 124 -86 198c8 9 16 16 16 16l198 62v107c0 46 -5 83 -22 100c-31 31 -87 22 -121 0s-55 -50 -55 -78c0 0 8 18 40 18c23 0 44 -19 44 -48c0 -30 -22 -45 -45 -47c-25 -1 -52 13 -61 43c-14 47 12 91 47 120c32 25 62 35 106 38c145 10 160 -86 160 -138z
M287 138v101l-159 -49c-39 -84 16 -142 61 -150c28 -5 98 0 98 98z" />
    <glyph glyph-name="adieresis.alt2" 
d="M178 699c0 30 -25 56 -55 56s-56 -26 -56 -56s26 -55 56 -55s55 25 55 55zM378 699c0 30 -24 56 -56 56c-30 0 -53 -26 -53 -56s23 -55 53 -55c32 0 56 25 56 55zM453 23h209c101 0 146 13 173 41c21 25 5 61 30 85c16 15 33 14 44 4c17 -15 24 -48 5 -75
c-43 -61 -139 -78 -246 -78h-218c-21 0 -58 0 -123 -15c-27 5 -40 19 -40 46v39c-14 -46 -75 -85 -128 -85c-118 0 -151 124 -86 198c8 9 16 16 16 16l198 62v107c0 46 -5 83 -22 100c-31 31 -87 22 -121 0s-55 -50 -55 -78c0 0 8 18 40 18c23 0 44 -19 44 -48
c0 -33 -26 -49 -53 -46c-22 1 -45 15 -53 42c-14 47 12 91 47 120c32 25 62 35 106 38c145 10 160 -86 160 -138v-253c0 -38 1 -100 73 -100zM287 138v101l-159 -49c-39 -84 16 -142 61 -150c28 -5 98 0 98 98z" />
    <glyph glyph-name="adieresis.alt3" horiz-adv-x="482" 
d="M176 699c0 30 -25 56 -55 56s-56 -26 -56 -56s26 -55 56 -55s55 25 55 55zM376 699c0 30 -24 56 -56 56c-30 0 -53 -26 -53 -56s23 -55 53 -55c32 0 56 25 56 55zM380 291l125 39c96 30 135 58 153 93c12 30 -14 59 3 90c11 21 28 23 43 16c20 -11 35 -39 25 -69
c-23 -71 -109 -116 -212 -148l-137 -44v-145c0 -38 8 -92 16 -92h60v-15c-68 0 -107 -16 -129 -31c-27 5 -40 19 -40 46v39c-14 -46 -75 -85 -128 -85c-118 0 -151 124 -86 198c8 9 16 16 16 16l198 62v107c0 46 -5 83 -22 100c-31 31 -87 22 -121 0s-55 -50 -55 -78
c0 0 8 18 40 18c23 0 44 -19 44 -48c0 -34 -28 -50 -56 -46c-21 3 -42 16 -50 42c-14 47 12 91 47 120c32 25 62 35 106 38c145 10 160 -86 160 -138v-85zM287 138v101l-159 -49c-39 -84 16 -142 61 -150c28 -5 98 0 98 98z" />
    <glyph glyph-name="agrave.alt1" horiz-adv-x="463" 
d="M277 570l-167 171s-10 9 0 9h92c13 0 17 -9 17 -9l75 -171h-17zM380 376v-253c0 -38 -3 -78 19 -80c54 -6 139 3 190 21c98 34 131 108 131 177c0 60 -48 125 -101 129c-24 2 -60 1 -84 -44c10 6 21 10 32 10c28 0 52 -24 52 -52c0 -35 -26 -52 -52 -51
c-29 1 -59 20 -62 55c-6 59 45 97 105 97s141 -54 132 -168c-11 -111 -86 -164 -186 -189c-54 -14 -173 -37 -229 -43c-27 -3 -40 19 -40 46v39c-14 -46 -75 -85 -128 -85c-118 0 -151 124 -86 198c8 9 16 16 16 16l198 62v107c0 46 -5 83 -22 100c-31 31 -87 22 -121 0
s-55 -50 -55 -78c0 0 8 18 40 18c23 0 44 -19 44 -48c0 -30 -22 -45 -45 -47c-25 -1 -52 13 -61 43c-14 47 12 91 47 120c32 25 62 35 106 38c145 10 160 -86 160 -138zM287 138v101l-159 -49c-39 -84 16 -142 61 -150c28 -5 98 0 98 98z" />
    <glyph glyph-name="agrave.alt2" 
d="M277 570l-167 171s-10 9 0 9h92c13 0 17 -9 17 -9l75 -171h-17zM453 23h209c101 0 146 13 173 41c21 25 5 61 30 85c18 17 37 13 48 0c14 -17 18 -47 1 -71c-43 -61 -139 -78 -246 -78h-218c-21 0 -58 0 -123 -15c-27 5 -40 19 -40 46v39c-14 -46 -75 -85 -128 -85
c-118 0 -151 124 -86 198c8 9 16 16 16 16l198 62v107c0 46 -5 83 -22 100c-31 31 -87 22 -121 0s-55 -50 -55 -78c0 0 8 18 40 18c23 0 44 -19 44 -48s-21 -45 -44 -47c-25 -1 -53 13 -62 43c-14 47 12 91 47 120c32 25 62 35 106 38c145 10 160 -86 160 -138v-253
c0 -38 1 -100 73 -100zM287 138v101l-159 -49c-39 -84 16 -142 61 -150c28 -5 98 0 98 98z" />
    <glyph glyph-name="agrave.alt3" horiz-adv-x="482" 
d="M275 570l-167 171s-10 9 0 9h92c13 0 17 -9 17 -9l75 -171h-17zM380 291l125 39c96 30 135 58 153 93c12 30 -14 59 3 90c12 22 30 24 45 14c19 -11 32 -38 23 -67c-23 -71 -109 -116 -212 -148l-137 -44v-145c0 -38 8 -92 16 -92h60v-15c-68 0 -107 -16 -129 -31
c-27 5 -40 19 -40 46v39c-14 -46 -75 -85 -128 -85c-118 0 -151 124 -86 198c8 9 16 16 16 16l198 62v107c0 46 -5 83 -22 100c-31 31 -87 22 -121 0s-55 -50 -55 -78c0 0 8 18 40 18c23 0 44 -19 44 -48c0 -35 -30 -50 -58 -46c-20 3 -40 17 -48 42c-14 47 12 91 47 120
c32 25 62 35 106 38c145 10 160 -86 160 -138v-85zM287 138v101l-159 -49c-39 -84 16 -142 61 -150c28 -5 98 0 98 98z" />
    <glyph glyph-name="aring.alt1" horiz-adv-x="463" 
d="M306 680c0 37 -30 70 -70 70c-38 0 -66 -33 -66 -70c0 -38 28 -69 66 -69c40 0 70 31 70 69zM282 680c0 -24 -20 -45 -46 -45c-24 0 -43 21 -43 45s19 46 43 46c26 0 46 -22 46 -46zM380 376v-253c0 -38 -3 -78 19 -80c54 -6 139 3 190 21c98 34 131 108 131 177
c0 60 -48 125 -101 129c-24 2 -60 1 -84 -44c10 6 21 10 32 10c28 0 52 -24 52 -52c0 -35 -26 -52 -52 -51c-29 1 -59 20 -62 55c-6 59 45 97 105 97s141 -54 132 -168c-11 -111 -86 -164 -186 -189c-54 -14 -173 -37 -229 -43c-27 -3 -40 19 -40 46v39
c-14 -46 -75 -85 -128 -85c-118 0 -151 124 -86 198c8 9 16 16 16 16l198 62v107c0 46 -5 83 -22 100c-31 31 -87 22 -121 0s-55 -50 -55 -78c0 0 8 18 40 18c23 0 44 -19 44 -48c0 -30 -22 -45 -45 -47c-25 -1 -52 13 -61 43c-14 47 12 91 47 120c32 25 62 35 106 38
c145 10 160 -86 160 -138zM287 138v101l-159 -49c-39 -84 16 -142 61 -150c28 -5 98 0 98 98z" />
    <glyph glyph-name="aring.alt2" 
d="M306 680c0 37 -30 70 -70 70c-38 0 -66 -33 -66 -70c0 -38 28 -69 66 -69c40 0 70 31 70 69zM282 680c0 -24 -20 -45 -46 -45c-24 0 -43 21 -43 45s19 46 43 46c26 0 46 -22 46 -46zM453 23h209c101 0 146 13 173 41c21 25 5 61 30 85c17 16 35 14 46 2
c16 -16 21 -47 3 -73c-43 -61 -139 -78 -246 -78h-218c-21 0 -58 0 -123 -15c-27 5 -40 19 -40 46v39c-14 -46 -75 -85 -128 -85c-118 0 -151 124 -86 198c8 9 16 16 16 16l198 62v107c0 46 -5 83 -22 100c-31 31 -87 22 -121 0s-55 -50 -55 -78c0 0 8 18 40 18
c23 0 44 -19 44 -48c0 -31 -24 -47 -49 -47c-23 1 -48 15 -57 43c-14 47 12 91 47 120c32 25 62 35 106 38c145 10 160 -86 160 -138v-253c0 -38 1 -100 73 -100zM287 138v101l-159 -49c-39 -84 16 -142 61 -150c28 -5 98 0 98 98z" />
    <glyph glyph-name="aring.alt3" horiz-adv-x="482" 
d="M304 680c0 37 -30 70 -70 70c-38 0 -66 -33 -66 -70c0 -38 28 -69 66 -69c40 0 70 31 70 69zM280 680c0 -24 -20 -45 -46 -45c-24 0 -43 21 -43 45s19 46 43 46c26 0 46 -22 46 -46zM380 291l125 39c96 30 135 58 153 93c12 30 -14 59 3 90c12 22 31 24 46 14
c18 -12 31 -39 22 -67c-23 -71 -109 -116 -212 -148l-137 -44v-145c0 -38 8 -92 16 -92h60v-15c-68 0 -107 -16 -129 -31c-27 5 -40 19 -40 46v39c-14 -46 -75 -85 -128 -85c-118 0 -151 124 -86 198c8 9 16 16 16 16l198 62v107c0 46 -5 83 -22 100c-31 31 -87 22 -121 0
s-55 -50 -55 -78c0 0 8 18 40 18c23 0 44 -19 44 -48c0 -37 -34 -52 -64 -45c-18 5 -35 19 -42 41c-14 47 12 91 47 120c32 25 62 35 106 38c145 10 160 -86 160 -138v-85zM287 138v101l-159 -49c-39 -84 16 -142 61 -150c28 -5 98 0 98 98z" />
    <glyph glyph-name="atilde.alt1" horiz-adv-x="463" 
d="M67 642l47 70c32 50 60 42 114 23c39 -13 115 -43 139 -15c13 15 22 29 22 29l9 -7l-46 -67c-36 -52 -71 -44 -124 -24c-23 8 -104 50 -130 15c-14 -19 -21 -31 -21 -31zM380 376v-253c0 -38 -3 -78 19 -80c54 -6 139 3 190 21c98 34 131 108 131 177
c0 60 -48 125 -101 129c-24 2 -60 1 -84 -44c10 6 21 10 32 10c28 0 52 -24 52 -52c0 -35 -26 -52 -52 -51c-29 1 -59 20 -62 55c-6 59 45 97 105 97s141 -54 132 -168c-11 -111 -86 -164 -186 -189c-54 -14 -173 -37 -229 -43c-27 -3 -40 19 -40 46v39
c-14 -46 -75 -85 -128 -85c-118 0 -151 124 -86 198c8 9 16 16 16 16l198 62v107c0 46 -5 83 -22 100c-31 31 -87 22 -121 0s-55 -50 -55 -78c0 0 8 18 40 18c23 0 44 -19 44 -48c0 -30 -22 -45 -45 -47c-25 -1 -52 13 -61 43c-14 47 12 91 47 120c32 25 62 35 106 38
c145 10 160 -86 160 -138zM287 138v101l-159 -49c-39 -84 16 -142 61 -150c28 -5 98 0 98 98z" />
    <glyph glyph-name="atilde.alt2" 
d="M67 642l47 70c32 50 60 42 114 23c39 -13 115 -43 139 -15c13 15 22 29 22 29l9 -7l-46 -67c-36 -52 -71 -44 -124 -24c-23 8 -104 50 -130 15c-14 -19 -21 -31 -21 -31zM453 23h209c101 0 146 13 173 41c21 25 5 61 30 85c16 15 33 14 44 4c17 -15 24 -48 5 -75
c-43 -61 -139 -78 -246 -78h-218c-21 0 -58 0 -123 -15c-27 5 -40 19 -40 46v39c-14 -46 -75 -85 -128 -85c-118 0 -151 124 -86 198c8 9 16 16 16 16l198 62v107c0 46 -5 83 -22 100c-31 31 -87 22 -121 0s-55 -50 -55 -78c0 0 8 18 40 18c23 0 44 -19 44 -48
c0 -30 -22 -46 -47 -47c-24 0 -50 14 -59 43c-14 47 12 91 47 120c32 25 62 35 106 38c145 10 160 -86 160 -138v-253c0 -38 1 -100 73 -100zM287 138v101l-159 -49c-39 -84 16 -142 61 -150c28 -5 98 0 98 98z" />
    <glyph glyph-name="atilde.alt3" horiz-adv-x="482" 
d="M65 642l47 70c32 50 60 42 114 23c39 -13 115 -43 139 -15c13 15 22 29 22 29l9 -7l-46 -67c-36 -52 -71 -44 -124 -24c-23 8 -104 50 -130 15c-14 -19 -21 -31 -21 -31zM380 291l125 39c96 30 135 58 153 93c12 30 -14 59 3 90c10 18 24 22 37 18c23 -7 42 -39 31 -71
c-23 -71 -109 -116 -212 -148l-137 -44v-145c0 -38 8 -92 16 -92h60v-15c-68 0 -107 -16 -129 -31c-27 5 -40 19 -40 46v39c-14 -46 -75 -85 -128 -85c-118 0 -151 124 -86 198c8 9 16 16 16 16l198 62v107c0 46 -5 83 -22 100c-31 31 -87 22 -121 0s-55 -50 -55 -78
c0 0 8 18 40 18c23 0 44 -19 44 -48c0 -32 -24 -47 -50 -47c-23 1 -47 15 -56 43c-14 47 12 91 47 120c32 25 62 35 106 38c145 10 160 -86 160 -138v-85zM287 138v101l-159 -49c-39 -84 16 -142 61 -150c28 -5 98 0 98 98z" />
    <glyph glyph-name="b.alt1" horiz-adv-x="564" 
d="M192 458l91 37c92 -22 233 -75 251 -272c15 -160 -105 -250 -220 -237c-53 6 -78 20 -122 54c0 -22 2 -46 -6 -53c-9 -8 -55 11 -123 13v17h23c15 0 15 106 15 137v247c-70 -23 -119 -40 -151 -52c-140 -49 -158 -148 -146 -222c10 -63 69 -123 128 -116
c24 3 59 13 73 55c1 3 2 6 0 4c-10 -12 -24 -19 -40 -19c-22 0 -53 18 -53 55c0 38 30 57 59 55c25 -2 50 -19 56 -54c9 -51 -19 -98 -90 -112c-54 -10 -142 34 -155 151c-13 114 57 181 153 216l166 61v225c0 23 0 100 -15 100l-61 -2v23c84 0 127 29 148 31
c15 2 19 -10 19 -54v-288zM192 433v-295c0 -98 72 -129 114 -129c60 0 122 46 122 206c0 144 -107 220 -176 243z" />
    <glyph glyph-name="b.alt2" horiz-adv-x="572" 
d="M199 458l91 37c92 -22 233 -75 251 -272c15 -160 -105 -250 -220 -237c-53 6 -78 20 -122 54c0 -22 2 -46 -6 -53c-9 -8 -55 11 -123 13v17h23c15 0 15 106 15 137v247l-213 -85c-102 -41 -198 -53 -260 -9c-26 20 -30 54 -19 73c8 13 22 19 42 10c34 -15 30 -54 57 -71
c34 -18 83 -18 177 20l216 87v222c0 23 0 100 -15 100l-61 -2v23c87 0 130 30 150 31c13 0 17 -12 17 -54v-288zM199 433v-295c0 -98 72 -129 114 -129c60 0 122 46 122 206c0 144 -107 220 -176 243z" />
    <glyph glyph-name="c.alt1" horiz-adv-x="494" 
d="M440 136l16 -15c-8 -24 -31 -140 -194 -140c-161 0 -236 128 -232 259c4 130 84 262 232 276c42 4 87 -6 123 -26c48 45 63 79 66 111c0 32 -34 51 -29 86c3 19 15 28 28 29c23 2 53 -21 54 -55c4 -63 -42 -122 -107 -179c38 -27 59 -63 51 -106c-5 -28 -33 -42 -62 -42
c-36 0 -75 20 -75 59c0 26 7 47 53 79c-19 20 -61 34 -110 21c-94 -25 -135 -133 -131 -239c5 -119 68 -238 178 -234c102 3 132 97 139 116zM382 360c36 10 19 76 -7 102c-34 -20 -47 -51 -43 -74c4 -21 22 -36 50 -28z" />
    <glyph glyph-name="ccedilla.alt1" horiz-adv-x="494" 
d="M233 -73l15 54c-148 7 -219 127 -218 251c1 132 81 269 232 284c42 4 87 -6 123 -26c48 45 63 79 66 111c0 32 -34 51 -29 86c4 27 25 34 45 27c18 -7 36 -27 37 -53c4 -63 -42 -122 -107 -179c38 -27 59 -63 51 -106c-5 -25 -27 -39 -53 -41c-39 -5 -84 16 -84 58
c0 26 7 47 53 79c-19 20 -61 34 -110 21c-97 -26 -138 -139 -130 -249c7 -116 70 -228 177 -224c102 3 132 97 139 116l16 -15c-8 -23 -30 -133 -179 -140l-14 -38c83 0 124 -65 115 -118c-6 -37 -36 -68 -91 -68c-63 0 -101 40 -109 47l8 7c23 -14 47 -30 77 -30
c46 0 68 24 71 52c5 42 -33 94 -101 94zM382 360c36 10 19 76 -7 102c-32 -19 -45 -47 -43 -69c2 -24 21 -41 50 -33z" />
    <glyph glyph-name="d.alt1" horiz-adv-x="559" 
d="M464 751v-635c1 -23 1 -67 21 -71c47 -10 151 7 190 21c98 34 131 108 131 177c0 60 -48 125 -101 129c-24 2 -60 1 -84 -44c10 6 21 10 32 10c28 0 52 -24 52 -52c0 -37 -29 -52 -58 -49c-27 2 -53 21 -56 53c-6 59 45 97 105 97s141 -54 132 -168
c-11 -111 -86 -164 -186 -189c-53 -14 -191 -37 -248 -44c-7 -1 -12 -1 -15 1c-8 7 -6 31 -6 53c-44 -34 -69 -48 -122 -54c-115 -13 -235 77 -220 237c18 197 159 250 251 272l91 -37v191c0 23 0 99 -15 99l-61 -2v23c88 0 131 31 151 31c12 0 16 -12 16 -49zM373 433
l-77 32c-69 -23 -159 -106 -159 -250c0 -160 62 -206 122 -206c42 0 114 31 114 129v295z" />
    <glyph glyph-name="d.alt2" horiz-adv-x="574" 
d="M480 30h261c101 0 146 13 173 41c21 25 5 61 30 85c20 19 40 13 51 -4c12 -16 14 -44 -2 -67c-43 -61 -139 -74 -246 -78l-207 -7c-68 -2 -149 -23 -161 -13c-8 7 -6 31 -6 53c-44 -34 -69 -48 -122 -54c-115 -13 -234 77 -220 237c18 207 159 260 251 282l91 -37v181
c0 23 0 99 -15 99l-61 -2v23c88 0 131 31 151 31c12 0 16 -12 16 -49v-635c1 -37 8 -86 16 -86zM373 138v305l-77 32c-69 -23 -159 -106 -159 -260c0 -160 62 -206 122 -206c42 0 114 31 114 129z" />
    <glyph glyph-name="d.alt3" horiz-adv-x="570" 
d="M464 430l164 -66c94 -38 143 -38 177 -20c27 17 23 56 57 71c21 10 37 2 44 -13c9 -20 4 -51 -21 -70c-62 -44 -158 -32 -260 9l-161 64v-289c1 -37 9 -86 16 -86h60v-15c-68 0 -149 -38 -161 -28c-8 7 -6 31 -6 53c-44 -34 -69 -48 -122 -54c-115 -13 -234 77 -220 237
c18 207 159 260 251 282l91 -37v181c0 23 0 99 -15 99l-61 -2v23c86 0 129 30 150 31c13 0 17 -11 17 -49v-321zM373 138v305l-77 32c-69 -23 -159 -106 -159 -260c0 -160 62 -206 122 -206c42 0 114 31 114 129z" />
    <glyph glyph-name="e.alt1" horiz-adv-x="495" 
d="M454 357l31 9c82 28 83 76 73 81c-5 2 -9 0 -17 -5c-7 -4 -14 -6 -22 -6c-24 0 -44 20 -44 44s20 44 44 44c40 0 67 -36 66 -77c-2 -40 -29 -83 -97 -103l-166 -49l-189 -57s0 -24 8 -69c22 -101 76 -147 162 -147c92 0 130 96 138 116l15 -16c-2 -14 -30 -138 -192 -138
c-146 0 -223 113 -233 235c-11 143 68 297 233 297c130 0 180 -104 190 -159zM274 303l90 27c0 6 -2 162 -108 162c-138 0 -125 -231 -125 -231z" />
    <glyph glyph-name="e.alt2" 
d="M441 332l-314 -94s0 -24 8 -69c22 -101 76 -147 162 -147c92 0 130 96 138 116l15 -16c-2 -14 -30 -138 -192 -138c-141 0 -217 105 -231 222l-126 -39c-106 -33 -202 -36 -260 13c-26 23 -26 59 -11 77c9 10 23 14 40 3c33 -17 26 -55 52 -75c32 -21 81 -24 178 5
l125 39c-7 139 72 287 233 287c146 0 192 -131 192 -177c0 -4 -3 -5 -9 -7zM125 261l233 69s0 162 -108 162c-138 0 -125 -231 -125 -231z" />
    <glyph glyph-name="eacute.alt" horiz-adv-x="495" 
d="M260 750h92c10 0 0 -9 0 -9l-167 -171h-17l75 171s4 9 17 9zM454 357l31 9c82 28 83 76 73 81c-5 2 -9 0 -17 -5c-7 -4 -14 -6 -22 -6c-24 0 -44 20 -44 44s20 44 44 44c39 0 65 -34 66 -73c1 -40 -27 -87 -97 -107l-166 -49l-189 -57s0 -24 8 -69
c22 -101 76 -147 162 -147c92 0 130 96 138 116l15 -16c-2 -14 -30 -138 -192 -138c-142 0 -218 106 -231 224c-17 145 62 308 231 308c130 0 180 -104 190 -159zM274 303l90 27c0 6 -2 162 -108 162c-138 0 -125 -231 -125 -231z" />
    <glyph glyph-name="eacute.alt2" 
d="M277 750h92c10 0 0 -9 0 -9l-167 -171h-17l75 171s4 9 17 9zM441 332l-314 -94s0 -24 8 -69c22 -101 76 -147 162 -147c92 0 130 96 138 116l15 -16c-2 -14 -30 -138 -192 -138c-141 0 -217 105 -231 222l-126 -39c-106 -33 -202 -36 -260 13c-23 21 -25 52 -16 70
c8 15 25 22 45 10c33 -17 26 -55 52 -75c32 -21 81 -24 178 5l125 39c-7 139 72 287 233 287c146 0 192 -131 192 -177c0 -4 -3 -5 -9 -7zM125 261l233 69s0 162 -108 162c-138 0 -125 -231 -125 -231z" />
    <glyph glyph-name="ebreve.alt1" horiz-adv-x="495" 
d="M367 736h22l-18 -27c-31 -45 -75 -67 -119 -65c-38 1 -76 20 -105 58l-26 34h78l7 -10c16 -23 37 -37 59 -42c34 -8 72 6 96 43zM454 357l31 9c82 28 83 76 73 81c-5 2 -9 0 -17 -5c-7 -4 -14 -6 -22 -6c-24 0 -44 20 -44 44s20 44 44 44c37 0 63 -31 66 -68
c2 -42 -24 -91 -97 -112l-166 -49l-189 -57s0 -24 8 -69c22 -101 76 -147 162 -147c92 0 130 96 138 116l15 -16c-2 -14 -30 -138 -192 -138c-147 0 -223 114 -233 237c-10 142 69 295 233 295c130 0 180 -104 190 -159zM274 303l90 27c0 6 -2 162 -108 162
c-138 0 -125 -231 -125 -231z" />
    <glyph glyph-name="ebreve.alt2" 
d="M361 736h22l-18 -27c-31 -46 -77 -68 -122 -65c-37 2 -74 21 -102 58l-26 34h78l7 -10c17 -26 41 -40 66 -43c32 -5 66 10 89 44zM441 332l-314 -94s0 -24 8 -69c22 -101 76 -147 162 -147c92 0 130 96 138 116l15 -16c-2 -14 -30 -138 -192 -138
c-141 0 -217 105 -231 222l-126 -39c-106 -33 -202 -36 -260 13c-23 21 -26 53 -15 72c9 14 24 20 44 8c33 -17 26 -55 52 -75c32 -21 81 -24 178 5l125 39c-7 139 72 287 233 287c146 0 192 -131 192 -177c0 -4 -3 -5 -9 -7zM125 261l233 69s0 162 -108 162
c-138 0 -125 -231 -125 -231z" />
    <glyph glyph-name="ecaron.alt1" horiz-adv-x="495" 
d="M359 761h22l-111 -170c-6 -10 -11 -16 -14 -17c-8 -4 -14 6 -14 6l-129 181h78l85 -124zM454 357l31 9c82 28 83 76 73 81c-5 2 -9 0 -17 -5c-7 -4 -14 -6 -22 -6c-24 0 -44 20 -44 44s20 44 44 44c36 0 61 -28 65 -63c6 -43 -20 -95 -96 -117l-166 -49l-189 -57
s0 -24 8 -69c22 -101 76 -147 162 -147c92 0 130 96 138 116l15 -16c-2 -14 -30 -138 -192 -138c-147 0 -223 114 -233 237c-11 142 69 295 233 295c130 0 180 -104 190 -159zM274 303l90 27c0 6 -2 162 -108 162c-138 0 -125 -231 -125 -231z" />
    <glyph glyph-name="ecaron.alt2" 
d="M348 761h22l-111 -170c-6 -10 -11 -16 -14 -17c-8 -4 -14 6 -14 6l-129 181h78l85 -124zM441 332l-314 -94s0 -24 8 -69c22 -101 76 -147 162 -147c92 0 130 96 138 116l15 -16c-2 -14 -30 -138 -192 -138c-141 0 -217 105 -231 222l-126 -39c-106 -33 -202 -36 -260 13
c-23 21 -26 53 -15 72c9 14 24 20 44 8c33 -17 26 -55 52 -75c32 -21 81 -24 178 5l125 39c-7 139 72 287 233 287c146 0 192 -131 192 -177c0 -4 -3 -5 -9 -7zM125 261l233 69s0 162 -108 162c-138 0 -125 -231 -125 -231z" />
    <glyph glyph-name="uni0229.alt1" horiz-adv-x="495" 
d="M454 357l31 9c82 28 83 76 73 81c-5 2 -9 0 -17 -5c-7 -4 -14 -6 -22 -6c-24 0 -44 20 -44 44s20 44 44 44c38 0 64 -32 66 -70c2 -42 -25 -89 -97 -110l-166 -49l-189 -57s0 -24 8 -69c22 -101 76 -147 162 -147c92 0 130 96 138 116l15 -16c-2 -14 -29 -131 -179 -138
l-14 -36c79 0 119 -58 116 -109c-3 -41 -33 -77 -92 -77c-63 0 -101 40 -109 47l8 7c23 -14 47 -30 77 -30c45 0 68 23 71 51c5 42 -33 95 -101 95l15 52c-140 8 -211 124 -218 246c-6 139 73 286 234 286c130 0 180 -104 190 -159zM274 303l90 27c0 6 -2 162 -108 162
c-138 0 -125 -231 -125 -231z" />
    <glyph glyph-name="uni0229.alt2" 
d="M441 332l-314 -94s0 -24 8 -69c22 -101 76 -147 162 -147c92 0 130 96 138 116l15 -16c-2 -14 -28 -130 -177 -138l-14 -36c74 0 114 -52 116 -100c2 -44 -28 -86 -92 -86c-63 0 -101 40 -109 47l8 7c23 -14 47 -30 77 -30c52 0 74 31 71 65c-3 39 -40 81 -101 81l15 52
c-132 7 -203 109 -217 222l-126 -39c-106 -33 -202 -36 -260 13c-24 21 -26 54 -14 72c8 14 24 20 43 8c33 -17 26 -55 52 -75c32 -21 81 -24 178 5l125 39c-7 139 72 287 233 287c146 0 192 -131 192 -177c0 -4 -3 -5 -9 -7zM125 261l233 69s0 162 -108 162
c-138 0 -125 -231 -125 -231z" />
    <glyph glyph-name="ecircumflex.alt1" horiz-adv-x="495" 
d="M148 579h-22l111 170c6 10 11 16 14 17c8 4 14 -6 14 -6l129 -181h-78l-85 124zM454 357l31 9c82 28 83 76 73 81c-5 2 -9 0 -17 -5c-7 -4 -14 -6 -22 -6c-24 0 -44 20 -44 44s20 44 44 44c36 0 62 -30 65 -66c5 -42 -22 -92 -96 -114l-166 -49l-189 -57s0 -24 8 -69
c22 -101 76 -147 162 -147c92 0 130 96 138 116l15 -16c-2 -14 -30 -138 -192 -138c-150 0 -227 120 -233 245c-7 140 72 287 233 287c130 0 180 -104 190 -159zM274 303l90 27c0 6 -2 162 -108 162c-138 0 -125 -231 -125 -231z" />
    <glyph glyph-name="ecircumflex.alt2" 
d="M138 579h-22l111 170c6 10 11 16 14 17c8 4 14 -6 14 -6l129 -181h-78l-85 124zM441 332l-314 -94s0 -24 8 -69c22 -101 76 -147 162 -147c92 0 130 96 138 116l15 -16c-2 -14 -30 -138 -192 -138c-141 0 -217 105 -231 222l-126 -39c-106 -33 -202 -36 -260 13
c-23 21 -25 51 -16 70c8 15 25 22 45 10c33 -17 26 -55 52 -75c32 -21 81 -24 178 5l125 39c-7 139 72 287 233 287c146 0 192 -131 192 -177c0 -4 -3 -5 -9 -7zM125 261l233 69s0 162 -108 162c-138 0 -125 -231 -125 -231z" />
    <glyph glyph-name="edieresis.alt1" horiz-adv-x="495" 
d="M220 699c0 30 -25 56 -55 56s-56 -26 -56 -56s26 -55 56 -55s55 25 55 55zM420 699c0 30 -24 56 -56 56c-30 0 -53 -26 -53 -56s23 -55 53 -55c32 0 56 25 56 55zM454 357l31 9c82 28 83 76 73 81c-5 2 -9 0 -17 -5c-7 -4 -14 -6 -22 -6c-24 0 -44 20 -44 44s20 44 44 44
c37 0 63 -31 66 -67c3 -42 -24 -92 -97 -113l-166 -49l-189 -57s0 -24 8 -69c22 -101 76 -147 162 -147c92 0 130 96 138 116l15 -16c-2 -14 -30 -138 -192 -138c-148 0 -225 117 -233 241c-9 140 70 291 233 291c130 0 180 -104 190 -159zM274 303l90 27
c0 6 -2 162 -108 162c-138 0 -125 -231 -125 -231z" />
    <glyph glyph-name="edieresis.alt2" 
d="M196 699c0 30 -25 56 -55 56s-56 -26 -56 -56s26 -55 56 -55s55 25 55 55zM396 699c0 30 -24 56 -56 56c-30 0 -53 -26 -53 -56s23 -55 53 -55c32 0 56 25 56 55zM441 332l-314 -94s0 -24 8 -69c22 -101 76 -147 162 -147c92 0 130 96 138 116l15 -16
c-2 -14 -30 -138 -192 -138c-141 0 -217 105 -231 222l-126 -39c-106 -33 -202 -36 -260 13c-23 21 -26 53 -15 72c9 14 24 20 44 8c33 -17 26 -55 52 -75c32 -21 81 -24 178 5l125 39c-7 139 72 287 233 287c146 0 192 -131 192 -177c0 -4 -3 -5 -9 -7zM125 261l233 69
s0 162 -108 162c-138 0 -125 -231 -125 -231z" />
    <glyph glyph-name="egrave.alt1" horiz-adv-x="495" 
d="M300 570l-167 171s-10 9 0 9h92c13 0 17 -9 17 -9l75 -171h-17zM454 357l31 9c82 28 83 76 73 81c-5 2 -9 0 -17 -5c-7 -4 -14 -6 -22 -6c-24 0 -44 20 -44 44s20 44 44 44c37 0 63 -31 66 -67c3 -42 -24 -92 -97 -113l-166 -49l-189 -57s0 -24 8 -69
c22 -101 76 -147 162 -147c92 0 130 96 138 116l15 -16c-2 -14 -30 -138 -192 -138c-145 0 -222 112 -232 232c-13 144 66 300 232 300c130 0 180 -104 190 -159zM274 303l90 27c0 6 -2 162 -108 162c-138 0 -125 -231 -125 -231z" />
    <glyph glyph-name="egrave.alt2" 
d="M287 570l-167 171s-10 9 0 9h92c13 0 17 -9 17 -9l75 -171h-17zM441 332l-314 -94s0 -24 8 -69c22 -101 76 -147 162 -147c92 0 130 96 138 116l15 -16c-2 -14 -30 -138 -192 -138c-141 0 -217 105 -231 222l-126 -39c-106 -33 -202 -36 -260 13c-25 22 -26 57 -13 75
c9 12 24 16 42 5c33 -17 26 -55 52 -75c32 -21 81 -24 178 5l125 39c-7 139 72 287 233 287c146 0 192 -131 192 -177c0 -4 -3 -5 -9 -7zM125 261l233 69s0 162 -108 162c-138 0 -125 -231 -125 -231z" />
    <glyph glyph-name="etilde.alt1" horiz-adv-x="495" 
d="M100 642l47 70c32 50 60 42 114 23c39 -13 115 -43 139 -15c13 15 22 29 22 29l9 -7l-46 -67c-36 -52 -71 -44 -124 -24c-23 8 -104 50 -130 15c-14 -19 -21 -31 -21 -31zM454 357l31 9c82 28 83 76 73 81c-5 2 -9 0 -17 -5c-7 -4 -14 -6 -22 -6c-24 0 -44 20 -44 44
s20 44 44 44c36 0 61 -28 65 -63c6 -43 -20 -95 -96 -117l-166 -49l-189 -57s0 -24 8 -69c22 -101 76 -147 162 -147c92 0 130 96 138 116l15 -16c-2 -14 -30 -138 -192 -138c-146 0 -222 112 -232 234c-13 142 67 298 232 298c130 0 180 -104 190 -159zM274 303l90 27
c0 6 -2 162 -108 162c-138 0 -125 -231 -125 -231z" />
    <glyph glyph-name="etilde.alt2" 
d="M94 642l47 70c32 50 60 42 114 23c39 -13 115 -43 139 -15c13 15 22 29 22 29l9 -7l-46 -67c-36 -52 -71 -44 -124 -24c-23 8 -104 50 -130 15c-14 -19 -21 -31 -21 -31zM441 332l-314 -94s0 -24 8 -69c22 -101 76 -147 162 -147c92 0 130 96 138 116l15 -16
c-2 -14 -30 -138 -192 -138c-141 0 -217 105 -231 222l-126 -39c-106 -33 -202 -36 -260 13c-23 21 -26 52 -15 71c8 15 24 21 44 9c33 -17 26 -55 52 -75c32 -21 81 -24 178 5l125 39c-7 139 72 287 233 287c146 0 192 -131 192 -177c0 -4 -3 -5 -9 -7zM125 261l233 69
s0 162 -108 162c-138 0 -125 -231 -125 -231z" />
    <glyph glyph-name="f.alt" horiz-adv-x="310" 
d="M-77 500h184c0 62 -1 154 53 224c38 57 87 77 132 76c66 -2 122 -51 123 -96c0 -27 -22 -50 -50 -50s-50 23 -50 50c0 18 9 34 23 42c8 6 16 12 7 18c-4 3 -43 26 -80 2c-34 -23 -65 -84 -65 -235v-31h107v-23h-107v-430c0 -17 0 -23 8 -24l61 -8v-15h-231v15l61 8
c8 1 8 7 8 24v430h-190c-107 0 -203 17 -246 78c-19 27 -12 60 5 75c11 10 28 11 44 -4c25 -24 9 -60 30 -85c27 -28 72 -41 173 -41z" />
    <glyph glyph-name="g.alt" horiz-adv-x="519" 
d="M461 -21h105c101 0 146 13 173 41c23 23 5 61 30 85c16 15 32 14 44 4c17 -14 24 -48 5 -75c-43 -61 -139 -78 -246 -78h-108c4 -65 -20 -185 -215 -228c-170 -38 -282 36 -268 113c9 48 59 93 177 118c60 13 136 20 233 20c-43 45 -140 40 -270 13c-39 -8 -18 -10 -36 1
c-135 82 -27 176 40 209l-11 11c-39 35 -56 84 -54 132c3 86 69 171 177 171c59 0 112 -29 145 -74c44 -63 97 -52 97 -41c0 10 -32 21 -32 49c0 29 20 42 41 42c20 0 42 -13 48 -36c8 -31 -11 -62 -40 -75c-25 -11 -57 -10 -89 13c29 -100 -34 -230 -170 -230
c-36 0 -71 12 -100 29c-31 -14 -114 -94 -8 -135c197 32 277 48 327 -61c1 -3 3 -9 5 -18zM237 500c-44 0 -88 -53 -88 -159c0 -108 43 -162 87 -162s88 54 88 162c0 106 -43 159 -87 159zM231 -59c-102 -24 -142 -58 -145 -91c-5 -53 82 -103 155 -97
c181 16 187 155 166 203c-78 0 -107 1 -176 -15z" />
    <glyph glyph-name="h.alt" horiz-adv-x="584" 
d="M504 23l61 -8v-15h-231v15l61 8c8 1 8 7 8 24v265c0 119 -26 155 -95 155c-99 0 -107 -90 -107 -112v-308c0 -17 0 -23 8 -24l61 -8v-15h-231v15l61 8c8 1 8 7 8 24v370l-149 -36c-104 -26 -202 -32 -258 18c-24 21 -26 54 -14 72c9 14 25 20 45 8c30 -17 23 -56 49 -75
c33 -21 80 -23 178 0l149 37v208c0 23 0 99 -15 99l-61 -2v23c82 0 128 30 151 31c13 1 18 -8 18 -37v-294l153 46c61 0 142 -38 142 -173v-295c0 -17 0 -23 8 -24z" />
    <glyph glyph-name="i.alt" horiz-adv-x="307" 
d="M35 460v23c117 0 269 50 269 173c0 70 -48 124 -101 128c-24 2 -60 2 -84 -43c10 6 21 10 32 10c28 0 52 -24 52 -52c0 -38 -30 -55 -59 -52c-26 3 -52 21 -55 56c-5 56 46 97 105 97c60 0 144 -54 132 -168c-9 -85 -75 -120 -112 -139c-28 -14 -50 -23 -65 -27
c13 1 31 2 55 2v-421c0 -17 0 -23 8 -24l61 -8v-15h-231v15l61 8c8 1 8 7 8 24v317c0 23 0 98 -15 98z" />
    <glyph glyph-name="j.alt" horiz-adv-x="246" 
d="M-6 460v23c117 0 269 50 269 173c0 70 -48 124 -101 128c-24 2 -60 2 -84 -43c10 6 21 10 32 10c28 0 52 -24 52 -52c0 -35 -25 -52 -52 -52c-29 -1 -59 18 -62 56c-5 56 46 97 105 97c60 0 144 -54 132 -168c-9 -85 -75 -120 -112 -139c-28 -14 -50 -23 -65 -27
c13 1 31 2 55 2v-564c-24 1 -33 -54 -63 -132c-33 -85 -170 -71 -170 13c0 17 16 50 50 49c30 0 44 -27 44 -46c0 0 2 -28 -21 -40c61 -19 67 43 67 223v393c0 23 0 98 -15 98z" />
    <glyph glyph-name="k.alt" horiz-adv-x="613" 
d="M204 763v-475c53 39 163 131 171 191c3 32 -31 52 -24 87c4 22 19 30 34 29c22 -3 47 -27 46 -60c-1 -55 -47 -128 -155 -219c62 -69 230 -288 264 -293l53 -7v-16h-252v16l54 7c38 6 -108 160 -177 236l-14 -14v-198c0 -17 0 -23 8 -24l61 -8v-15h-231v15l61 8
c8 1 8 7 8 24v602c0 23 0 99 -15 99l-61 -2v23c85 0 131 32 153 31c11 0 16 -10 16 -37z" />
    <glyph glyph-name="l.alt" horiz-adv-x="291" 
d="M204 765v-718c0 -23 0 -24 36 -24c120 0 228 65 228 174c0 70 -48 124 -101 128c-24 2 -60 2 -84 -43c10 6 21 10 32 10c28 0 52 -24 52 -52c0 -33 -22 -50 -47 -52c-30 -3 -64 16 -67 56c-5 56 46 97 105 97c60 0 141 -54 132 -168c-9 -89 -75 -127 -112 -146
c-42 -21 -77 -27 -149 -27h-187v15l61 8c8 1 8 7 8 24v603c0 23 0 98 -15 98l-61 -2v23c82 0 128 30 151 32c13 0 18 -8 18 -36z" />
    <glyph glyph-name="m.alt1" horiz-adv-x="836" 
d="M749 342v-295c0 -20 -4 -24 36 -24c120 0 228 65 228 174c0 70 -48 124 -101 128c-24 2 -60 2 -84 -43c10 6 21 10 32 10c28 0 52 -24 52 -52c0 -38 -29 -55 -58 -52c-27 2 -53 21 -56 56c-5 56 46 97 105 97c60 0 141 -54 132 -168c-9 -89 -75 -127 -112 -146
c-42 -21 -77 -27 -149 -27h-187v15l61 8c8 1 8 7 8 24v265c0 119 -16 155 -95 155c-89 0 -87 -90 -87 -112v-308c0 -17 0 -23 8 -24l61 -8v-15h-231v15l61 8c8 1 8 7 8 24v265c0 119 -16 155 -95 155c-89 0 -87 -90 -87 -112v-308c0 -17 0 -23 8 -24l61 -8v-15h-231v15l61 8
c8 1 8 7 8 24v316c0 23 0 99 -15 99l-61 -2v23c74 0 119 26 143 32c19 5 26 -3 26 -46l133 46c38 0 83 -14 112 -57l163 57c61 0 142 -38 142 -173z" />
    <glyph glyph-name="m.alt2" horiz-adv-x="842" 
d="M767 23h93c102 1 148 5 177 30c23 23 10 60 38 82c18 14 34 11 44 0c16 -16 19 -50 -2 -75c-49 -57 -145 -60 -251 -60h-279v15l61 8c8 1 8 7 8 24v265c0 119 -16 155 -95 155c-89 0 -87 -90 -87 -112v-308c0 -17 0 -23 8 -24l61 -8v-15h-231v15l61 8c8 1 8 7 8 24v265
c0 119 -16 155 -95 155c-89 0 -87 -90 -87 -112v-308c0 -17 0 -23 8 -24l61 -8v-15h-231v15l61 8c8 1 8 7 8 24v316c0 23 0 99 -15 99l-61 -2v23c81 0 126 31 149 33c15 1 20 -9 20 -47l133 46c38 0 83 -14 112 -57l163 57c61 0 142 -38 142 -173v-295c0 -16 -1 -24 18 -24z
" />
    <glyph glyph-name="n.alt1" horiz-adv-x="591" 
d="M502 23l36 -5c100 -14 127 39 119 48c-4 4 -8 4 -17 2c-8 -1 -15 1 -23 5c-21 9 -31 37 -21 59c10 21 36 30 58 21c37 -18 46 -62 27 -99c-15 -30 -50 -54 -104 -54h-245v15l61 8c8 1 8 7 8 24v265c0 119 -26 165 -95 165c-99 0 -107 -100 -107 -122v-308
c0 -17 0 -23 8 -24l61 -8v-15h-231v15l61 8c8 1 8 7 8 24v316c0 23 0 99 -15 99l-61 -2v23c76 0 121 27 145 32c18 4 24 -5 24 -46l153 46c61 0 142 -38 142 -173v-295c0 -17 0 -23 8 -24z" />
    <glyph glyph-name="n.alt2" horiz-adv-x="587" 
d="M512 23h93c102 1 148 5 177 30c23 23 10 60 38 82c17 14 33 11 44 0c16 -16 20 -50 -2 -75c-49 -57 -145 -60 -251 -60h-279v15l61 8c8 1 8 7 8 24v265c0 119 -26 165 -95 165c-99 0 -107 -100 -107 -122v-308c0 -17 0 -23 8 -24l61 -8v-15h-231v15l61 8c8 1 8 7 8 24
v316c0 23 0 99 -15 99l-61 -2v23c74 0 119 26 143 32c19 5 26 -3 26 -46l153 46c61 0 142 -38 142 -173v-295c0 -16 -1 -24 18 -24z" />
    <glyph glyph-name="ntilde.alt1" horiz-adv-x="591" 
d="M135 642l47 70c32 50 60 42 114 23c39 -13 115 -43 139 -15c13 15 22 29 22 29l9 -7l-46 -67c-36 -52 -71 -44 -124 -24c-23 8 -104 50 -130 15c-14 -19 -21 -31 -21 -31zM502 23l36 -5c100 -14 127 39 119 48c-4 4 -8 4 -17 2c-8 -1 -15 1 -23 5c-21 9 -31 37 -21 59
c10 21 36 30 58 21c42 -20 48 -74 19 -112c-18 -24 -50 -41 -96 -41h-245v15l61 8c8 1 8 7 8 24v265c0 119 -26 165 -95 165c-99 0 -107 -100 -107 -122v-308c0 -17 0 -23 8 -24l61 -8v-15h-231v15l61 8c8 1 8 7 8 24v316c0 23 0 99 -15 99l-61 -2v23c81 0 126 31 149 33
c15 1 20 -9 20 -47l153 46c61 0 142 -38 142 -173v-295c0 -17 0 -23 8 -24z" />
    <glyph glyph-name="ntilde.alt2" horiz-adv-x="587" 
d="M135 642l47 70c32 50 60 42 114 23c39 -13 115 -43 139 -15c13 15 22 29 22 29l9 -7l-46 -67c-36 -52 -71 -44 -124 -24c-23 8 -104 50 -130 15c-14 -19 -21 -31 -21 -31zM512 23h93c102 1 148 5 177 30c23 23 10 60 38 82c20 16 39 10 49 -6c11 -18 12 -47 -7 -69
c-49 -57 -145 -60 -251 -60h-279v15l61 8c8 1 8 7 8 24v265c0 119 -26 165 -95 165c-99 0 -107 -100 -107 -122v-308c0 -17 0 -23 8 -24l61 -8v-15h-231v15l61 8c8 1 8 7 8 24v316c0 23 0 99 -15 99l-61 -2v23c85 0 130 34 152 33c12 0 17 -12 17 -47l153 46
c61 0 142 -38 142 -173v-295c0 -16 -1 -24 18 -24z" />
    <glyph glyph-name="o.alt1" horiz-adv-x="548" 
d="M125 460l15 -9c34 49 91 70 150 65c69 -6 142 -46 183 -114c32 21 55 50 66 80c22 57 6 115 -25 149c-31 35 -78 46 -117 9c-12 -12 40 15 61 -26c23 -45 -24 -93 -72 -76c-56 21 -38 102 18 128c41 20 89 9 122 -23c40 -39 59 -108 22 -188c-15 -30 -34 -55 -62 -74
c19 -38 32 -84 32 -133c0 -147 -109 -267 -244 -267s-244 120 -244 267c0 87 39 164 95 212zM171 421c42 -33 157 -64 224 -49c-22 75 -64 119 -108 127c-42 7 -85 -18 -116 -78zM411 250c0 36 -3 69 -9 100c-72 -11 -151 -5 -244 39c-13 -39 -21 -87 -21 -139
c0 -140 61 -250 137 -250s137 110 137 250z" />
    <glyph glyph-name="o.alt2" horiz-adv-x="551" 
d="M618 430c10 -28 -7 -58 -35 -73c-24 -13 -56 -15 -88 4c14 -34 22 -73 22 -113c0 -147 -109 -268 -243 -268s-244 121 -244 268c0 149 110 269 244 269c79 0 149 -42 194 -107c43 -54 87 -47 91 -35c2 6 -4 7 -9 10s-22 15 -22 40c0 26 17 41 36 42c21 3 45 -10 54 -37z
M274 0c90 0 135 127 134 254c-1 123 -45 246 -134 246c-90 0 -134 -125 -134 -250s45 -250 134 -250z" />
    <glyph glyph-name="o.alt3" horiz-adv-x="548" 
d="M878 520c18 18 37 13 49 -1c13 -16 17 -46 0 -70c-42 -61 -173 -103 -426 -103c11 -30 17 -63 17 -98c0 -147 -110 -268 -244 -268s-244 121 -244 268c0 149 110 269 244 269c95 0 178 -60 218 -148c250 -2 330 37 357 65c20 25 3 61 29 86zM394 371
c-23 78 -68 129 -120 129c-48 0 -72 -23 -62 -49c12 -32 68 -68 182 -80zM274 0c76 0 137 111 137 251c0 34 -4 67 -10 96c-127 8 -201 40 -223 83c-25 -45 -41 -108 -41 -179c0 -140 61 -251 137 -251z" />
    <glyph glyph-name="oacute.alt2" horiz-adv-x="551" 
d="M295 750h92c10 0 0 -9 0 -9l-167 -171h-17l75 171s4 9 17 9zM618 430c11 -30 -10 -63 -43 -77c-23 -9 -52 -9 -80 8c14 -34 22 -73 22 -113c0 -147 -109 -268 -243 -268s-244 121 -244 268c0 149 110 269 244 269c79 0 149 -42 194 -107c43 -54 87 -47 91 -35
c2 6 -4 7 -9 10s-22 15 -22 40c0 28 19 43 40 43c20 0 41 -13 50 -38zM274 0c90 0 135 127 134 254c-1 123 -45 246 -134 246c-90 0 -134 -125 -134 -250s45 -250 134 -250z" />
    <glyph glyph-name="oacute.alt3" horiz-adv-x="548" 
d="M295 750h92c10 0 0 -9 0 -9l-167 -171h-17l75 171s4 9 17 9zM878 520c17 17 36 14 47 1c15 -16 20 -47 2 -72c-42 -61 -173 -103 -426 -103c11 -30 17 -63 17 -98c0 -147 -110 -268 -244 -268s-244 121 -244 268c0 149 110 269 244 269c95 0 178 -60 218 -148
c250 -2 330 37 357 65c20 25 3 61 29 86zM394 371c-23 78 -68 129 -120 129c-47 0 -70 -21 -63 -47c10 -31 66 -70 183 -82zM274 0c76 0 137 111 137 251c0 34 -4 67 -10 96c-127 8 -201 40 -223 83c-25 -45 -41 -108 -41 -179c0 -140 61 -251 137 -251z" />
    <glyph glyph-name="obreve.alt2" horiz-adv-x="551" 
d="M377 736h22l-18 -27c-28 -41 -66 -62 -106 -65c-42 -3 -86 16 -118 58l-26 34h78l7 -10c18 -27 43 -41 69 -44c32 -3 64 12 86 45zM618 430c11 -30 -10 -63 -42 -76c-23 -10 -52 -10 -81 7c14 -34 22 -73 22 -113c0 -147 -109 -268 -243 -268s-244 121 -244 268
c0 149 110 269 244 269c79 0 149 -42 194 -107c43 -54 87 -47 91 -35c2 6 -4 7 -9 10s-22 15 -22 40c0 24 13 37 30 41c22 6 50 -6 60 -36zM274 0c90 0 135 127 134 254c-1 123 -45 246 -134 246c-90 0 -134 -125 -134 -250s45 -250 134 -250z" />
    <glyph glyph-name="obreve.alt3" horiz-adv-x="548" 
d="M377 736h22l-18 -27c-31 -45 -76 -67 -120 -65c-38 1 -75 21 -104 58l-26 34h78l7 -10c17 -25 41 -40 65 -43c33 -5 67 10 90 44zM878 520c17 16 34 14 46 2c15 -15 21 -47 3 -73c-42 -61 -173 -103 -426 -103c11 -30 17 -63 17 -98c0 -147 -110 -268 -244 -268
s-244 121 -244 268c0 149 110 269 244 269c95 0 178 -60 218 -148c250 -2 330 37 357 65c20 25 3 61 29 86zM394 371c-23 78 -68 129 -120 129c-50 0 -73 -24 -61 -52c14 -31 71 -65 181 -77zM274 0c76 0 137 111 137 251c0 34 -4 67 -10 96c-127 8 -201 40 -223 83
c-25 -45 -41 -108 -41 -179c0 -140 61 -251 137 -251z" />
    <glyph glyph-name="ocaron.alt2" horiz-adv-x="551" 
d="M377 761h22l-111 -170c-6 -10 -11 -16 -14 -17c-8 -4 -14 6 -14 6l-129 181h78l85 -124zM618 430c11 -31 -10 -64 -44 -77c-23 -9 -51 -8 -79 8c14 -34 22 -73 22 -113c0 -147 -109 -268 -243 -268s-244 121 -244 268c0 149 110 269 244 269c79 0 149 -42 194 -107
c43 -54 87 -47 91 -35c2 6 -4 7 -9 10s-22 15 -22 40c0 31 23 46 47 42c18 -2 35 -15 43 -37zM274 0c90 0 135 127 134 254c-1 123 -45 246 -134 246c-90 0 -134 -125 -134 -250s45 -250 134 -250z" />
    <glyph glyph-name="ocaron.alt3" horiz-adv-x="548" 
d="M377 761h22l-111 -170c-6 -10 -11 -16 -14 -17c-8 -4 -14 6 -14 6l-129 181h78l85 -124zM878 520c17 17 35 14 46 2c16 -16 21 -47 3 -73c-42 -61 -173 -103 -426 -103c11 -30 17 -63 17 -98c0 -147 -110 -268 -244 -268s-244 121 -244 268c0 149 110 269 244 269
c95 0 178 -60 218 -148c250 -2 330 37 357 65c20 25 3 61 29 86zM394 371c-23 78 -68 129 -120 129c-45 0 -68 -20 -63 -44c6 -32 63 -72 183 -85zM274 0c76 0 137 111 137 251c0 34 -4 67 -10 96c-127 8 -201 40 -223 83c-25 -45 -41 -108 -41 -179
c0 -140 61 -251 137 -251z" />
    <glyph glyph-name="ocircumflex.alt2" horiz-adv-x="551" 
d="M173 579h-22l111 170c6 10 11 16 14 17c8 4 14 -6 14 -6l129 -181h-78l-85 124zM618 430c11 -32 -13 -67 -49 -79c-22 -7 -48 -5 -74 10c14 -34 22 -73 22 -113c0 -147 -109 -268 -243 -268s-244 121 -244 268c0 149 110 269 244 269c79 0 149 -42 194 -107
c43 -54 87 -47 91 -35c2 6 -4 7 -9 10s-22 15 -22 40c0 28 19 43 40 43c20 0 41 -13 50 -38zM274 0c90 0 135 127 134 254c-1 123 -45 246 -134 246c-90 0 -134 -125 -134 -250s45 -250 134 -250z" />
    <glyph glyph-name="ocircumflex.alt3" horiz-adv-x="548" 
d="M173 579h-22l111 170c6 10 11 16 14 17c8 4 14 -6 14 -6l129 -181h-78l-85 124zM878 520c16 16 33 14 45 3c16 -15 23 -47 4 -74c-42 -61 -173 -103 -426 -103c11 -30 17 -63 17 -98c0 -147 -110 -268 -244 -268s-244 121 -244 268c0 149 110 269 244 269
c95 0 178 -60 218 -148c250 -2 330 37 357 65c20 25 3 61 29 86zM394 371c-23 78 -68 129 -120 129c-49 0 -72 -23 -62 -50c12 -31 69 -67 182 -79zM274 0c76 0 137 111 137 251c0 34 -4 67 -10 96c-127 8 -201 40 -223 83c-25 -45 -41 -108 -41 -179
c0 -140 61 -251 137 -251z" />
    <glyph glyph-name="odieresis.alt2" horiz-adv-x="551" 
d="M234 699c0 30 -25 56 -55 56s-56 -26 -56 -56s26 -55 56 -55s55 25 55 55zM434 699c0 30 -24 56 -56 56c-30 0 -53 -26 -53 -56s23 -55 53 -55c32 0 56 25 56 55zM618 430c11 -31 -10 -64 -44 -77c-23 -9 -51 -8 -79 8c14 -34 22 -73 22 -113c0 -147 -109 -268 -243 -268
s-244 121 -244 268c0 149 110 269 244 269c79 0 149 -42 194 -107c43 -54 87 -47 91 -35c2 6 -4 7 -9 10s-22 15 -22 40c0 27 17 41 37 43c21 1 44 -12 53 -38zM274 0c90 0 135 127 134 254c-1 123 -45 246 -134 246c-90 0 -134 -125 -134 -250s45 -250 134 -250z" />
    <glyph glyph-name="odieresis.alt3" horiz-adv-x="548" 
d="M234 699c0 30 -25 56 -55 56s-56 -26 -56 -56s26 -55 56 -55s55 25 55 55zM434 699c0 30 -24 56 -56 56c-30 0 -53 -26 -53 -56s23 -55 53 -55c32 0 56 25 56 55zM878 520c16 15 32 14 44 4c17 -15 24 -48 5 -75c-42 -61 -173 -103 -426 -103c11 -30 17 -63 17 -98
c0 -147 -110 -268 -244 -268s-244 121 -244 268c0 149 110 269 244 269c95 0 178 -60 218 -148c250 -2 330 37 357 65c20 25 3 61 29 86zM394 371c-23 78 -68 129 -120 129c-48 0 -72 -23 -62 -49c12 -32 68 -68 182 -80zM274 0c76 0 137 111 137 251c0 34 -4 67 -10 96
c-127 8 -201 40 -223 83c-25 -45 -41 -108 -41 -179c0 -140 61 -251 137 -251z" />
    <glyph glyph-name="ograve.alt2" horiz-adv-x="551" 
d="M311 570l-167 171s-10 9 0 9h92c13 0 17 -9 17 -9l75 -171h-17zM618 430c11 -31 -10 -64 -44 -77c-23 -9 -51 -8 -79 8c14 -34 22 -73 22 -113c0 -147 -109 -268 -243 -268s-244 121 -244 268c0 149 110 269 244 269c79 0 149 -42 194 -107c43 -54 87 -47 91 -35
c2 6 -4 7 -9 10s-22 15 -22 40c0 28 18 42 39 43c20 0 42 -12 51 -38zM274 0c90 0 135 127 134 254c-1 123 -45 246 -134 246c-90 0 -134 -125 -134 -250s45 -250 134 -250z" />
    <glyph glyph-name="ograve.alt3" horiz-adv-x="548" 
d="M311 570l-167 171s-10 9 0 9h92c13 0 17 -9 17 -9l75 -171h-17zM878 520c15 15 30 14 42 6c18 -14 27 -49 7 -77c-42 -61 -173 -103 -426 -103c11 -30 17 -63 17 -98c0 -147 -110 -268 -244 -268s-244 121 -244 268c0 149 110 269 244 269c95 0 178 -60 218 -148
c250 -2 330 37 357 65c20 25 3 61 29 86zM394 371c-23 78 -68 129 -120 129s-75 -26 -59 -55c16 -30 73 -63 179 -74zM274 0c76 0 137 111 137 251c0 34 -4 67 -10 96c-127 8 -201 40 -223 83c-25 -45 -41 -108 -41 -179c0 -140 61 -251 137 -251z" />
    <glyph glyph-name="otilde.alt2" horiz-adv-x="551" 
d="M114 642l47 70c32 50 60 42 114 23c39 -13 115 -43 139 -15c13 15 22 29 22 29l9 -7l-46 -67c-36 -52 -71 -44 -124 -24c-23 8 -104 50 -130 15c-14 -19 -21 -31 -21 -31zM618 430c12 -33 -14 -70 -53 -80c-21 -5 -46 -3 -70 11c14 -34 22 -73 22 -113
c0 -147 -109 -268 -243 -268s-244 121 -244 268c0 149 110 269 244 269c79 0 149 -42 194 -107c43 -54 87 -47 91 -35c2 6 -4 7 -9 10s-22 15 -22 40c0 26 17 41 36 42c21 2 45 -10 54 -37zM274 0c90 0 135 127 134 254c-1 123 -45 246 -134 246c-90 0 -134 -125 -134 -250
s45 -250 134 -250z" />
    <glyph glyph-name="otilde.alt3" horiz-adv-x="548" 
d="M114 642l47 70c32 50 60 42 114 23c39 -13 115 -43 139 -15c13 15 22 29 22 29l9 -7l-46 -67c-36 -52 -71 -44 -124 -24c-23 8 -104 50 -130 15c-14 -19 -21 -31 -21 -31zM878 520c14 14 29 14 41 7c19 -13 28 -49 8 -78c-42 -61 -173 -103 -426 -103
c11 -30 17 -63 17 -98c0 -147 -110 -268 -244 -268s-244 121 -244 268c0 149 110 269 244 269c95 0 178 -60 218 -148c250 -2 330 37 357 65c20 25 3 61 29 86zM394 371c-23 78 -68 129 -120 129c-48 0 -71 -22 -62 -49c11 -31 68 -68 182 -80zM274 0c76 0 137 111 137 251
c0 34 -4 67 -10 96c-127 8 -201 40 -223 83c-25 -45 -41 -108 -41 -179c0 -140 61 -251 137 -251z" />
    <glyph glyph-name="p.alt" horiz-adv-x="561" 
d="M16 462v23c92 0 135 33 154 32c12 -1 15 -14 15 -56c30 32 78 53 119 54c123 4 242 -78 227 -243c-15 -204 -165 -260 -259 -283l-87 29v-255c0 -17 0 -23 8 -24l61 -8v-15h-231v15l61 8c8 1 8 7 8 24v286l-160 53c-102 33 -188 80 -209 153c-11 36 14 70 39 71
c11 1 22 -5 30 -20c16 -30 -10 -60 1 -90c17 -35 56 -62 151 -94l148 -49v293c0 23 0 98 -15 98zM185 45l55 -17c79 24 180 95 180 252c0 165 -63 209 -124 213c-41 3 -111 -32 -111 -126v-322z" />
    <glyph glyph-name="q.alt" horiz-adv-x="554" 
d="M477 449l152 -56c96 -35 166 -102 153 -216c-13 -117 -101 -161 -155 -151c-71 14 -99 61 -90 112c6 37 34 55 61 54c28 0 54 -19 54 -55c0 -37 -31 -55 -53 -55c-16 0 -30 7 -40 19c-2 2 -1 -1 0 -4c14 -42 49 -52 73 -55c59 -7 118 53 128 116c12 74 -6 173 -146 222
l-140 49c-3 -23 -3 -51 -3 -63v-603c0 -17 0 -23 8 -24l61 -8v-15h-231v15l61 8c8 1 8 7 8 24v281c-31 -30 -79 -51 -119 -55c-118 -12 -243 79 -228 244c15 205 166 259 260 283l87 -31c0 24 5 32 15 32c19 0 55 -31 105 -31v-23l-12 1c-4 0 -7 -6 -9 -15zM378 123v339
l-87 30c-70 -23 -150 -110 -150 -267c0 -165 64 -203 126 -203c40 0 111 31 111 101z" />
    <glyph glyph-name="r.alt1" horiz-adv-x="431" 
d="M206 477v-36c38 55 82 74 120 72c57 -2 100 -51 84 -97c-9 -24 -29 -44 -56 -44c-38 0 -52 26 -52 49c0 49 38 44 38 60c0 14 -134 32 -134 -177v-257c0 -17 0 -23 8 -24l61 -8v-15h-231v15l61 8c8 1 8 7 8 24v316c0 23 0 99 -15 99l-274 -15c-106 -7 -204 4 -250 63
c-19 24 -16 56 -2 72c11 13 28 17 46 1c27 -22 13 -59 35 -82c29 -27 75 -37 176 -32c213 10 308 45 349 45c22 1 28 -9 28 -37z" />
    <glyph glyph-name="r.alt2" horiz-adv-x="373" 
d="M169 477v-36c44 63 104 90 160 62c48 46 59 76 61 107c0 32 -34 51 -29 86c3 22 17 30 33 29c22 -1 48 -23 49 -55c4 -62 -38 -116 -103 -173c31 -23 43 -44 33 -81c-7 -26 -28 -40 -50 -43c-26 -3 -53 10 -58 39c-4 26 13 52 38 69c0 14 -134 32 -134 -177v-257
c0 -17 0 -23 8 -24l61 -8v-15h-231v15l61 8c8 1 8 7 8 24v316c0 23 0 99 -15 99l-61 -2v23c83 0 129 31 151 32c13 0 18 -9 18 -38zM323 388c27 5 17 57 -9 83c-27 -19 -36 -43 -31 -61c3 -16 18 -26 40 -22z" />
    <glyph glyph-name="s.alt1" horiz-adv-x="395" 
d="M301 500h15s-2 -11 -2 -36c0 -30 9 -96 9 -96h-16c0 12 -2 128 -127 127c-72 0 -100 -38 -94 -95c6 -55 114 -94 143 -108c75 -36 124 -72 132 -153c18 -175 -179 -187 -273 -132c-59 -38 -77 -68 -84 -97c-6 -32 24 -57 13 -90c-8 -23 -26 -28 -43 -21
c-19 8 -37 32 -33 61c7 60 66 110 134 156c-35 25 -56 61 -48 104c7 38 55 49 92 38c25 -8 45 -27 45 -55c0 -26 -7 -47 -53 -79c24 -25 63 -32 98 -24c45 10 84 43 84 91c0 49 -52 71 -110 97c-74 32 -156 72 -156 180c0 132 115 149 149 149c43 0 74 -15 92 -22
c21 -8 33 5 33 5zM93 136c-36 -10 -19 -76 7 -102c39 23 49 59 40 82c-6 17 -23 27 -47 20z" />
    <glyph glyph-name="sacute.alt1" horiz-adv-x="396" 
d="M201 750h92c10 0 0 -9 0 -9l-167 -171h-17l75 171s4 9 17 9zM301 500h15s-2 -11 -2 -36c0 -30 9 -96 9 -96h-16c0 12 -2 128 -127 127c-72 0 -100 -38 -94 -95c6 -55 114 -94 143 -108c75 -36 124 -72 132 -153c18 -175 -179 -187 -273 -132c-59 -38 -77 -68 -84 -97
c-6 -32 24 -57 13 -90c-7 -22 -24 -28 -40 -22c-21 7 -40 32 -36 62c7 60 66 110 134 156c-35 25 -56 61 -48 104c6 33 45 46 79 41c30 -6 58 -25 58 -58c0 -26 -7 -47 -53 -79c29 -31 81 -34 122 -16c34 15 60 44 60 83c0 47 -49 69 -106 95c-74 33 -160 72 -160 182
c0 132 115 149 149 149c43 0 74 -15 92 -22c21 -8 33 5 33 5zM93 136c-36 -10 -19 -76 7 -102c38 22 49 58 41 81c-7 17 -24 28 -48 21z" />
    <glyph glyph-name="scaron.alt1" horiz-adv-x="396" 
d="M285 761h22l-111 -170c-6 -10 -11 -16 -14 -17c-8 -4 -14 6 -14 6l-129 181h78l85 -124zM301 500h15s-2 -11 -2 -36c0 -30 9 -96 9 -96h-16c0 12 -2 128 -127 127c-72 0 -100 -38 -94 -95c6 -55 114 -94 143 -108c75 -36 124 -72 132 -153c18 -175 -179 -187 -273 -132
c-59 -38 -77 -68 -84 -97c-6 -32 24 -57 13 -90c-7 -21 -22 -27 -37 -23c-22 6 -43 32 -39 63c7 60 66 110 134 156c-35 25 -56 61 -48 104c6 32 42 45 75 41c32 -4 62 -24 62 -58c0 -26 -7 -47 -53 -79c29 -30 78 -34 118 -18c36 15 64 45 64 85c0 53 -62 74 -126 104
c-68 31 -140 72 -140 173c0 132 115 149 149 149c43 0 74 -15 92 -22c21 -8 33 5 33 5zM93 136c-36 -10 -19 -76 7 -102c41 24 50 63 39 85c-8 15 -24 23 -46 17z" />
    <glyph glyph-name="scircumflex.alt1" horiz-adv-x="396" 
d="M79 579h-22l111 170c6 10 11 16 14 17c8 4 14 -6 14 -6l129 -181h-78l-85 124zM301 500h15s-2 -11 -2 -36c0 -30 9 -96 9 -96h-16c0 12 -2 128 -127 127c-72 0 -100 -38 -94 -95c6 -55 114 -94 143 -108c75 -36 124 -72 132 -153c11 -108 -59 -154 -137 -160
c-49 -4 -100 7 -136 28c-59 -38 -77 -68 -84 -97c-6 -32 24 -57 13 -90c-7 -22 -24 -27 -39 -22c-21 6 -41 32 -37 62c7 60 66 110 134 156c-35 25 -56 61 -48 104c6 30 36 43 67 42c35 -2 70 -22 70 -59c0 -26 -7 -47 -53 -79c54 -57 182 -19 182 67c0 47 -49 69 -105 94
c-74 33 -161 72 -161 183c0 132 115 149 149 149c43 0 74 -15 92 -22c21 -8 33 5 33 5zM93 136c-36 -10 -19 -76 7 -102c39 23 50 60 40 83c-7 16 -24 26 -47 19z" />
    <glyph glyph-name="t.alt" horiz-adv-x="365" 
d="M351 62l14 -10c-14 -20 -77 -72 -152 -72c-94 0 -104 55 -104 143v360h-69c-36 0 -62 16 -76 37c-20 28 -20 65 4 85c23 19 50 17 67 4c15 -11 21 -32 8 -54c-18 -30 -49 -16 -51 -28c-2 -11 9 -35 91 -24c17 3 37 8 54 19c39 24 50 106 50 106h17v-128h108v-17h-107
v-355c0 -37 10 -111 61 -111c46 0 80 37 85 45z" />
    <glyph glyph-name="u.alt1" horiz-adv-x="594" 
d="M491 478v-386c1 -23 4 -42 19 -45c54 -6 139 3 190 21c98 34 131 108 131 177c0 60 -48 125 -101 129c-24 2 -60 1 -84 -44c10 6 21 10 32 10c28 0 52 -24 52 -52c0 -33 -22 -49 -47 -51c-30 -2 -64 18 -67 55c-6 59 45 97 105 97s141 -54 132 -168
c-11 -111 -86 -164 -186 -189c-54 -14 -204 -42 -260 -48c-10 0 -12 9 -12 45l-156 -45c-69 5 -142 18 -142 183v183c0 25 0 115 -16 115c-29 0 -53 -2 -61 -3v22c81 0 126 29 149 34c16 3 21 -5 21 -40v-282c0 -129 25 -175 94 -175c101 0 114 91 114 122v207
c0 25 0 115 -16 115c-28 0 -52 -2 -60 -3v22c90 0 135 37 155 35c10 -1 14 -12 14 -41z" />
    <glyph glyph-name="u.alt2" horiz-adv-x="596" 
d="M564 23h209c101 0 146 13 173 41c21 25 5 61 30 85c17 16 34 14 45 3c16 -15 23 -48 4 -74c-43 -61 -139 -78 -246 -78h-218c-110 0 -129 -16 -154 -16c-10 0 -12 9 -12 45l-156 -45c-69 5 -142 18 -142 183v183c0 25 0 115 -16 115c-29 0 -53 -2 -61 -3v22
c79 0 123 28 147 34c17 4 23 -3 23 -40v-282c0 -129 25 -175 94 -175c101 0 114 91 114 122v207c0 25 0 115 -16 115c-28 0 -52 -2 -60 -3v22c85 0 130 33 152 35c12 1 17 -8 17 -41v-339c1 -40 1 -116 73 -116z" />
    <glyph glyph-name="uacute.alt1" horiz-adv-x="594" 
d="M343 750h92c10 0 0 -9 0 -9l-167 -171h-17l75 171s4 9 17 9zM491 478v-386c1 -23 4 -42 19 -45c54 -6 139 3 190 21c98 34 131 108 131 177c0 60 -48 125 -101 129c-24 2 -60 1 -84 -44c10 6 21 10 32 10c28 0 52 -24 52 -52c0 -38 -29 -54 -58 -51c-27 3 -53 22 -56 55
c-6 59 45 97 105 97s141 -54 132 -168c-11 -111 -86 -164 -186 -189c-54 -14 -204 -42 -260 -48c-10 0 -12 9 -12 45l-156 -45c-69 5 -142 18 -142 183v183c0 25 0 115 -16 115c-29 0 -53 -2 -61 -3v22c85 0 130 32 152 35c13 1 18 -8 18 -41v-282c0 -129 25 -175 94 -175
c101 0 114 91 114 122v207c0 25 0 115 -16 115c-28 0 -52 -2 -60 -3v22c78 0 122 28 146 34c17 4 23 -3 23 -40z" />
    <glyph glyph-name="uacute.alt2" horiz-adv-x="596" 
d="M343 750h92c10 0 0 -9 0 -9l-167 -171h-17l75 171s4 9 17 9zM564 23h209c101 0 146 13 173 41c21 25 5 61 30 85c19 18 38 13 50 -2c12 -16 16 -45 -1 -69c-43 -61 -139 -78 -246 -78h-218c-110 0 -129 -16 -154 -16c-10 0 -12 9 -12 45l-156 -45c-69 5 -142 18 -142 183
v183c0 25 0 115 -16 115c-29 0 -53 -2 -61 -3v22c88 0 133 34 154 35c12 0 16 -10 16 -41v-282c0 -129 25 -175 94 -175c101 0 114 91 114 122v207c0 25 0 115 -16 115c-28 0 -52 -2 -60 -3v22c83 0 128 32 150 35c14 2 19 -7 19 -41v-339c1 -40 1 -116 73 -116z" />
    <glyph glyph-name="ubreve.alt1" horiz-adv-x="594" 
d="M402 736h22l-18 -27c-32 -47 -79 -69 -126 -65c-36 3 -71 23 -98 58l-26 34h78l7 -10c17 -25 41 -40 65 -43c33 -5 67 10 90 44zM491 478v-386c1 -23 4 -42 19 -45c54 -6 139 3 190 21c98 34 131 108 131 177c0 60 -48 125 -101 129c-24 2 -60 1 -84 -44
c10 6 21 10 32 10c28 0 52 -24 52 -52c0 -33 -22 -49 -47 -51c-30 -2 -64 18 -67 55c-6 59 45 97 105 97s141 -54 132 -168c-11 -111 -86 -164 -186 -189c-54 -14 -204 -42 -260 -48c-10 0 -12 9 -12 45l-156 -45c-69 5 -142 18 -142 183v183c0 25 0 115 -16 115
c-29 0 -53 -2 -61 -3v22c81 0 126 29 149 34c16 3 21 -5 21 -40v-282c0 -129 25 -175 94 -175c101 0 114 91 114 122v207c0 25 0 115 -16 115c-28 0 -52 -2 -60 -3v22c90 0 135 37 155 35c10 -1 14 -12 14 -41z" />
    <glyph glyph-name="ubreve.alt2" horiz-adv-x="596" 
d="M402 736h22l-18 -27c-29 -43 -70 -65 -112 -65c-41 -1 -81 18 -112 58l-26 34h78l7 -10c19 -29 47 -43 75 -44c30 -1 59 14 80 45zM564 23h209c101 0 146 13 173 41c21 25 5 61 30 85c16 15 32 14 44 4c17 -14 24 -48 5 -75c-43 -61 -139 -78 -246 -78h-218
c-110 0 -129 -16 -154 -16c-10 0 -12 9 -12 45l-156 -45c-69 5 -142 18 -142 183v183c0 25 0 115 -16 115c-29 0 -53 -2 -61 -3v22c78 0 123 27 146 33c18 5 24 -2 24 -39v-282c0 -129 25 -175 94 -175c101 0 114 91 114 122v207c0 25 0 115 -16 115c-28 0 -52 -2 -60 -3v22
c78 0 123 28 146 34c17 4 23 -3 23 -40v-339c1 -40 1 -116 73 -116z" />
    <glyph glyph-name="ucaron.alt1" horiz-adv-x="594" 
d="M395 761h22l-111 -170c-6 -10 -11 -16 -14 -17c-8 -4 -14 6 -14 6l-129 181h78l85 -124zM491 478v-386c1 -23 4 -42 19 -45c54 -6 139 3 190 21c98 34 131 108 131 177c0 60 -48 125 -101 129c-24 2 -60 1 -84 -44c10 6 21 10 32 10c28 0 52 -24 52 -52
c0 -30 -18 -46 -39 -50c-32 -6 -71 14 -75 54c-6 59 45 97 105 97s141 -54 132 -168c-11 -111 -86 -164 -186 -189c-54 -14 -204 -42 -260 -48c-10 0 -12 9 -12 45l-156 -45c-69 5 -142 18 -142 183v183c0 25 0 115 -16 115c-29 0 -53 -2 -61 -3v22c88 0 133 34 154 35
c12 0 16 -10 16 -41v-282c0 -129 25 -175 94 -175c101 0 114 91 114 122v207c0 25 0 115 -16 115c-28 0 -52 -2 -60 -3v22c85 0 131 34 152 35c12 1 17 -9 17 -41z" />
    <glyph glyph-name="ucaron.alt2" horiz-adv-x="596" 
d="M395 761h22l-111 -170c-6 -10 -11 -16 -14 -17c-8 -4 -14 6 -14 6l-129 181h78l85 -124zM564 23h209c101 0 146 13 173 41c21 25 5 61 30 85c21 20 42 12 53 -7c10 -17 11 -43 -4 -64c-43 -61 -139 -78 -246 -78h-218c-110 0 -129 -16 -154 -16c-10 0 -12 9 -12 45
l-156 -45c-69 5 -142 18 -142 183v183c0 25 0 115 -16 115c-29 0 -53 -2 -61 -3v22c78 0 122 27 146 33c18 5 24 -1 24 -39v-282c0 -129 25 -175 94 -175c101 0 114 91 114 122v207c0 25 0 115 -16 115c-28 0 -52 -2 -60 -3v22c92 0 138 39 157 35c9 -2 12 -13 12 -41v-339
c1 -40 1 -116 73 -116z" />
    <glyph glyph-name="ucircumflex.alt1" horiz-adv-x="594" 
d="M179 579h-22l111 170c6 10 11 16 14 17c8 4 14 -6 14 -6l129 -181h-78l-85 124zM491 478v-386c1 -23 4 -42 19 -45c54 -6 139 3 190 21c98 34 131 108 131 177c0 60 -48 125 -101 129c-24 2 -60 1 -84 -44c10 6 21 10 32 10c28 0 52 -24 52 -52c0 -39 -31 -55 -61 -50
c-25 4 -50 22 -53 54c-6 59 45 97 105 97s141 -54 132 -168c-11 -111 -86 -164 -186 -189c-54 -14 -204 -42 -260 -48c-10 0 -12 9 -12 45l-156 -45c-69 5 -142 18 -142 183v183c0 25 0 115 -16 115c-29 0 -53 -2 -61 -3v22c93 0 138 38 158 34c9 -1 12 -12 12 -40v-282
c0 -129 25 -175 94 -175c101 0 114 91 114 122v207c0 25 0 115 -16 115c-28 0 -52 -2 -60 -3v22c93 0 138 40 157 35c9 -3 12 -14 12 -41z" />
    <glyph glyph-name="ucircumflex.alt2" horiz-adv-x="596" 
d="M179 579h-22l111 170c6 10 11 16 14 17c8 4 14 -6 14 -6l129 -181h-78l-85 124zM564 23h209c101 0 146 13 173 41c21 25 5 61 30 85c12 11 24 14 34 10c24 -8 37 -49 15 -81c-43 -61 -139 -78 -246 -78h-218c-110 0 -129 -16 -154 -16c-10 0 -12 9 -12 45l-156 -45
c-69 5 -142 18 -142 183v183c0 25 0 115 -16 115c-29 0 -53 -2 -61 -3v22c81 0 126 29 149 34c15 3 21 -4 21 -40v-282c0 -129 25 -175 94 -175c101 0 114 91 114 122v207c0 25 0 115 -16 115c-28 0 -52 -2 -60 -3v22c81 0 126 30 148 35c15 3 21 -6 21 -41v-339
c1 -40 1 -116 73 -116z" />
    <glyph glyph-name="udieresis.alt1" horiz-adv-x="594" 
d="M238 699c0 30 -25 56 -55 56s-56 -26 -56 -56s26 -55 56 -55s55 25 55 55zM438 699c0 30 -24 56 -56 56c-30 0 -53 -26 -53 -56s23 -55 53 -55c32 0 56 25 56 55zM491 478v-386c1 -23 4 -42 19 -45c54 -6 139 3 190 21c98 34 131 108 131 177c0 60 -48 125 -101 129
c-24 2 -60 1 -84 -44c10 6 21 10 32 10c28 0 52 -24 52 -52c0 -41 -34 -56 -65 -49c-24 5 -46 23 -49 53c-6 59 45 97 105 97s141 -54 132 -168c-11 -111 -86 -164 -186 -189c-54 -14 -204 -42 -260 -48c-10 0 -12 9 -12 45l-156 -45c-69 5 -142 18 -142 183v183
c0 25 0 115 -16 115c-29 0 -53 -2 -61 -3v22c80 0 124 28 148 34c16 4 22 -4 22 -40v-282c0 -129 25 -175 94 -175c101 0 114 91 114 122v207c0 25 0 115 -16 115c-28 0 -52 -2 -60 -3v22c90 0 136 38 156 35c9 -1 13 -12 13 -41z" />
    <glyph glyph-name="udieresis.alt2" horiz-adv-x="596" 
d="M238 699c0 30 -25 56 -55 56s-56 -26 -56 -56s26 -55 56 -55s55 25 55 55zM438 699c0 30 -24 56 -56 56c-30 0 -53 -26 -53 -56s23 -55 53 -55c32 0 56 25 56 55zM564 23h209c101 0 146 13 173 41c21 25 5 61 30 85c14 14 29 14 40 7c20 -12 30 -49 9 -78
c-43 -61 -139 -78 -246 -78h-218c-110 0 -129 -16 -154 -16c-10 0 -12 9 -12 45l-156 -45c-69 5 -142 18 -142 183v183c0 25 0 115 -16 115c-29 0 -53 -2 -61 -3v22c84 0 129 32 152 35c13 1 18 -8 18 -41v-282c0 -129 25 -175 94 -175c101 0 114 91 114 122v207
c0 25 0 115 -16 115c-28 0 -52 -2 -60 -3v22c83 0 128 32 151 35c13 2 18 -7 18 -41v-339c1 -40 1 -116 73 -116z" />
    <glyph glyph-name="ugrave.alt1" horiz-adv-x="594" 
d="M311 570l-167 171s-10 9 0 9h92c13 0 17 -9 17 -9l75 -171h-17zM491 478v-386c1 -23 4 -42 19 -45c54 -6 139 3 190 21c98 34 131 108 131 177c0 60 -48 125 -101 129c-24 2 -60 1 -84 -44c10 6 21 10 32 10c28 0 52 -24 52 -52c0 -37 -28 -53 -56 -51
c-27 2 -55 22 -58 55c-6 59 45 97 105 97s141 -54 132 -168c-11 -111 -86 -164 -186 -189c-54 -14 -204 -42 -260 -48c-10 0 -12 9 -12 45l-156 -45c-69 5 -142 18 -142 183v183c0 25 0 115 -16 115c-29 0 -53 -2 -61 -3v22c87 0 133 34 154 35c12 0 16 -10 16 -41v-282
c0 -129 25 -175 94 -175c101 0 114 91 114 122v207c0 25 0 115 -16 115c-28 0 -52 -2 -60 -3v22c82 0 127 31 150 35c14 2 19 -7 19 -41z" />
    <glyph glyph-name="ugrave.alt2" horiz-adv-x="596" 
d="M311 570l-167 171s-10 9 0 9h92c13 0 17 -9 17 -9l75 -171h-17zM564 23h209c101 0 146 13 173 41c21 25 5 61 30 85c16 15 32 14 44 4c17 -15 24 -48 5 -75c-43 -61 -139 -78 -246 -78h-218c-110 0 -129 -16 -154 -16c-10 0 -12 9 -12 45l-156 -45
c-69 5 -142 18 -142 183v183c0 25 0 115 -16 115c-29 0 -53 -2 -61 -3v22c80 0 125 28 148 34c16 4 22 -4 22 -40v-282c0 -129 25 -175 94 -175c101 0 114 91 114 122v207c0 25 0 115 -16 115c-28 0 -52 -2 -60 -3v22c88 0 133 36 154 35c11 0 15 -10 15 -41v-339
c1 -40 1 -116 73 -116z" />
    <glyph glyph-name="uring.alt1" horiz-adv-x="594" 
d="M362 680c0 37 -30 70 -70 70c-38 0 -66 -33 -66 -70c0 -38 28 -69 66 -69c40 0 70 31 70 69zM338 680c0 -24 -20 -45 -46 -45c-24 0 -43 21 -43 45s19 46 43 46c26 0 46 -22 46 -46zM491 478v-386c1 -23 4 -42 19 -45c54 -6 139 3 190 21c98 34 131 108 131 177
c0 60 -48 125 -101 129c-24 2 -60 1 -84 -44c10 6 21 10 32 10c28 0 52 -24 52 -52c0 -32 -21 -49 -46 -51c-30 -2 -65 17 -68 55c-6 59 45 97 105 97s141 -54 132 -168c-11 -111 -86 -164 -186 -189c-54 -14 -204 -42 -260 -48c-10 0 -12 9 -12 45l-156 -45
c-69 5 -142 18 -142 183v183c0 25 0 115 -16 115c-29 0 -53 -2 -61 -3v22c80 0 125 28 148 34c16 4 22 -4 22 -40v-282c0 -129 25 -175 94 -175c101 0 114 91 114 122v207c0 25 0 115 -16 115c-28 0 -52 -2 -60 -3v22c80 0 125 30 148 35c15 3 21 -5 21 -41z" />
    <glyph glyph-name="uring.alt2" horiz-adv-x="596" 
d="M362 680c0 37 -30 70 -70 70c-38 0 -66 -33 -66 -70c0 -38 28 -69 66 -69c40 0 70 31 70 69zM338 680c0 -24 -20 -45 -46 -45c-24 0 -43 21 -43 45s19 46 43 46c26 0 46 -22 46 -46zM564 23h209c101 0 146 13 173 41c21 25 5 61 30 85c16 15 32 14 44 4
c17 -15 24 -48 5 -75c-43 -61 -139 -78 -246 -78h-218c-110 0 -129 -16 -154 -16c-10 0 -12 9 -12 45l-156 -45c-69 5 -142 18 -142 183v183c0 25 0 115 -16 115c-29 0 -53 -2 -61 -3v22c80 0 125 29 148 34c16 4 22 -4 22 -40v-282c0 -129 25 -175 94 -175
c101 0 114 91 114 122v207c0 25 0 115 -16 115c-28 0 -52 -2 -60 -3v22c85 0 130 34 152 35c12 1 17 -9 17 -41v-339c1 -40 1 -116 73 -116z" />
    <glyph glyph-name="utilde.alt1" horiz-adv-x="594" 
d="M131 642l47 70c32 50 60 42 114 23c39 -13 115 -43 139 -15c13 15 22 29 22 29l9 -7l-46 -67c-36 -52 -71 -44 -124 -24c-23 8 -104 50 -130 15c-14 -19 -21 -31 -21 -31zM491 478v-386c1 -23 4 -42 19 -45c54 -6 139 3 190 21c98 34 131 108 131 177
c0 60 -48 125 -101 129c-24 2 -60 1 -84 -44c10 6 21 10 32 10c28 0 52 -24 52 -52c0 -34 -24 -51 -50 -51c-29 0 -61 19 -64 55c-6 59 45 97 105 97s141 -54 132 -168c-11 -111 -86 -164 -186 -189c-54 -14 -204 -42 -260 -48c-10 0 -12 9 -12 45l-156 -45
c-69 5 -142 18 -142 183v183c0 25 0 115 -16 115c-29 0 -53 -2 -61 -3v22c88 0 133 34 154 35c12 0 16 -10 16 -41v-282c0 -129 25 -175 94 -175c101 0 114 91 114 122v207c0 25 0 115 -16 115c-28 0 -52 -2 -60 -3v22c82 0 127 31 150 35c14 2 19 -7 19 -41z" />
    <glyph glyph-name="utilde.alt2" horiz-adv-x="596" 
d="M131 642l47 70c32 50 60 42 114 23c39 -13 115 -43 139 -15c13 15 22 29 22 29l9 -7l-46 -67c-36 -52 -71 -44 -124 -24c-23 8 -104 50 -130 15c-14 -19 -21 -31 -21 -31zM564 23h209c101 0 146 13 173 41c21 25 5 61 30 85c21 20 41 12 52 -6c11 -17 13 -43 -3 -65
c-43 -61 -139 -78 -246 -78h-218c-110 0 -129 -16 -154 -16c-10 0 -12 9 -12 45l-156 -45c-69 5 -142 18 -142 183v183c0 25 0 115 -16 115c-29 0 -53 -2 -61 -3v22c87 0 133 34 154 35c12 0 16 -10 16 -41v-282c0 -129 25 -175 94 -175c101 0 114 91 114 122v207
c0 25 0 115 -16 115c-28 0 -52 -2 -60 -3v22c90 0 135 38 156 35c9 -1 13 -12 13 -41v-339c1 -40 1 -116 73 -116z" />
    <glyph glyph-name="v.alt1" horiz-adv-x="539" 
d="M339 500h180v-15l-61 -8c-15 -2 -20 -15 -23 -23l-145 -453c-3 -7 -37 -6 -39 0l-152 452c-8 22 -14 23 -20 24l-61 8c-86 12 -110 89 -69 123c21 17 45 17 62 7c18 -11 27 -33 13 -57c-18 -30 -49 -16 -51 -28c-2 -11 0 -30 87 -30h189v-15l-61 -8c-5 -1 -9 -5 -5 -14
l117 -345l110 342c3 12 -3 16 -10 17l-61 8v15z" />
    <glyph glyph-name="v.alt2" horiz-adv-x="539" 
d="M341 500h138c87 0 89 19 87 30c-2 12 -33 -2 -51 28c-13 21 -7 41 7 53c16 14 45 17 68 -3c41 -34 17 -111 -69 -123l-61 -8c-15 -2 -20 -15 -23 -23l-145 -453c-3 -7 -37 -6 -39 0l-153 452c-7 22 -13 23 -19 24l-61 8v15h231v-15l-61 -8c-6 -1 -9 -5 -5 -14l117 -345
l110 342c3 12 -3 16 -10 17l-61 8v15z" />
    <glyph glyph-name="w.alt1" horiz-adv-x="770" 
d="M570 500h180v-15l-61 -8c-15 -2 -20 -15 -22 -23l-146 -453c-3 -7 -37 -6 -39 0l-97 299l-95 -299c-3 -7 -37 -6 -39 0l-152 452c-8 22 -14 23 -20 24l-61 8c-86 12 -110 89 -69 123c23 19 51 17 68 3c14 -11 20 -31 7 -53c-18 -30 -49 -16 -51 -28c-2 -11 0 -30 87 -30
h420v-15l-61 -8c-6 -1 -9 -5 -5 -14l117 -345l110 342c3 12 -3 16 -10 17l-61 8v15zM300 118l70 217l-40 118c-8 22 -10 32 -20 32h-122c-11 0 -9 -13 -5 -22z" />
    <glyph glyph-name="w.alt2" horiz-adv-x="770" 
d="M572 500h138c87 0 89 19 87 30c-2 12 -33 -2 -51 28c-13 21 -7 41 6 53c17 14 45 17 69 -3c41 -34 17 -111 -69 -123l-61 -8c-15 -2 -20 -15 -22 -23l-146 -453c-3 -7 -37 -6 -39 0l-97 299l-95 -299c-3 -7 -37 -6 -39 0l-153 452c-7 22 -13 23 -19 24l-61 8v15h462v-15
l-61 -8c-6 -1 -9 -5 -5 -14l117 -345l110 342c3 12 -3 16 -10 17l-61 8v15zM302 118l70 217l-40 118c-8 22 -10 32 -20 32h-122c-11 0 -9 -13 -5 -22z" />
    <glyph glyph-name="x.alt1" horiz-adv-x="552" 
d="M471 23l61 -8v-15h-247v15l61 8c8 1 17 9 8 24l-98 163l-118 -163c-10 -13 0 -23 8 -24l61 -8v-15h-190v15l61 8c8 1 18 11 27 24l136 188l-131 218c-10 17 -14 23 -22 24l-61 8c-89 13 -107 90 -68 123c18 15 40 17 56 10c22 -9 35 -33 19 -60c-18 -30 -49 -16 -51 -28
c-2 -11 0 -30 87 -30h202v-15l-61 -8c-8 -1 -18 -7 -8 -24l93 -155l113 155c10 13 0 23 -8 24l-61 8v15h189v-15l-61 -8c-8 -1 -16 -11 -26 -24l-130 -181l135 -225c9 -15 16 -23 24 -24z" />
    <glyph glyph-name="x.alt2" horiz-adv-x="560" 
d="M532 485l-61 -8c-8 -1 -16 -11 -26 -24l-130 -181l135 -225c9 -15 16 -23 24 -24l61 -8v-15h-247v15l61 8c8 1 17 9 8 24l-98 163l-118 -163c-10 -13 0 -23 8 -24l61 -8v-15h-190v15l61 8c8 1 18 11 27 24l136 188l-131 218c-10 17 -14 23 -22 24l-61 8v15h245v-15
l-61 -8c-8 -1 -18 -7 -8 -24l93 -155l113 155c10 13 0 23 -8 24l-61 8v15h147c87 0 89 19 87 30c-2 12 -33 -2 -51 28c-13 21 -7 41 6 53c17 14 45 17 69 -3c41 -34 17 -111 -69 -123z" />
    <glyph glyph-name="y.alt" horiz-adv-x="544" 
d="M344 500h180v-15l-61 -8c-15 -2 -20 -15 -23 -23l-153 -478l-49 -156c-30 -97 -94 -170 -208 -163c-117 8 -166 93 -159 147c11 72 57 102 108 96c34 -4 52 -27 57 -50c5 -31 -13 -63 -52 -65c-37 -2 -57 28 -58 50c0 16 5 29 17 41c2 2 -1 1 -4 0
c-42 -17 -49 -52 -52 -76c-4 -59 59 -115 123 -122c182 -19 207 141 251 304l-158 471c-7 22 -13 23 -19 24l-61 8v15h231v-15l-61 -8c-6 -1 -9 -5 -6 -14l118 -345l109 342c4 12 -2 16 -9 17l-61 8v15z" />
    <glyph glyph-name="yacute.alt" horiz-adv-x="544" 
d="M346 750h92c10 0 0 -9 0 -9l-167 -171h-17l75 171s4 9 17 9zM344 500h180v-15l-61 -8c-15 -2 -20 -15 -23 -23l-153 -478l-49 -156c-30 -97 -94 -170 -208 -163c-117 8 -166 93 -159 147c11 72 57 102 108 96c38 -5 57 -32 58 -59s-17 -54 -53 -56c-37 -2 -57 28 -58 50
c0 16 5 29 17 41c2 2 -1 1 -4 0c-42 -17 -49 -52 -52 -76c-4 -59 59 -115 123 -122c182 -19 207 141 251 304l-158 471c-7 22 -13 23 -19 24l-61 8v15h231v-15l-61 -8c-6 -1 -9 -5 -6 -14l118 -345l109 342c4 12 -2 16 -9 17l-61 8v15z" />
    <glyph glyph-name="ycircumflex.alt" horiz-adv-x="544" 
d="M184 579h-22l111 170c6 10 11 16 14 17c8 4 14 -6 14 -6l129 -181h-78l-85 124zM344 500h180v-15l-61 -8c-15 -2 -20 -15 -23 -23l-153 -478l-49 -156c-30 -97 -94 -170 -208 -163c-117 8 -166 93 -159 147c11 72 57 102 108 96c34 -4 52 -27 57 -50
c5 -31 -13 -63 -52 -65c-37 -2 -57 28 -58 50c0 16 5 29 17 41c2 2 -1 1 -4 0c-42 -17 -49 -52 -52 -76c-4 -59 59 -115 123 -122c182 -19 207 141 251 304l-158 471c-7 22 -13 23 -19 24l-61 8v15h231v-15l-61 -8c-6 -1 -9 -5 -6 -14l118 -345l109 342c4 12 -2 16 -9 17
l-61 8v15z" />
    <glyph glyph-name="ydieresis.alt" horiz-adv-x="544" 
d="M236 699c0 30 -25 56 -55 56s-56 -26 -56 -56s26 -55 56 -55s55 25 55 55zM436 699c0 30 -24 56 -56 56c-30 0 -53 -26 -53 -56s23 -55 53 -55c32 0 56 25 56 55zM344 500h180v-15l-61 -8c-15 -2 -20 -15 -23 -23l-153 -478l-49 -156c-30 -97 -94 -170 -208 -163
c-117 8 -166 93 -159 147c11 72 57 102 108 96c42 -5 60 -38 57 -67c-2 -25 -20 -47 -52 -48c-37 -2 -57 28 -58 50c0 16 5 29 17 41c2 2 -1 1 -4 0c-42 -17 -49 -52 -52 -76c-4 -59 59 -115 123 -122c182 -19 207 141 251 304l-158 471c-7 22 -13 23 -19 24l-61 8v15h231
v-15l-61 -8c-6 -1 -9 -5 -6 -14l118 -345l109 342c4 12 -2 16 -9 17l-61 8v15z" />
    <glyph glyph-name="ygrave.alt" horiz-adv-x="544" 
d="M304 570l-167 171s-10 9 0 9h92c13 0 17 -9 17 -9l75 -171h-17zM344 500h180v-15l-61 -8c-15 -2 -20 -15 -23 -23l-153 -478l-49 -156c-30 -97 -94 -170 -208 -163c-117 8 -166 93 -159 147c11 72 57 102 108 96c35 -5 54 -28 57 -53c4 -29 -14 -60 -52 -62
c-37 -2 -57 28 -58 50c0 16 5 29 17 41c2 2 -1 1 -4 0c-42 -17 -49 -52 -52 -76c-4 -59 59 -115 123 -122c182 -19 207 141 251 304l-158 471c-7 22 -13 23 -19 24l-61 8v15h231v-15l-61 -8c-6 -1 -9 -5 -6 -14l118 -345l109 342c4 12 -2 16 -9 17l-61 8v15z" />
    <glyph glyph-name="ytilde.alt" horiz-adv-x="544" 
d="M117 642l47 70c32 50 60 42 114 23c39 -13 115 -43 139 -15c13 15 22 29 22 29l9 -7l-46 -67c-36 -52 -71 -44 -124 -24c-23 8 -104 50 -130 15c-14 -19 -21 -31 -21 -31zM344 500h180v-15l-61 -8c-15 -2 -20 -15 -23 -23l-153 -478l-49 -156c-30 -97 -94 -170 -208 -163
c-117 8 -166 93 -159 147c11 72 57 102 108 96c38 -5 57 -32 58 -59s-17 -54 -53 -56c-37 -2 -57 28 -58 50c0 16 5 29 17 41c2 2 -1 1 -4 0c-42 -17 -49 -52 -52 -76c-4 -59 59 -115 123 -122c182 -19 207 141 251 304l-158 471c-7 22 -13 23 -19 24l-61 8v15h231v-15
l-61 -8c-6 -1 -9 -5 -6 -14l118 -345l109 342c4 12 -2 16 -9 17l-61 8v15z" />
    <glyph glyph-name="z.alt" horiz-adv-x="457" 
d="M131 17h197c-38 42 -42 68 -37 93c7 32 35 45 63 44c32 -2 66 -23 75 -57c11 -42 -9 -97 -70 -97c51 -69 80 -133 62 -194c-7 -29 -36 -45 -58 -42c-16 1 -29 13 -28 36c3 35 41 46 48 77c5 31 -3 68 -40 123h-313v17l276 466h-98c-113 -1 -127 -103 -127 -115h-14
s9 65 9 95c0 23 -2 48 -2 48h14l13 -11h306v-17zM349 17c69 0 64 93 30 110c-21 11 -39 4 -49 -11c-16 -24 -15 -67 19 -99z" />
    <glyph glyph-name="zacute.alt" horiz-adv-x="457" 
d="M293 750h92c10 0 0 -9 0 -9l-167 -171h-17l75 171s4 9 17 9zM131 17h197c-38 42 -42 68 -37 93c8 35 40 48 71 43c30 -5 59 -25 67 -56c11 -42 -9 -97 -70 -97c51 -69 80 -133 62 -194c-7 -27 -32 -42 -53 -43c-19 0 -34 12 -33 37c3 35 41 46 48 77c5 31 -3 68 -40 123
h-313v17l276 466h-98c-113 -1 -127 -103 -127 -115h-14s9 65 9 95c0 23 -2 48 -2 48h14l13 -11h306v-17zM349 17c69 0 64 93 30 110c-22 12 -41 3 -51 -14c-14 -24 -12 -66 21 -96z" />
    <glyph glyph-name="zcaron.alt" horiz-adv-x="457" 
d="M343 761h22l-111 -170c-6 -10 -11 -16 -14 -17c-8 -4 -14 6 -14 6l-129 181h78l85 -124zM131 17h197c-38 42 -42 68 -37 93c8 35 39 47 70 43c30 -5 60 -25 68 -56c11 -42 -9 -97 -70 -97c51 -69 80 -133 62 -194c-6 -24 -26 -38 -44 -42c-22 -4 -44 7 -42 36
c3 35 41 46 48 77c5 31 -3 68 -40 123h-313v17l276 466h-98c-113 -1 -127 -103 -127 -115h-14s9 65 9 95c0 23 -2 48 -2 48h14l13 -11h306v-17zM349 17c69 0 64 93 30 110c-16 9 -30 7 -41 -2c-24 -19 -28 -71 11 -108z" />
    <glyph glyph-name="zcircumflex.alt" horiz-adv-x="457" 
d="M140 579h-22l111 170c6 10 11 16 14 17c8 4 14 -6 14 -6l129 -181h-78l-85 124zM131 17h197c-38 42 -42 68 -37 93c8 35 39 47 69 43c31 -4 61 -25 69 -56c11 -42 -9 -97 -70 -97c51 -69 80 -133 62 -194c-9 -34 -45 -49 -68 -40c-11 5 -19 16 -18 34c3 35 41 46 48 77
c5 31 -3 68 -40 123h-313v17l276 466h-98c-113 -1 -127 -103 -127 -115h-14s9 65 9 95c0 23 -2 48 -2 48h14l13 -11h306v-17zM349 17c69 0 64 93 30 110c-18 10 -33 6 -44 -5c-21 -21 -24 -70 14 -105z" />
    <glyph glyph-name="c_b" horiz-adv-x="1060" 
d="M688 468l90 37c92 -22 233 -75 251 -282c14 -160 -105 -250 -220 -237c-53 6 -78 20 -122 54c0 -22 2 -46 -6 -53c-9 -8 -55 11 -123 13v17h23c9 0 13 37 14 74v558c0 23 0 99 -15 99c-50 0 -114 -4 -165 -21c-81 -27 -132 -88 -57 -219c66 -23 73 -62 58 -79
s-53 -12 -76 56c-73 26 -160 4 -202 -115c-47 -143 16 -355 163 -350c102 3 132 97 139 116l16 -15c-8 -24 -31 -140 -194 -140c-116 0 -188 67 -217 154c-48 144 20 343 191 377c43 10 86 1 92 0c-65 149 -7 206 82 233c93 29 220 23 271 55c5 3 7 0 7 -37v-295zM688 443
v-324c9 -83 74 -110 113 -110c60 0 122 46 122 206c0 154 -107 230 -176 253z" />
    <glyph glyph-name="c_h" horiz-adv-x="1072" 
d="M991 23l61 -8v-15h-231v15l61 8c8 1 8 7 8 24v265c0 119 -26 155 -95 155c-99 0 -107 -90 -107 -112v-308c0 -17 0 -23 8 -24l61 -8v-15h-231v15l61 8c8 1 8 7 8 24v602c0 23 0 99 -15 99c-43 0 -97 -3 -144 -15c-92 -23 -160 -82 -78 -225c72 -25 74 -69 54 -83
c-17 -12 -51 -2 -72 60c-73 26 -160 4 -202 -115c-47 -143 16 -355 163 -350c102 3 132 97 139 116l16 -15c-8 -24 -31 -140 -194 -140c-157 0 -232 122 -232 250c0 124 71 254 206 281c43 10 86 1 92 0c-71 162 4 216 106 240c90 21 200 19 247 48c5 3 7 0 7 -37v-294
l153 46c61 0 142 -38 142 -173v-295c0 -17 0 -23 8 -24z" />
    <glyph glyph-name="c_k" horiz-adv-x="1097" 
d="M1016 500v-23h-54c-45 0 -41 0 -202 -161c62 -69 230 -288 264 -293l53 -7v-16h-252v16l54 7c38 6 -108 160 -177 236l-14 -14v-198c0 -17 0 -23 8 -24l61 -8v-15h-231v15l61 8c8 1 8 7 8 24v602c0 23 0 99 -15 99c-47 0 -107 -3 -157 -18c-85 -26 -143 -86 -65 -222
c74 -26 74 -72 52 -84c-18 -10 -50 1 -70 61c-73 26 -160 4 -202 -115c-47 -143 16 -355 163 -350c102 3 132 97 139 116l16 -15c-8 -24 -31 -140 -194 -140c-151 0 -225 112 -231 234c-7 129 65 269 205 297c43 10 86 1 92 0c-65 149 -7 207 82 234c94 28 220 22 271 54
c5 3 7 0 7 -37v-487l142 141c58 62 46 60 18 60h-60v23h228z" />
    <glyph glyph-name="c_l" horiz-adv-x="777" 
d="M688 763v-716c0 -17 0 -23 8 -24l61 -8v-15h-231v15l61 8c8 1 8 7 8 24v602c0 23 0 99 -15 99c-53 0 -123 -4 -176 -25c-74 -29 -118 -89 -46 -215c71 -24 74 -68 55 -82c-17 -13 -51 -4 -73 59c-73 26 -160 4 -202 -115c-47 -143 16 -355 163 -350c102 3 132 97 139 116
l16 -15c-8 -24 -31 -140 -194 -140c-129 0 -203 83 -225 183c-30 141 40 316 199 348c43 10 86 1 92 0c-62 142 -12 201 69 229c95 33 231 26 284 59c5 3 7 0 7 -37z" />
    <glyph glyph-name="c_m" horiz-adv-x="1323" 
d="M1242 23l61 -8v-15h-231v15l61 8c8 1 8 7 8 24v265c0 119 -16 155 -95 155c-89 0 -87 -90 -87 -112v-308c0 -17 0 -23 8 -24l61 -8v-15h-231v15l61 8c8 1 8 7 8 24v265c0 119 -16 155 -95 155c-83 0 -87 -79 -87 -107v-313c0 -17 0 -23 8 -24l61 -8v-15h-231v15l61 8
c8 1 8 7 8 24v316c0 23 0 99 -15 99l-61 -2v23c41 0 129 6 141 105c20 156 -84 211 -165 210c-177 -2 -211 -154 -133 -290c61 -26 62 -72 44 -84c-14 -10 -42 1 -62 61c-73 26 -160 4 -202 -115c-47 -143 16 -355 163 -350c102 3 132 97 139 116l16 -15
c-8 -24 -31 -140 -194 -140c-164 0 -238 133 -231 266c6 119 76 239 205 265c43 10 86 1 92 0c-74 149 -25 305 167 305c132 0 189 -90 189 -206v-142l133 46c38 0 83 -14 112 -57l163 57c61 0 142 -38 142 -173v-295c0 -17 0 -23 8 -24z" />
    <glyph glyph-name="c_n" horiz-adv-x="1068" 
d="M987 23l61 -8v-15h-231v15l61 8c8 1 8 7 8 24v265c0 119 -26 155 -95 155c-99 0 -107 -90 -107 -112v-308c0 -17 0 -23 8 -24l61 -8v-15h-231v15l61 8c8 1 8 7 8 24v316c0 23 0 99 -15 99l-61 -2v23c49 0 129 9 141 105c20 156 -84 211 -165 210
c-177 -2 -211 -154 -133 -290c65 -27 62 -78 40 -86c-15 -6 -39 8 -58 63c-73 26 -160 4 -202 -115c-47 -143 16 -355 163 -350c102 3 132 97 139 116l16 -15c-8 -24 -31 -140 -194 -140c-150 0 -225 111 -231 232c-7 130 64 271 205 299c43 10 86 1 92 0
c-74 149 -25 305 167 305c132 0 189 -90 189 -206v-142l153 46c61 0 142 -38 142 -173v-295c0 -17 0 -23 8 -24z" />
    <glyph glyph-name="c_p" horiz-adv-x="1061" 
d="M684 611v-151c109 117 367 45 346 -189c-15 -204 -165 -260 -259 -283l-87 29v-255c0 -17 0 -23 8 -24l61 -8v-15h-231v15l61 8c8 1 8 7 8 24v602c0 23 0 98 -15 98l-61 -2v24c61 0 129 13 141 104c20 156 -84 211 -165 210c-177 -2 -211 -154 -133 -290
c59 -25 62 -70 45 -83c-14 -12 -42 -2 -63 60c-73 26 -160 4 -202 -115c-47 -143 16 -355 163 -350c102 3 132 97 139 116l16 -15c-8 -24 -31 -140 -194 -140c-155 0 -229 119 -232 244c-2 126 69 259 206 287c43 10 86 1 92 0c-74 149 -25 305 167 305
c132 0 189 -90 189 -206zM684 44l55 -17c79 24 180 95 180 252c0 165 -63 209 -124 213c-41 3 -111 -32 -111 -126v-322z" />
    <glyph glyph-name="c_r" horiz-adv-x="911" 
d="M684 611v-170c94 137 231 51 204 -25c-24 -63 -108 -56 -108 5c0 49 38 44 38 60c0 14 -134 32 -134 -177v-257c0 -17 0 -23 8 -24l61 -8v-15h-231v15l61 8c8 1 8 7 8 24v316c0 23 0 99 -15 99l-61 -2v23c36 0 129 4 141 105c20 156 -84 211 -165 210
c-177 -2 -211 -154 -133 -290c62 -26 63 -73 43 -85c-15 -9 -41 4 -61 62c-73 26 -160 4 -202 -115c-47 -143 16 -355 163 -350c102 3 132 97 139 116l16 -15c-8 -24 -31 -140 -194 -140c-155 0 -229 118 -232 244c-2 126 69 259 206 287c43 10 86 1 92 0
c-74 149 -25 305 167 305c132 0 189 -90 189 -206z" />
    <glyph glyph-name="c_t" horiz-adv-x="844" 
d="M830 62l14 -10c-14 -20 -77 -72 -152 -72c-94 0 -104 55 -104 143v360h-69v17c52 0 125 16 137 108c20 156 -84 191 -165 190c-177 -2 -211 -154 -133 -290c57 -24 62 -67 47 -82c-14 -13 -43 -5 -65 59c-73 26 -160 4 -202 -115c-47 -143 16 -355 163 -350
c102 3 132 97 139 116l16 -15c-8 -24 -31 -140 -194 -140c-148 0 -223 109 -231 228c-9 131 62 274 205 303c43 10 86 1 92 0c-74 149 -25 305 167 305c132 0 189 -70 189 -186v-131h107v-17h-107v-355c0 -37 10 -111 61 -111c46 0 80 37 85 45z" />
    <glyph glyph-name="c_u" horiz-adv-x="1042" 
d="M1003 44l59 2v-20c-115 0 -152 -42 -161 -42c-10 0 -12 9 -12 45l-156 -45c-69 5 -142 18 -142 183v183c0 27 1 112 -15 112l-61 -2v24c53 0 130 10 141 104c20 156 -84 211 -165 210c-177 -2 -211 -154 -133 -290c61 -26 62 -72 44 -84c-14 -10 -42 1 -62 61
c-73 26 -160 4 -202 -115c-47 -143 16 -355 163 -350c102 3 132 97 139 116l16 -15c-8 -24 -31 -140 -194 -140c-153 0 -228 116 -232 240c-3 127 68 263 206 291c43 10 86 1 92 0c-74 149 -25 305 167 305c132 0 189 -90 189 -206v-415c0 -129 25 -175 94 -175
c101 0 114 91 114 122v207c0 25 0 115 -16 115c-28 0 -52 -2 -60 -3v22c134 0 169 83 169 -6v-339c1 -37 3 -95 18 -95z" />
    <glyph glyph-name="g_i" horiz-adv-x="845" 
d="M134 202l-11 11c-39 35 -56 84 -54 132c3 86 69 171 177 171c46 0 84 -16 114 -42c-37 174 27 372 198 372c123 0 228 -68 197 -161c-11 -30 -39 -44 -64 -43c-24 1 -45 15 -45 42c0 50 65 57 62 82c-6 49 -144 75 -219 41c-70 -32 -166 -161 -71 -422
c33 -88 -6 -221 -172 -221c-36 0 -71 12 -100 29c-31 -14 -114 -94 -8 -135c197 32 277 48 327 -61c11 -24 49 -213 -207 -269c-180 -40 -268 25 -277 103c-8 61 32 129 113 162c-134 78 -27 176 40 209zM754 23l61 -8v-15h-231v15l61 8c8 1 8 7 8 24v317c0 23 0 98 -15 98
l-61 -2v23c77 0 123 29 147 34c16 3 22 -4 22 -38v-432c0 -17 0 -23 8 -24zM158 341c0 -110 46 -164 90 -162c43 2 85 56 85 162c0 103 -41 156 -83 159c-45 3 -92 -50 -92 -159zM130 -8c0 0 -56 -46 -56 -126c0 -57 58 -122 176 -113c175 14 175 154 175 154
c0 117 -115 120 -295 85z" />
    <glyph glyph-name="g_j" horiz-adv-x="840" 
d="M134 202l-11 11c-40 37 -57 87 -54 136c5 85 70 167 177 167c46 0 84 -16 114 -42c-37 174 27 372 198 372c123 0 228 -68 197 -161c-11 -31 -40 -45 -66 -43c-23 1 -43 16 -43 42c0 50 65 57 62 82c-6 49 -144 75 -219 41c-70 -32 -166 -161 -71 -422
c33 -88 -6 -221 -172 -221c-36 0 -71 12 -100 29c-31 -14 -114 -94 -8 -135c197 32 277 48 327 -61c11 -24 49 -213 -207 -269c-185 -41 -273 30 -278 111c-3 58 36 123 114 154c-134 78 -27 176 40 209zM577 460v23c78 0 124 30 149 34c14 2 20 -5 20 -32v-581
c-24 1 -33 -54 -63 -132c-15 -38 -51 -57 -86 -57c-43 -1 -84 24 -84 70c0 17 16 50 50 49c30 0 44 -27 44 -46c0 0 2 -28 -21 -40c61 -19 67 43 67 223v393c0 23 0 98 -15 98zM158 341c0 -108 44 -162 88 -162s87 54 87 162c0 106 -43 159 -87 159s-88 -53 -88 -159z
M130 -8c0 0 -56 -46 -56 -126c0 -57 58 -122 176 -113c175 14 175 154 175 154c0 117 -115 120 -295 85z" />
    <glyph glyph-name="i_m" horiz-adv-x="1147" 
d="M1066 23l61 -8v-15h-231v15l61 8c8 1 8 7 8 24v265c0 119 -16 155 -95 155c-89 0 -87 -90 -87 -112v-308c0 -17 0 -23 8 -24l61 -8v-15h-231v15l61 8c8 1 8 7 8 24v265c0 119 -16 155 -95 155c-89 0 -87 -90 -87 -112v-308c0 -17 0 -23 8 -24l61 -8v-15h-231v15l61 8
c8 1 8 7 8 24v316c0 23 0 99 -15 99l-61 -2v25c87 0 144 29 144 128c0 153 -85 215 -219 215c-61 0 -118 -29 -122 -59c-3 -25 62 -32 62 -82c0 -26 -20 -41 -43 -42c-26 -2 -55 12 -66 43c-31 93 64 161 167 161c121 0 246 -42 246 -240v-140l133 46c38 0 83 -14 112 -57
l163 57c61 0 142 -38 142 -173v-295c0 -17 0 -23 8 -24zM204 479v-432c0 -17 0 -23 8 -24l61 -8v-15h-231v15l61 8c8 1 8 7 8 24v317c0 23 0 98 -15 98l-61 -2v23c81 0 127 33 150 35c14 1 19 -8 19 -39z" />
    <glyph glyph-name="i_n" horiz-adv-x="892" 
d="M811 23l61 -8v-15h-231v15l61 8c8 1 8 7 8 24v265c0 119 -26 155 -95 155c-99 0 -107 -90 -107 -112v-308c0 -17 0 -23 8 -24l61 -8v-15h-231v15l61 8c8 1 8 7 8 24v316c0 23 0 99 -15 99l-61 -2v25c87 0 144 29 144 128c0 153 -85 215 -219 215c-61 0 -118 -29 -122 -59
c-3 -25 62 -32 62 -82c0 -30 -26 -45 -54 -42c-22 2 -45 16 -55 43c-31 93 64 161 167 161c121 0 246 -42 246 -240v-140l153 46c61 0 142 -38 142 -173v-295c0 -17 0 -23 8 -24zM204 479v-432c0 -17 0 -23 8 -24l61 -8v-15h-231v15l61 8c8 1 8 7 8 24v317c0 23 0 98 -15 98
l-61 -2v23c78 0 123 30 147 34c16 3 22 -5 22 -38z" />
    <glyph glyph-name="i_p" horiz-adv-x="885" 
d="M508 609v-148c30 32 78 53 119 54c123 4 242 -78 227 -243c-15 -204 -165 -260 -259 -283l-87 39v-265c0 -17 0 -23 8 -24l61 -8v-15h-231v15l61 8c8 1 8 7 8 24v604c0 23 0 97 -15 97l-61 -2v23c87 0 144 29 144 128c0 153 -85 215 -219 215c-61 0 -118 -29 -122 -59
c-3 -25 62 -32 62 -82c0 -28 -24 -43 -49 -42c-24 1 -50 15 -60 43c-31 93 64 161 167 161c121 0 246 -42 246 -240zM204 479v-432c0 -17 0 -23 8 -24l61 -8v-15h-231v15l61 8c8 1 8 7 8 24v317c0 23 0 98 -15 98l-61 -2v23c77 0 123 29 147 34c15 3 22 -4 22 -38zM508 45
l55 -17c79 24 180 95 180 252c0 165 -63 209 -124 213c-41 3 -111 -32 -111 -126v-322z" />
    <glyph glyph-name="i_r" horiz-adv-x="735" 
d="M508 609v-140v-28c40 58 87 76 127 72c54 -6 93 -53 77 -97c-14 -37 -49 -50 -75 -42c-19 6 -33 22 -33 47c0 49 38 44 38 60c0 7 -37 16 -72 -8c-32 -21 -62 -69 -62 -169v-257c0 -17 0 -23 8 -24l61 -8v-15h-231v15l61 8c8 1 8 7 8 24v316c0 23 0 99 -15 99l-61 -2v25
c87 0 144 29 144 128c0 153 -85 215 -219 215c-61 0 -118 -29 -122 -59c-3 -25 62 -32 62 -82c0 -27 -22 -42 -46 -42c-25 -1 -52 13 -63 43c-31 93 64 161 167 161c121 0 246 -42 246 -240zM204 479v-432c0 -17 0 -23 8 -24l61 -8v-15h-231v15l61 8c8 1 8 7 8 24v317
c0 23 0 98 -15 98l-61 -2v23c76 0 121 28 145 34c17 4 24 -3 24 -38z" />
    <glyph glyph-name="i_t" horiz-adv-x="668" 
d="M654 62l14 -10c-14 -20 -77 -72 -152 -72c-94 0 -104 55 -104 143v360h-69v17c87 0 140 34 140 113c0 153 -85 215 -219 215c-61 0 -118 -29 -122 -59c-3 -25 62 -32 62 -82c0 -25 -19 -40 -41 -42c-26 -3 -57 11 -68 43c-31 93 64 161 167 161c121 0 246 -42 246 -240
v-109h107v-17h-107v-355c0 -37 10 -111 61 -111c46 0 80 37 85 45zM204 479v-432c0 -17 0 -23 8 -24l61 -8v-15h-231v15l61 8c8 1 8 7 8 24v317c0 23 0 98 -15 98l-61 -2v23c82 0 129 34 151 35c13 1 18 -9 18 -39z" />
    <glyph glyph-name="i_u" horiz-adv-x="906" 
d="M827 44l59 2v-20c-115 0 -152 -42 -161 -42c-10 0 -12 9 -12 45l-156 -45c-69 5 -142 18 -142 183v183c0 25 0 115 -16 115c-29 0 -53 -2 -61 -3v22c57 0 145 7 145 129c0 153 -85 215 -219 215c-61 0 -118 -29 -122 -59c-3 -25 62 -32 62 -82c0 -26 -19 -40 -42 -42
c-25 -2 -56 11 -67 43c-31 93 64 161 167 161c121 0 246 -42 246 -240v-140v-28v-245c0 -129 25 -175 94 -175c101 0 114 91 114 122v207c0 25 0 115 -16 115c-28 0 -52 -2 -60 -3v22c91 0 136 38 156 35c9 -1 13 -12 13 -41v-339c1 -37 3 -95 18 -95zM204 479v-432
c0 -17 0 -23 8 -24l61 -8v-15h-231v15l61 8c8 1 8 7 8 24v317c0 23 0 98 -15 98l-61 -2v23c75 0 120 28 144 34c18 4 25 -3 25 -38z" />
    <glyph glyph-name="s_m" horiz-adv-x="1255" 
d="M1174 23l61 -8v-15h-231v15l61 8c8 1 8 7 8 24v265c0 119 -16 155 -95 155c-89 0 -87 -90 -87 -112v-308c0 -17 0 -23 8 -24l61 -8v-15h-231v15l61 8c8 1 8 7 8 24v265c0 119 -16 155 -95 155c-89 0 -87 -90 -87 -112v-308c0 -17 0 -23 8 -24l61 -8v-15h-231v15l61 8
c8 1 8 7 8 24v316c0 23 0 99 -15 99l-61 -2v25c52 0 128 19 141 123c19 156 -98 192 -176 191c-177 -2 -229 -159 -151 -295c72 -25 74 -69 54 -83c-18 -11 -52 0 -73 66c-72 26 -154 2 -145 -87c6 -55 114 -94 143 -108c75 -36 124 -72 132 -153
c13 -128 -82 -161 -161 -161c-70 0 -112 42 -134 42c-21 0 -23 -20 -23 -20h-16s3 6 3 37c0 32 -11 114 -11 114h16c0 -104 100 -146 168 -146c66 0 91 36 90 86c-1 45 -46 67 -98 91c-76 34 -168 71 -168 186c0 151 141 153 194 144c-74 149 -8 305 184 305
c129 0 200 -70 200 -186v-162l133 46c38 0 83 -14 112 -57l163 57c61 0 142 -38 142 -173v-295c0 -17 0 -23 8 -24z" />
    <glyph glyph-name="s_n" horiz-adv-x="1000" 
d="M919 23l61 -8v-15h-231v15l61 8c8 1 8 7 8 24v265c0 119 -26 155 -95 155c-99 0 -107 -90 -107 -112v-308c0 -17 0 -23 8 -24l61 -8v-15h-231v15l61 8c8 1 8 7 8 24v316c0 23 0 99 -15 99l-61 -2v25c52 0 128 19 141 123c19 156 -98 192 -176 191
c-177 -2 -229 -159 -151 -295c79 -27 74 -78 47 -86c-18 -5 -47 10 -66 69c-72 26 -154 2 -145 -87c6 -55 114 -94 143 -108c75 -36 124 -72 132 -153c13 -128 -82 -161 -161 -161c-70 0 -112 42 -134 42c-21 0 -23 -20 -23 -20h-16s3 6 3 37c0 32 -11 114 -11 114h16
c0 -104 100 -146 168 -146c66 0 91 36 90 86c-1 46 -48 68 -101 92c-76 34 -165 72 -165 185c0 151 141 153 194 144c-74 149 -8 305 184 305c129 0 200 -70 200 -186v-162l153 46c61 0 142 -38 142 -173v-295c0 -17 0 -23 8 -24z" />
    <glyph glyph-name="s_p" horiz-adv-x="993" 
d="M616 631v-170c30 32 78 54 119 54c123 0 242 -78 227 -243c-15 -204 -165 -260 -259 -283l-87 39v-265c0 -17 0 -23 8 -24l61 -8v-15h-231v15l61 8c8 1 8 7 8 24v603c0 23 0 98 -15 98l-61 -2v23c52 0 128 19 141 123c19 156 -98 192 -176 191
c-177 -2 -229 -159 -151 -295c78 -27 74 -77 48 -85c-18 -7 -48 8 -67 68c-72 26 -154 2 -145 -87c6 -55 114 -94 143 -108c75 -36 124 -72 132 -153c13 -128 -82 -161 -161 -161c-70 0 -112 42 -134 42c-21 0 -23 -20 -23 -20h-16s3 6 3 37c0 32 -11 114 -11 114h16
c0 -104 100 -146 168 -146c66 0 91 36 90 86c-1 51 -59 73 -120 100c-71 33 -146 73 -146 177c0 151 141 153 194 144c-74 149 -8 305 184 305c129 0 200 -70 200 -186zM616 45l55 -17c79 24 180 95 180 252c0 165 -63 207 -124 211c-41 3 -111 -30 -111 -124v-322z" />
    <glyph glyph-name="s_r" horiz-adv-x="843" 
d="M616 631v-162v-28c37 53 80 73 117 72c59 -1 103 -51 87 -97c-14 -37 -49 -50 -75 -42c-19 6 -33 22 -33 47c0 49 38 44 38 60c0 6 -27 13 -57 0c-36 -16 -77 -62 -77 -177v-257c0 -17 0 -23 8 -24l61 -8v-15h-231v15l61 8c8 1 8 7 8 24v316c0 23 0 99 -15 99l-61 -2v25
c52 0 128 19 141 123c19 156 -98 192 -176 191c-177 -2 -229 -159 -151 -295c85 -29 72 -86 41 -87c-19 0 -43 18 -60 70c-72 26 -154 2 -145 -87c6 -55 114 -94 143 -108c75 -36 124 -72 132 -153c13 -128 -82 -161 -161 -161c-70 0 -112 42 -134 42c-21 0 -23 -20 -23 -20
h-16s3 6 3 37c0 32 -11 114 -11 114h16c0 -104 100 -146 168 -146c66 0 91 36 90 86c-1 46 -47 68 -101 92c-75 34 -165 72 -165 185c0 151 141 153 194 144c-74 149 -8 305 184 305c129 0 200 -70 200 -186z" />
    <glyph glyph-name="s_t" horiz-adv-x="772" 
d="M758 62l14 -10c-14 -20 -77 -72 -152 -72c-94 0 -104 55 -104 143v360h-69v17c52 0 124 15 137 108c21 156 -96 192 -172 191c-177 -2 -229 -159 -151 -295c79 -27 74 -79 47 -86c-19 -5 -47 11 -66 69c-72 26 -154 2 -145 -87c6 -55 114 -94 143 -108
c75 -36 124 -72 132 -153c13 -128 -82 -161 -161 -161c-70 0 -112 42 -134 42c-21 0 -23 -20 -23 -20h-16s3 6 3 37c0 32 -11 114 -11 114h16c0 -104 100 -146 168 -146c66 0 91 36 90 86c-1 51 -58 72 -119 100c-71 32 -147 72 -147 177c0 151 141 153 194 144
c-74 149 -8 305 184 305c127 0 196 -70 196 -186v-131h107v-17h-107v-355c0 -37 10 -111 61 -111c46 0 80 37 85 45z" />
    <glyph glyph-name="s_u" horiz-adv-x="1014" 
d="M935 44l59 2v-20c-115 0 -152 -42 -161 -42c-10 0 -12 9 -12 45l-156 -45c-69 5 -142 18 -142 183v183c0 27 1 116 -15 115l-61 -3v23c52 0 128 19 141 123c19 156 -98 192 -176 191c-177 -2 -229 -159 -151 -295c75 -26 74 -73 51 -84c-18 -9 -50 4 -70 67
c-72 26 -154 2 -145 -87c6 -55 114 -94 143 -108c75 -36 124 -72 132 -153c13 -128 -82 -161 -161 -161c-70 0 -112 42 -134 42c-21 0 -23 -20 -23 -20h-16s3 6 3 37c0 32 -11 114 -11 114h16c0 -104 100 -146 168 -146c66 0 91 36 90 86s-56 71 -115 98
c-72 33 -151 73 -151 179c0 151 141 153 194 144c-74 149 -8 305 184 305c129 0 200 -70 200 -186v-435c0 -129 25 -175 94 -175c101 0 114 91 114 122v207c0 25 0 115 -16 115c-28 0 -52 -2 -60 -3v22c84 0 129 32 151 35c13 2 18 -7 18 -41v-339c1 -37 3 -95 18 -95z" />
    <glyph glyph-name="f_b.alt.alt" horiz-adv-x="887" 
d="M514 468l91 37c92 -22 233 -75 251 -282c14 -160 -105 -250 -220 -237c-53 6 -78 20 -122 54c0 -22 2 -46 -6 -53c-9 -8 -55 11 -123 13v17h23c8 0 12 25 13 55v578c0 49 5 87 -36 114c-5 3 -87 40 -140 -33c-26 -36 -45 -97 -45 -200v-31h107v-23h-107v-430
c0 -17 0 -23 8 -24l61 -8v-15h-231v15l61 8c8 1 8 7 8 24v430h-190c-107 0 -203 17 -246 78c-19 27 -12 60 5 75c11 10 28 11 44 -4c25 -24 9 -60 30 -85c27 -28 72 -41 173 -41h184c0 62 -1 154 53 224c40 59 109 78 154 76h184c16 0 16 0 16 -35v-297zM514 443v-305
c0 -98 72 -129 114 -129c60 0 122 46 122 206c0 154 -107 230 -176 253z" />
    <glyph glyph-name="f_f.alt.alt" horiz-adv-x="624" 
d="M-77 500h184c0 62 -4 143 49 214c40 52 102 78 163 84c73 8 145 -12 177 -46c38 40 83 52 123 47c60 -8 109 -53 110 -95c0 -32 -24 -48 -49 -49s-51 15 -51 49c0 18 9 34 23 42c8 6 16 12 7 18c-5 4 -60 35 -101 -19c-25 -32 -44 -95 -44 -214v-31h107v-23h-107v-430
c0 -17 0 -23 8 -24l61 -8v-15h-231v15l61 8c8 1 8 7 8 24v430h-221v-430c0 -17 0 -23 8 -24l61 -8v-15h-231v15l61 8c8 1 8 7 8 24v430h-190c-107 0 -203 17 -246 78c-19 27 -12 60 5 75c11 10 28 12 44 -4c25 -24 9 -60 30 -85c27 -28 72 -41 173 -41zM200 500h221
c0 145 16 180 65 240c-27 20 -123 58 -197 17c-50 -28 -89 -93 -89 -226v-31z" />
    <glyph glyph-name="f_f_i.alt.alt" horiz-adv-x="927" 
d="M836 23l61 -8v-15h-231v15l61 8c8 1 8 7 8 24v317c0 23 0 113 -15 113h-206v-430c0 -17 0 -23 8 -24l61 -8v-15h-231v15l61 8c8 1 8 7 8 24v430h-221v-430c0 -17 0 -23 8 -24l61 -8v-15h-231v15l61 8c8 1 8 7 8 24v430h-190c-107 0 -203 17 -246 78c-19 27 -12 60 4 75
c12 10 29 12 45 -4c25 -24 9 -60 30 -85c27 -28 72 -41 173 -41h184c0 62 -4 143 49 214c44 59 117 84 185 85c67 2 131 -19 158 -51c45 37 105 52 162 51c89 -1 170 -42 170 -95c0 -33 -25 -49 -51 -49c-24 0 -49 16 -49 49c0 18 9 34 23 42c8 6 16 12 7 18
c-4 3 -76 27 -141 -1c-56 -25 -106 -87 -106 -232v-31h145c80 0 126 24 150 21c13 -2 19 -12 19 -42v-432c0 -17 0 -23 8 -24zM200 500h221c0 112 4 174 68 238c-20 17 -97 51 -167 32c-64 -17 -122 -78 -122 -239v-31z" />
    <glyph glyph-name="f_f_l.alt.alt" horiz-adv-x="825" 
d="M744 23l61 -8v-15h-231v15l61 8c8 1 8 7 8 24v603c0 49 5 87 -36 114c-4 3 -57 27 -106 -1c-41 -24 -79 -86 -79 -232v-31h107v-23h-107v-430c0 -17 0 -23 8 -24l61 -8v-15h-231v15l61 8c8 1 8 7 8 24v430h-221v-430c0 -17 0 -23 8 -24l61 -8v-15h-231v15l61 8
c8 1 8 7 8 24v430h-98c-107 0 -203 17 -246 78c-20 27 -12 62 6 76c12 9 27 10 43 -5c25 -24 9 -60 30 -85c27 -28 72 -41 173 -41h92c0 62 -4 143 49 214c47 62 125 86 197 86c61 -1 116 -19 143 -48c46 47 115 50 152 48h164c16 0 16 0 16 -35v-718c0 -17 0 -23 8 -24z
M108 500h221c0 100 3 161 66 240c-17 13 -77 40 -138 35c-74 -7 -149 -61 -149 -244v-31z" />
    <glyph glyph-name="f_h.alt.alt" horiz-adv-x="898" 
d="M817 23l61 -8v-15h-231v15l61 8c8 1 8 7 8 24v265c0 119 -26 155 -95 155c-99 0 -107 -90 -107 -112v-308c0 -17 0 -23 8 -24l61 -8v-15h-231v15l61 8c8 1 8 7 8 24v603c0 49 5 87 -36 114c-4 3 -73 33 -125 -16c-33 -31 -60 -94 -60 -217v-31h107v-23h-107v-430
c0 -17 0 -23 8 -24l61 -8v-15h-231v15l61 8c8 1 8 7 8 24v430h-190c-107 0 -203 17 -246 78c-18 26 -13 58 3 73c12 12 29 14 46 -2c25 -24 8 -61 30 -85c26 -28 72 -41 173 -41h184c0 62 -1 154 53 224c40 59 109 78 154 76h184c16 0 16 0 16 -35v-296l153 46
c61 0 142 -38 142 -173v-295c0 -17 0 -23 8 -24z" />
    <glyph glyph-name="f_j.alt.alt" horiz-adv-x="597" 
d="M200 500h145c80 0 127 24 150 21c13 -2 19 -12 19 -42v-575c-24 1 -33 -54 -63 -132c-15 -40 -54 -58 -90 -57c-41 1 -80 25 -80 70c0 17 16 50 50 49c30 0 44 -27 44 -46c0 0 2 -28 -21 -40c61 -19 67 43 67 223v393c0 23 0 113 -15 113h-206v-430c0 -17 0 -23 8 -24
l61 -8v-15h-231v15l61 8c8 1 8 7 8 24v430h-190c-107 0 -203 17 -246 78c-19 27 -12 61 5 75c12 10 28 11 44 -4c25 -24 9 -60 30 -85c27 -28 72 -41 173 -41h184c0 62 -3 143 49 214c44 60 116 84 183 85c93 2 178 -40 178 -95c0 -31 -23 -48 -47 -49c-26 -2 -53 15 -53 49
c0 18 9 34 23 42c8 6 16 12 7 18c-8 6 -247 83 -247 -233v-31z" />
    <glyph glyph-name="f_k.alt.alt" horiz-adv-x="924" 
d="M843 500v-23h-54c-45 0 -41 0 -202 -161c62 -69 230 -288 264 -293l53 -7v-16h-252v16l54 7c38 6 -108 160 -177 236l-14 -14v-198c0 -17 0 -23 8 -24l61 -8v-15h-231v15l61 8c8 1 8 7 8 24v603c0 49 5 87 -36 114c-4 3 -68 31 -120 -11c-35 -30 -65 -93 -65 -222v-31
h107v-23h-107v-430c0 -17 0 -23 8 -24l61 -8v-15h-231v15l61 8c8 1 8 7 8 24v430h-191c-107 0 -203 17 -246 78c-17 24 -13 54 0 70c12 14 30 19 49 1c25 -24 9 -60 30 -85c27 -28 72 -41 173 -41h185c0 62 -1 154 53 224c40 59 109 78 154 76h184c16 0 16 0 16 -35v-489
l142 141c35 38 44 52 40 57c-4 3 -12 3 -22 3h-60v23h228z" />
    <glyph glyph-name="f_r.alt.alt" horiz-adv-x="741" 
d="M514 477v-36c38 56 84 75 122 72c56 -3 98 -52 82 -97c-12 -31 -38 -45 -62 -44s-46 18 -46 49c0 49 38 44 38 60c0 8 -43 17 -81 -15c-28 -24 -53 -72 -53 -162v-257c0 -17 0 -23 8 -24l61 -8v-15h-231v15l61 8c8 1 8 7 8 24v316c0 23 0 114 -15 114h-206v-430
c0 -17 0 -23 8 -24l61 -8v-15h-231v15l61 8c8 1 8 7 8 24v430h-190c-107 0 -203 17 -246 78c-18 25 -13 55 1 71c12 13 30 17 48 0c25 -24 9 -60 30 -85c27 -28 72 -41 173 -41h184c0 62 -1 154 53 224c39 58 89 78 134 76c65 -3 120 -51 121 -96c0 -37 -32 -53 -60 -48
c-21 3 -40 19 -40 48c0 18 9 34 23 42c8 6 16 12 7 18c-5 4 -62 36 -103 -22c-24 -33 -42 -96 -42 -211v-31h145c76 0 122 22 147 21c15 0 22 -11 22 -44z" />
    <glyph glyph-name="f_t.alt.alt" horiz-adv-x="675" 
d="M661 62l14 -10c-14 -20 -77 -72 -152 -72c-94 0 -104 55 -104 143v354h-219v-430c0 -17 0 -23 8 -24l61 -8v-15h-231v15l61 8c8 1 8 7 8 24v430h-190c-107 0 -203 17 -246 78c-16 23 -14 51 -2 68c12 16 31 22 51 3c25 -24 9 -60 30 -85c27 -28 72 -41 173 -41h184
c0 62 -1 154 53 224c34 51 77 73 118 75c72 5 136 -47 137 -95c0 -38 -34 -54 -63 -48c-20 5 -37 21 -37 48c0 18 9 34 23 42c8 6 16 12 7 18c-5 4 -56 33 -97 -13c-26 -31 -48 -94 -48 -220v-31c181 0 208 -2 247 22s50 106 50 106h17v-128h108v-23h-107v-349
c0 -37 10 -111 61 -111c46 0 80 37 85 45z" />
    <glyph glyph-name="fi.alt" horiz-adv-x="612" 
d="M521 23l61 -8v-15h-231v15l61 8c8 1 8 7 8 24v317c0 23 0 113 -15 113h-206v-430c0 -17 0 -23 8 -24l61 -8v-15h-231v15l61 8c8 1 8 7 8 24v430h-189c-107 0 -203 17 -246 78c-18 25 -13 56 1 72c12 13 30 16 48 -1c25 -24 9 -60 30 -85c27 -28 72 -41 173 -41h183
c0 62 -3 143 49 214c51 69 139 91 215 84c79 -7 146 -45 146 -94c0 -27 -22 -50 -50 -50s-50 23 -50 50c0 18 9 34 23 42c8 6 16 12 7 18c-5 4 -102 36 -173 -21c-42 -33 -74 -96 -74 -212v-31h145c70 0 114 19 140 21c21 2 29 -6 29 -42v-432c0 -17 0 -23 8 -24z" />
    <glyph glyph-name="fl.alt" horiz-adv-x="622" 
d="M521 23l61 -8v-15h-231v15l61 8c8 1 8 7 8 24v603c0 49 5 87 -36 114c-5 3 -80 37 -133 -24c-29 -34 -52 -97 -52 -209v-31h107v-23h-107v-430c0 -17 0 -23 8 -24l61 -8v-15h-231v15l61 8c8 1 8 7 8 24v430h-189c-107 0 -203 17 -246 78c-19 27 -12 60 5 75
c11 10 28 12 44 -4c25 -24 9 -60 30 -85c27 -28 72 -41 173 -41h183c0 62 -1 154 53 224c40 59 109 78 154 76h184c16 0 16 0 16 -35v-718c0 -17 0 -23 8 -24z" />
    <glyph glyph-name="ordfeminine" unicode="&#xaa;" horiz-adv-x="295" 
d="M211 721v-137c0 -21 5 -53 11 -53h33v-14c-39 0 -60 -8 -73 -17c-16 2 -23 12 -23 26v23c-8 -26 -42 -49 -72 -49c-66 0 -86 69 -49 112l13 15l108 33v57c0 26 -1 42 -11 52c-19 15 -49 12 -69 0c-19 -12 -27 -25 -27 -39c7 6 13 8 20 8c12 0 23 -9 23 -26
c0 -18 -14 -27 -29 -26c-13 0 -26 8 -30 24c-8 27 6 52 25 68c19 15 35 20 61 22c81 5 89 -51 89 -79zM159 644l-91 -28c-21 -48 11 -76 37 -80c16 -3 54 0 54 56v52z" />
    <glyph glyph-name="ordmasculine" unicode="&#xba;" horiz-adv-x="332" 
d="M156 800c74 0 136 -69 136 -151s-62 -149 -136 -149c-75 0 -136 67 -136 149s61 151 136 151zM156 516c43 0 77 57 77 135c0 77 -34 133 -77 133c-42 0 -77 -56 -77 -133c0 -78 35 -135 77 -135z" />
    <glyph glyph-name="florin" unicode="&#x192;" horiz-adv-x="301" 
d="M26 500h69c0 71 6 162 56 235c38 54 86 72 131 71c66 -3 124 -49 124 -90c0 -35 -25 -51 -50 -50c-26 0 -52 18 -52 50c0 40 32 37 34 52c0 9 -60 41 -104 -15c-25 -33 -45 -96 -45 -210v-43h107v-23h-107v-568c-24 0 -34 -55 -65 -136c-19 -49 -66 -64 -107 -55
c-37 8 -69 37 -67 77c5 43 63 57 88 22c17 -23 8 -56 -13 -68c63 -20 70 43 70 229v499h-69v23z" />
    <glyph glyph-name="zero" unicode="0" horiz-adv-x="638" 
d="M319 814c152 0 274 -185 274 -415c0 -229 -122 -414 -274 -414s-274 185 -274 414c0 230 122 415 274 415zM319 0c105 0 158 203 157 405c-1 198 -53 394 -157 394s-156 -196 -157 -394c-1 -202 52 -405 157 -405z" />
    <glyph glyph-name="one" unicode="1" horiz-adv-x="377" 
d="M286 23l61 -8v-15h-253v15l61 8c8 1 8 7 8 24v542c0 26 0 105 -18 105c-32 0 -97 -5 -97 -5h-3l3 20c179 0 200 94 212 102c11 7 18 5 18 -49v-715c0 -17 0 -23 8 -24z" />
    <glyph glyph-name="two" unicode="2" horiz-adv-x="606" 
d="M551 251h20s-13 -132 -13 -178v-73h-516l-7 40l59 38c285 233 299 446 299 512c0 65 -19 129 -53 158c-73 63 -229 6 -233 -54c-1 -13 14 -20 33 -32c31 -18 42 -39 42 -66c0 -37 -29 -53 -60 -51c-29 1 -58 19 -69 52c-36 109 100 217 220 217c171 0 238 -159 238 -237
c0 -95 -14 -240 -377 -499h159c107 0 258 8 258 173z" />
    <glyph glyph-name="three" unicode="3" horiz-adv-x="585" 
d="M201 388l-13 11c150 53 190 141 190 213c0 63 -17 117 -46 146c-62 56 -206 18 -210 -38c-1 -13 14 -20 33 -32c31 -18 42 -39 42 -66c0 -39 -32 -55 -65 -51c-27 4 -54 21 -64 52c-23 69 22 118 45 139c39 35 98 51 154 51c207 0 236 -126 236 -204
c0 -85 -67 -158 -162 -187c102 -26 178 -107 184 -205c0 -151 -122 -234 -284 -234c-97 6 -179 75 -201 132l13 37c25 -103 175 -173 271 -113c93 59 103 221 23 303c-34 33 -82 53 -146 46z" />
    <glyph glyph-name="four" unicode="4" horiz-adv-x="618" 
d="M548 331h20v-218h-20s20 102 -85 102h-10v-168c0 -17 0 -23 8 -24l61 -8v-15h-253v15l61 8c8 1 8 7 8 24v168h-305l-8 22l408 567c12 16 20 12 20 -4v-563h10c105 0 85 94 85 94zM52 237h286v398z" />
    <glyph glyph-name="five" unicode="5" horiz-adv-x="583" 
d="M158 708l-22 -245c66 28 131 38 190 30c118 -17 207 -109 207 -273c0 -93 -73 -237 -284 -237c-114 0 -241 79 -202 195c13 39 53 57 86 52c26 -4 46 -21 46 -52c0 -28 -12 -53 -43 -72c-20 -12 -34 -17 -33 -27c8 -51 121 -90 200 -69c99 25 109 164 109 228
c0 134 -43 197 -106 216c-58 18 -131 -2 -203 -39l33 385h302l27 25h24s-11 -58 -11 -95v-22h-320z" />
    <glyph glyph-name="six" unicode="6" horiz-adv-x="593" 
d="M483 783l7 31c-158 0 -282 -73 -359 -188c-74 -112 -103 -265 -75 -429c17 -100 102 -213 252 -213c137 0 235 114 235 250c0 138 -98 252 -235 252c-47 0 -92 -15 -130 -38c30 289 205 335 305 335zM308 464c79 0 120 -115 121 -229c0 -115 -39 -229 -121 -229
c-96 0 -143 114 -143 229c1 114 49 229 143 229z" />
    <glyph glyph-name="seven" unicode="7" horiz-adv-x="581" 
d="M89 800h457v-28l-216 -366c-77 -135 -102 -213 -91 -270c3 -16 12 -16 32 -28c31 -18 43 -42 43 -72c0 -34 -24 -50 -52 -51c-31 -2 -67 17 -80 53c-36 110 34 238 114 379l166 285h-245c-146 0 -151 -85 -160 -117h-22s15 106 15 154c0 38 -4 91 -4 91h24z" />
    <glyph glyph-name="eight" unicode="8" horiz-adv-x="615" 
d="M367 418c112 -16 203 -86 203 -212c0 -148 -126 -221 -255 -223c-134 -2 -270 74 -270 223c0 128 100 195 216 211c-93 18 -170 83 -170 199c0 134 109 200 218 199c107 -1 214 -67 214 -199c0 -117 -68 -181 -156 -198zM202 616c0 -132 57 -195 111 -190
c50 4 99 68 99 190c0 123 -51 184 -103 184c-53 2 -107 -61 -107 -184zM454 206c0 133 -70 200 -142 202c-75 3 -152 -65 -152 -202c0 -146 82 -214 159 -206c69 7 135 76 135 206z" />
    <glyph glyph-name="nine" unicode="9" horiz-adv-x="601" 
d="M104 -18l5 27c72 1 179 22 249 134c30 49 52 115 62 203c-152 -120 -385 -6 -369 216c9 147 108 252 248 252c131 0 215 -101 244 -232c30 -128 7 -286 -74 -406c-90 -134 -216 -193 -365 -194zM424 562c0 158 -61 237 -124 238c-64 2 -130 -78 -130 -238
c0 -164 63 -247 127 -247c63 0 127 82 127 247z" />
    <glyph glyph-name="onequarter" unicode="&#xbc;" horiz-adv-x="582" 
d="M87 -16h-47l453 831h49zM171 442l38 -5v-15h-147v15l38 5c8 1 8 7 8 24v163c0 11 0 39 -6 39c-12 0 -46 -2 -46 -2h-1c1 8 1 18 1 18c66 0 89 25 93 29c13 13 14 15 14 -9v-238c0 -17 0 -23 8 -24zM527 231h10v-70h-10s3 27 -32 27h-20v-35c0 -17 0 -23 8 -24l38 -5v-15
h-147v15l38 5c8 1 8 7 8 23v36h-113l-3 8l150 210c7 10 21 6 21 -15v-185h20c35 0 32 25 32 25zM334 206h86v121z" />
    <glyph glyph-name="onehalf" unicode="&#xbd;" horiz-adv-x="621" 
d="M87 -16h-47l453 831h49zM168 442l38 -5v-15h-147v15l38 5c8 1 8 7 8 24v163c0 11 0 39 -6 39c-12 0 -46 -2 -46 -2h-1c1 8 1 18 1 18c66 0 89 25 93 29c13 13 14 15 14 -9v-238c0 -17 0 -23 8 -24zM562 129h19s-8 -45 -8 -62c0 -11 0 -22 1 -28h-277l-3 16
c172 72 196 137 196 179c0 69 -58 90 -109 76c-9 -2 -31 -14 -39 -31c-2 -4 -3 -12 6 -17c16 -9 23 -19 23 -32c0 -35 -58 -35 -66 0c-16 62 59 109 119 109c84 0 114 -48 121 -86c7 -35 -4 -108 -164 -181h85c73 0 96 17 96 57z" />
    <glyph glyph-name="threequarters" unicode="&#xbe;" horiz-adv-x="616" 
d="M121 -16h-47l453 831h49zM246 695v-25l-100 -85c42 -1 107 -35 107 -98c0 -94 -124 -108 -169 -82c-36 21 -54 61 -38 77c6 6 17 7 25 -1c18 -18 -5 -45 30 -58c60 -22 97 11 101 52c4 37 -22 81 -85 91l-14 8l109 91h-81c-42 0 -44 -4 -52 -36h-16s5 25 5 44
c0 13 -1 22 -1 22h179zM561 231h10v-70h-10s3 27 -32 27h-20v-35c0 -17 0 -23 8 -24l38 -5v-15h-147v15l38 5c8 1 8 7 8 23v36h-113l-3 8l150 210c7 10 21 6 21 -15v-185h20c35 0 32 25 32 25zM368 206h86v121z" />
    <glyph glyph-name="fraction" unicode="&#x2044;" horiz-adv-x="502" 
d="M47 -16h-47l453 831h49z" />
    <glyph glyph-name="twosuperior" unicode="&#xb2;" horiz-adv-x="347" 
d="M288 590h19s-8 -45 -8 -62c0 -11 0 -22 1 -28h-277l-3 16c172 72 196 137 196 179c0 69 -58 90 -109 76c-9 -2 -31 -14 -39 -31c-2 -4 -3 -12 6 -17c16 -9 23 -19 23 -32c0 -35 -58 -35 -66 0c-16 62 59 109 119 109c84 0 114 -48 121 -86c7 -35 -4 -108 -164 -181h85
c73 0 96 17 96 57z" />
    <glyph glyph-name="threesuperior" unicode="&#xb3;" horiz-adv-x="273" 
d="M226 800v-25l-100 -85c42 -1 107 -35 107 -98c0 -94 -124 -108 -169 -82c-36 21 -54 61 -38 77c6 6 17 7 25 -1c18 -18 -5 -45 30 -58c66 -24 104 18 101 63c-2 35 -28 71 -85 80l-14 8l109 91h-81c-42 0 -44 -4 -52 -36h-16s5 25 5 44c0 13 -1 22 -1 22h179z" />
    <glyph glyph-name="onesuperior" unicode="&#xb9;" horiz-adv-x="214" 
d="M136 520l38 -5v-15h-147v15l38 5c8 1 8 7 8 24v163c0 11 0 39 -6 39c-12 0 -46 -2 -46 -2h-1c1 8 1 18 1 18c66 0 89 25 93 29c13 13 14 15 14 -9v-238c0 -17 0 -23 8 -24z" />
    <glyph glyph-name="zero.onum" horiz-adv-x="638" 
d="M324 516c175 0 265 -128 268 -259c4 -137 -85 -276 -268 -276c-189 0 -281 135 -279 270c2 133 96 265 279 265zM323 0c114 0 168 132 165 261c-4 121 -59 239 -166 239c-118 0 -176 -124 -177 -249c0 -125 60 -251 178 -251z" />
    <glyph glyph-name="one.onum" horiz-adv-x="291" 
d="M192 453v-406c0 -17 0 -23 8 -24l61 -8v-15h-231v15l61 8c8 1 8 7 8 7v423c0 17 0 23 -8 24l-61 8v15h231v-15l-61 -8c-8 -1 -8 -7 -8 -24z" />
    <glyph glyph-name="two.onum" horiz-adv-x="565" 
d="M511 190h19s-15 -113 -15 -144c0 -19 1 -37 3 -46h-479l-4 14c298 125 335 247 335 321c0 118 -98 162 -187 139c-16 -4 -86 -27 -84 -61c0 -11 13 -18 29 -28c27 -16 37 -34 37 -57c0 -61 -98 -62 -113 0c-26 107 102 189 206 189c157 0 205 -85 217 -149
c11 -60 10 -161 -289 -299h146c124 0 179 5 179 121z" />
    <glyph glyph-name="three.onum" horiz-adv-x="635" 
d="M575 500v-66l-259 -219c110 -2 259 -114 259 -255c0 -242 -305 -287 -419 -212c-89 63 -148 167 -98 199c19 12 48 3 57 -14c8 -15 8 -32 0 -48c-9 -17 -18 -21 -10 -41c6 -17 21 -43 54 -66c150 -101 309 11 309 155c0 102 -60 251 -228 232l-8 22l259 219h-218
c-109 0 -130 -8 -152 -109h-21s14 97 14 145c0 35 -3 73 -3 73h22l19 -15h423z" />
    <glyph glyph-name="four.onum" horiz-adv-x="558" 
d="M404 325v-301h104v-24h-104v-265h-94v265h-273l-12 24l178 247c51 71 76 125 68 154c-3 10 -6 10 -17 18c-20 11 -21 26 -21 44c0 24 21 32 41 28c16 -4 32 -17 36 -37c18 -61 -29 -138 -84 -216l-170 -238h254v247z" />
    <glyph glyph-name="five.onum" horiz-adv-x="558" 
d="M152 403l-22 -234c69 28 130 35 182 26c124 -20 196 -130 196 -255c0 -89 -69 -224 -271 -224c-101 0 -219 67 -194 159c8 34 36 50 63 50c29 0 55 -17 50 -48c-5 -27 -25 -38 -40 -47c-18 -10 -21 -13 -19 -22c9 -55 118 -78 194 -59c95 24 115 102 115 209
c0 123 -49 177 -125 189c-51 9 -115 -1 -184 -21l33 374h300l15 16h21s-10 -57 -10 -93c0 -6 0 -9 1 -20h-305z" />
    <glyph glyph-name="six.onum" horiz-adv-x="583" 
d="M300 469c315 0 308 -488 -8 -488c-144 0 -221 116 -241 256c-18 122 8 264 70 363c74 117 191 167 277 167c45 0 84 -16 106 -44c35 -53 9 -99 -33 -99c-34 0 -49 35 -38 59c18 33 13 40 3 50c-5 5 -33 27 -96 -4c-78 -37 -151 -121 -171 -295c38 22 82 35 131 35z
M429 225c0 146 -64 219 -129 222c-68 2 -138 -72 -138 -222c0 -149 66 -225 132 -226c67 -1 135 74 135 226z" />
    <glyph glyph-name="seven.onum" horiz-adv-x="593" 
d="M92 500h466v-29l-218 -352c-80 -127 -112 -198 -95 -262c3 -11 14 -17 33 -25c35 -15 47 -37 47 -66s-21 -45 -46 -49c-35 -6 -79 11 -91 49c-38 107 32 229 114 368l172 271h-248c-159 0 -163 -74 -167 -115h-24s20 100 20 148c0 38 -5 76 -5 76h24z" />
    <glyph glyph-name="eight.onum" horiz-adv-x="587" 
d="M350 390c107 -15 192 -81 192 -200c0 -139 -119 -208 -240 -210c-127 -3 -257 68 -257 210c0 121 96 185 205 199c-87 17 -161 80 -161 189c0 126 104 188 207 187c101 -1 202 -64 202 -187c0 -111 -64 -172 -148 -188zM194 578c0 -118 46 -177 93 -181
c52 -5 106 57 106 181c0 116 -48 174 -97 175c-50 2 -102 -57 -102 -175zM432 190c0 127 -68 190 -136 191c-70 0 -140 -64 -140 -191c0 -135 73 -201 144 -196c67 4 132 69 132 196z" />
    <glyph glyph-name="nine.onum" horiz-adv-x="583" 
d="M50 268c0 153 98 250 234 250c90 0 162 -18 226 -146c50 -99 33 -356 -48 -485c-64 -103 -168 -162 -254 -171c-53 -5 -98 8 -124 43c-14 19 -21 56 -9 78c10 20 25 28 39 29c29 2 55 -28 39 -59c-19 -37 -13 -48 -9 -54c7 -9 38 -32 101 0c77 39 156 132 173 317
c-54 -43 -120 -55 -180 -44c-101 20 -188 109 -188 242zM160 268c0 -154 73 -228 142 -222c64 7 125 80 125 222c0 156 -68 233 -135 232c-66 -2 -132 -79 -132 -232z" />
    <glyph glyph-name="asterisk" unicode="*" horiz-adv-x="374" 
d="M195 655c-5 2 -12 2 -17 0c-9 38 -24 98 -24 111c0 19 15 34 33 34s34 -15 34 -34c0 -13 -16 -73 -26 -111zM174 653c-5 -3 -8 -10 -8 -15c-38 11 -98 28 -109 34c-16 9 -22 30 -13 46c10 15 33 21 47 12c11 -7 55 -50 83 -77zM208 638c-1 5 -4 11 -8 14
c28 28 73 71 84 77c16 9 36 4 46 -11c8 -16 3 -37 -13 -47c-10 -6 -71 -23 -109 -33zM166 633c0 -6 4 -13 8 -15c-28 -28 -73 -70 -84 -77c-16 -9 -37 -3 -46 13c-9 15 -4 36 12 45c11 6 72 23 110 34zM199 618c4 2 8 9 9 14c38 -10 99 -26 109 -33c15 -10 21 -31 13 -46
c-10 -16 -31 -22 -47 -12c-11 7 -56 49 -84 77zM178 615c4 -2 12 -2 16 0c11 -38 26 -98 26 -110c0 -19 -15 -34 -34 -34c-18 0 -33 15 -33 34c0 12 16 72 25 110z" />
    <glyph glyph-name="backslash" unicode="\" horiz-adv-x="463" 
d="M378 -38h45l-336 876h-47z" />
    <glyph glyph-name="bullet" unicode="&#x2022;" horiz-adv-x="269" 
d="M135 156c-51 0 -95 42 -95 95c0 52 44 94 95 94c52 0 94 -42 94 -94c0 -53 -42 -95 -94 -95z" />
    <glyph glyph-name="colon" unicode=":" horiz-adv-x="198" 
d="M99 382c-32 0 -59 26 -59 59s27 59 59 59c33 0 59 -26 59 -59s-26 -59 -59 -59zM99 -17c-32 0 -59 26 -59 59s27 59 59 59c33 0 59 -26 59 -59s-26 -59 -59 -59z" />
    <glyph glyph-name="comma" unicode="," horiz-adv-x="254" 
d="M40 -149l5 -14c97 21 169 76 169 186c0 53 -38 89 -78 89c-41 0 -73 -31 -73 -68c32 -13 65 -36 65 -78c0 -49 -35 -94 -88 -115z" />
    <glyph glyph-name="ellipsis" unicode="&#x2026;" horiz-adv-x="614" 
d="M99 -17c-32 0 -59 26 -59 59s27 59 59 59c33 0 59 -26 59 -59s-26 -59 -59 -59zM308 -17c-32 0 -59 26 -59 59s27 59 59 59c33 0 59 -26 59 -59s-26 -59 -59 -59zM515 -17c-32 0 -59 26 -59 59s27 59 59 59c33 0 59 -26 59 -59s-26 -59 -59 -59z" />
    <glyph glyph-name="exclam" unicode="!" horiz-adv-x="209" 
d="M125 216c-9 4 -32 4 -41 0c0 212 -44 498 -44 520c0 36 29 65 65 65c35 0 64 -29 64 -65c0 -22 -44 -308 -44 -520zM104 -17c-32 0 -59 26 -59 59s27 59 59 59c33 0 59 -26 59 -59s-26 -59 -59 -59z" />
    <glyph glyph-name="exclamdown" unicode="&#xa1;" horiz-adv-x="209" 
d="M104 509c33 0 59 -26 59 -59s-26 -59 -59 -59c-32 0 -59 26 -59 59s27 59 59 59zM125 276c0 -212 44 -498 44 -520c0 -36 -29 -65 -64 -65c-36 0 -65 29 -65 65c0 22 44 308 44 520c9 -4 32 -4 41 0z" />
    <glyph glyph-name="numbersign" unicode="#" horiz-adv-x="587" 
d="M547 475v-59h-110l-43 -143h115v-60h-132l-62 -213h-45l62 213h-147l-62 -213h-45l62 213h-100v60h118l41 143h-121v59h139l61 210h45l-61 -210h147l61 210h45l-61 -210h93zM202 273h148l41 143h-147z" />
    <glyph glyph-name="period" unicode="." horiz-adv-x="198" 
d="M99 -17c-32 0 -59 26 -59 59s27 59 59 59c33 0 59 -26 59 -59s-26 -59 -59 -59z" />
    <glyph glyph-name="periodcentered" unicode="&#xb7;" horiz-adv-x="198" 
d="M99 220c-32 0 -59 26 -59 59s27 59 59 59c33 0 59 -26 59 -59s-26 -59 -59 -59z" />
    <glyph glyph-name="question" unicode="?" horiz-adv-x="520" 
d="M467 665c60 -180 -108 -204 -233 -329c-35 -36 -22 -84 34 -84c8 -35 -19 -54 -48 -52c-22 2 -45 17 -52 47c-24 110 107 168 174 252c84 106 32 209 -52 253c-59 31 -133 32 -185 -15c-9 -8 -15 -17 -14 -27c0 -11 13 -18 29 -28c27 -16 37 -34 37 -57
c0 -33 -29 -48 -58 -46c-24 2 -48 18 -55 46c-9 36 0 69 19 97c42 63 112 92 183 92c94 0 189 -53 221 -149zM224 101c33 0 59 -26 59 -59s-26 -59 -59 -59c-32 0 -59 26 -59 59s27 59 59 59z" />
    <glyph glyph-name="questiondown" unicode="&#xbf;" horiz-adv-x="520" 
d="M296 391c-33 0 -59 26 -59 59s26 59 59 59c32 0 59 -26 59 -59s-27 -59 -59 -59zM53 -173c-60 180 108 204 233 329c35 36 22 84 -34 84c-7 29 11 48 34 51c26 5 57 -9 66 -46c24 -110 -107 -168 -174 -252c-73 -91 -44 -180 19 -231c62 -50 156 -63 218 -7
c9 8 15 17 14 27c0 11 -13 18 -29 28c-27 16 -37 34 -37 57c0 30 23 45 49 46c27 1 56 -14 64 -46c9 -36 0 -69 -19 -97c-55 -81 -156 -106 -245 -84c-71 18 -134 66 -159 141z" />
    <glyph glyph-name="quotedbl" unicode="&#x22;" horiz-adv-x="428" 
d="M118 535c-9 4 -22 4 -32 0c-16 71 -46 185 -46 209c0 37 30 65 63 65c34 0 65 -28 65 -65c0 -24 -31 -138 -50 -209zM338 535c-9 4 -22 4 -32 0c-16 71 -46 185 -46 209c0 37 30 65 63 65c34 0 65 -28 65 -65c0 -24 -31 -138 -50 -209z" />
    <glyph glyph-name="quotesingle" unicode="'" horiz-adv-x="208" 
d="M118 535c-9 4 -22 4 -32 0c-16 71 -46 185 -46 209c0 37 30 65 63 65c34 0 65 -28 65 -65c0 -24 -31 -138 -50 -209z" />
    <glyph glyph-name="semicolon" unicode=";" horiz-adv-x="254" 
d="M135 382c-32 0 -59 26 -59 59s27 59 59 59c33 0 59 -26 59 -59s-26 -59 -59 -59zM40 -149l5 -14c97 21 169 76 169 186c0 53 -38 89 -78 89c-41 0 -73 -31 -73 -68c32 -13 65 -36 65 -78c0 -49 -35 -94 -88 -115z" />
    <glyph glyph-name="slash" unicode="/" horiz-adv-x="463" 
d="M376 838l-336 -876h45l338 876h-47z" />
    <glyph glyph-name="underscore" unicode="_" horiz-adv-x="626" 
d="M40 -165h546v60h-546v-60z" />
    <glyph glyph-name="braceleft" unicode="{" horiz-adv-x="397" 
d="M357 800l-6 -19c-128 0 -116 -110 -112 -224c3 -104 0 -212 -123 -240c117 -29 126 -128 123 -228c-3 -120 -22 -240 112 -240l6 -18c-208 0 -209 135 -204 262c3 107 11 208 -100 214c-17 1 -17 16 0 17c117 7 102 119 99 233c-4 121 7 243 205 243z" />
    <glyph glyph-name="braceright" unicode="}" horiz-adv-x="397" 
d="M40 -169l6 18c137 0 113 127 111 250c-1 96 11 190 124 218c-123 28 -126 134 -123 238c4 115 17 226 -112 226l-6 19c198 0 209 -122 205 -243c-3 -114 -18 -226 99 -233c17 -1 17 -16 0 -17c-116 -7 -102 -117 -99 -230c3 -122 -6 -246 -205 -246z" />
    <glyph glyph-name="bracketleft" unicode="[" horiz-adv-x="281" 
d="M241 799l-6 -22h-117v-927h117l6 -23h-201v973h201v-1z" />
    <glyph glyph-name="bracketright" unicode="]" horiz-adv-x="281" 
d="M163 777h-117l-6 22v1h201v-973h-201l6 23h117v927z" />
    <glyph glyph-name="parenleft" unicode="(" horiz-adv-x="299" 
d="M259 -194l-21 -6c-133 145 -199 327 -198 509c1 180 67 360 198 503l21 -6c-75 -153 -113 -325 -113 -497c-1 -174 37 -348 113 -503z" />
    <glyph glyph-name="parenright" unicode=")" horiz-adv-x="299" 
d="M40 806l21 6c130 -142 196 -319 198 -497c2 -184 -64 -369 -198 -515l-21 6c77 156 114 332 113 507c-1 171 -39 341 -113 493z" />
    <glyph glyph-name="emdash" unicode="&#x2014;" horiz-adv-x="594" 
d="M40 225h514v59h-514v-59z" />
    <glyph glyph-name="endash" unicode="&#x2013;" horiz-adv-x="694" 
d="M40 225h614v59h-614v-59z" />
    <glyph glyph-name="hyphen" unicode="-" horiz-adv-x="494" 
d="M40 225h414v59h-414v-59z" />
    <glyph glyph-name="guillemotleft" unicode="&#xab;" horiz-adv-x="396" 
d="M207 398l-90 -152l90 -152h-17c-33 43 -81 93 -132 138c-11 9 -11 19 0 28c51 45 99 95 132 138h17zM346 398l-90 -152l90 -152h-17c-33 43 -81 93 -132 138c-10 9 -10 19 0 28c51 45 99 95 132 138h17z" />
    <glyph glyph-name="guillemotright" unicode="&#xbb;" horiz-adv-x="396" 
d="M50 94l90 152l-90 152h17c33 -43 81 -93 132 -138c10 -9 10 -19 0 -28c-51 -45 -99 -95 -132 -138h-17zM189 94l90 152l-90 152h17c33 -43 81 -93 132 -138c10 -9 10 -19 0 -28c-51 -45 -99 -95 -132 -138h-17z" />
    <glyph glyph-name="guilsinglleft" unicode="&#x2039;" horiz-adv-x="237" 
d="M197 398l-90 -152l90 -152h-17c-33 43 -81 93 -132 138c-11 9 -11 19 0 28c51 45 99 95 132 138h17z" />
    <glyph glyph-name="guilsinglright" unicode="&#x203a;" horiz-adv-x="237" 
d="M40 94l90 152l-90 152h17c33 -43 81 -93 132 -138c10 -9 10 -19 0 -28c-51 -45 -99 -95 -132 -138h-17z" />
    <glyph glyph-name="quotedblbase" unicode="&#x201e;" horiz-adv-x="466" 
d="M40 -147l6 -15c95 21 177 84 167 186c-5 52 -38 86 -78 88s-74 -29 -74 -66c33 -14 65 -37 65 -79c0 -48 -33 -93 -86 -114zM251 -147l7 -15c96 21 176 84 167 186c-4 52 -38 86 -78 88s-73 -29 -73 -66c32 -14 65 -37 65 -79c0 -48 -34 -93 -88 -114z" />
    <glyph glyph-name="quotedblleft" unicode="&#x201c;" horiz-adv-x="466" 
d="M215 794l-7 15c-96 -21 -176 -84 -167 -186c4 -52 38 -86 78 -88s73 29 73 66c-32 14 -65 37 -65 79c0 48 34 93 88 114zM426 794l-6 15c-95 -21 -177 -84 -167 -186c5 -52 38 -86 78 -88s74 29 74 66c-33 14 -65 37 -65 79c0 48 33 93 86 114z" />
    <glyph glyph-name="quotedblright" unicode="&#x201d;" horiz-adv-x="466" 
d="M40 550l6 -15c95 21 177 84 167 186c-5 52 -38 86 -78 88s-74 -29 -74 -66c33 -14 65 -37 65 -79c0 -48 -33 -93 -86 -114zM251 550l7 -15c96 21 176 84 167 186c-4 52 -38 86 -78 88s-73 -29 -73 -66c32 -14 65 -37 65 -79c0 -48 -34 -93 -88 -114z" />
    <glyph glyph-name="quoteleft" unicode="&#x2018;" horiz-adv-x="255" 
d="M215 794l-7 15c-96 -21 -176 -84 -167 -186c4 -52 38 -86 78 -88s73 29 73 66c-32 14 -65 37 -65 79c0 48 34 93 88 114z" />
    <glyph glyph-name="quoteright" unicode="&#x2019;" horiz-adv-x="255" 
d="M40 550l7 -15c96 21 176 84 167 186c-4 52 -38 86 -78 88s-73 -29 -73 -66c32 -14 65 -37 65 -79c0 -48 -34 -93 -88 -114z" />
    <glyph glyph-name="quotesinglbase" unicode="&#x201a;" horiz-adv-x="254" 
d="M40 -149l5 -14c97 21 169 76 169 186c0 53 -38 89 -78 89c-41 0 -73 -31 -73 -68c32 -13 65 -36 65 -78c0 -49 -35 -94 -88 -115z" />
    <glyph glyph-name="cent" unicode="&#xa2;" horiz-adv-x="481" 
d="M440 206l16 -15c-8 -23 -30 -134 -181 -140v-51h-43v53c-143 15 -208 140 -201 265c6 118 75 235 201 263v54h43v-48c38 1 77 -9 109 -27c45 -24 74 -65 64 -114c-6 -30 -35 -42 -60 -38c-22 3 -41 19 -41 46c0 23 10 34 22 49c14 17 2 39 -24 53c-18 9 -43 14 -70 11
v-476c82 -12 134 32 165 115zM232 106v449c-79 -35 -113 -134 -109 -232c4 -91 42 -182 109 -217z" />
    <glyph glyph-name="currency" unicode="&#xa4;" horiz-adv-x="562" 
d="M522 541l-67 -67c29 -38 46 -86 46 -136c0 -52 -17 -99 -47 -137l65 -66l-37 -37l-65 66c-38 -30 -87 -48 -142 -48c-51 0 -97 18 -133 47l-67 -65l-35 39l66 65c-28 37 -44 85 -44 136s17 100 46 139l-68 69l37 35l65 -66c36 31 82 50 133 50c56 0 106 -20 145 -53
l66 66zM444 336c0 86 -74 164 -170 164c-88 0 -157 -78 -157 -164c0 -89 69 -169 157 -169c96 0 170 80 170 169z" />
    <glyph glyph-name="dollar" unicode="$" horiz-adv-x="611" 
d="M319 782v-309c71 -32 228 -83 247 -234c27 -238 -179 -255 -248 -254v-73h-45v78c-69 13 -135 48 -160 48c-31 0 -38 -38 -38 -38h-23s8 30 8 77c0 53 -17 137 -17 137h22c0 -133 125 -178 208 -190v327c-108 53 -221 109 -221 233c0 198 159 228 221 231v73h47v-76
c45 -7 84 -25 109 -29c30 -5 52 17 52 17h23s-11 -23 -6 -81c4 -52 14 -132 14 -132h-23c-3 52 -21 180 -170 195zM273 495v288c-102 -6 -137 -73 -137 -145c0 -65 72 -111 137 -143zM318 329v-309c60 0 149 15 149 142c0 80 -68 125 -149 167z" />
    <glyph glyph-name="Euro" unicode="&#x20ac;" horiz-adv-x="734" 
d="M687 211h22s-14 -72 -14 -119s3 -92 3 -92h-19s-11 24 -36 24c-27 0 -51 -38 -173 -40c-168 0 -296 144 -326 325h-109l9 41h94c-2 25 -2 52 0 72h-74l9 41h67c24 191 149 348 335 348c59 0 139 -41 147 -43c23 -5 31 32 31 32h21s-3 -48 -3 -87c0 -49 13 -130 13 -130
h-23c0 101 -68 193 -185 193c-98 0 -179 -91 -193 -313h193l-9 -41h-185c-2 -21 -2 -48 0 -72h164l-9 -41h-153c17 -193 75 -277 179 -291c133 -18 224 103 224 193z" />
    <glyph glyph-name="sterling" unicode="&#xa3;" horiz-adv-x="634" 
d="M297 346v-89c0 -62 -10 -116 -31 -141c51 10 86 -7 153 -32c114 -42 171 8 171 107l14 -11c0 -83 -4 -127 -58 -158c-59 -33 -117 -24 -175 -8c-55 16 -111 38 -169 38c-46 0 -73 -13 -102 -41c-18 -17 -36 -10 -45 3c-8 11 -8 28 7 34c104 41 145 95 145 200v98h-144
l10 41h134v112c0 62 -5 158 66 228c32 31 68 52 104 63c100 31 197 -10 197 -87c0 -38 -33 -54 -62 -48c-20 4 -38 20 -38 48c0 18 9 34 23 42c8 6 16 12 7 18c-5 3 -73 31 -130 -8c-41 -28 -77 -91 -77 -225v-143h158l-10 -41h-148z" />
    <glyph glyph-name="yen" unicode="&#xa5;" horiz-adv-x="704" 
d="M496 800h193v-15l-53 -7c-12 -2 -20 -15 -24 -21l-207 -313h188l-10 -41h-178v-72h188l-10 -41h-178v-243c0 -17 0 -23 8 -24l61 -8v-15h-248v15l61 8c8 1 8 7 8 24v243h-184l10 41h174v72h-184l10 41h150l-182 309c-5 9 -12 23 -21 25l-53 7v15h248v-15l-61 -8
c-8 -1 -11 -7 -1 -24l170 -289l194 293c7 12 0 19 -8 20l-61 8v15z" />
    <glyph glyph-name="approxequal" unicode="&#x2248;" horiz-adv-x="504" 
d="M40 335l60 90c19 29 49 48 68 48c29 0 37 -5 78 -19c50 -16 147 -55 178 -19c17 19 28 37 28 37l12 -9l-59 -86c-21 -29 -50 -51 -80 -51c-20 0 -48 9 -79 21c-29 10 -133 64 -166 19c-18 -25 -27 -40 -27 -40zM40 110l60 90c19 29 49 48 68 48c29 0 37 -5 78 -19
c50 -16 147 -55 178 -19c17 19 28 37 28 37l12 -9l-59 -86c-21 -29 -50 -51 -80 -51c-20 0 -48 9 -79 21c-29 10 -133 64 -166 19c-18 -25 -27 -40 -27 -40z" />
    <glyph glyph-name="asciitilde" unicode="~" horiz-adv-x="504" 
d="M40 208l60 90c19 29 49 48 68 48c29 0 37 -5 78 -19c50 -16 147 -55 178 -19c17 19 28 37 28 37l12 -9l-59 -86c-21 -29 -50 -51 -80 -51c-20 0 -48 9 -79 21c-29 10 -133 64 -166 19c-18 -25 -27 -40 -27 -40z" />
    <glyph glyph-name="divide" unicode="&#xf7;" horiz-adv-x="552" 
d="M276 432c-32 0 -59 26 -59 59s27 59 59 59c33 0 59 -26 59 -59s-26 -59 -59 -59zM40 309v-52h472v52h-472zM276 33c-32 0 -59 26 -59 59s27 59 59 59c33 0 59 -26 59 -59s-26 -59 -59 -59z" />
    <glyph glyph-name="equal" unicode="=" horiz-adv-x="552" 
d="M40 379v-52h472v52h-472zM40 245v-52h472v52h-472z" />
    <glyph glyph-name="greater" unicode="&#x3e;" horiz-adv-x="562" 
d="M522 392l-482 -310v52l409 263l-409 274v52l482 -323v-8z" />
    <glyph glyph-name="greaterequal" unicode="&#x2265;" horiz-adv-x="562" 
d="M522 392l-482 -280v52l402 233l-402 244v52l482 -293v-8zM40 52v-52h472v52h-472z" />
    <glyph glyph-name="less" unicode="&#x3c;" horiz-adv-x="562" 
d="M522 134v-52l-482 310v8l482 323v-52l-409 -274z" />
    <glyph glyph-name="lessequal" unicode="&#x2264;" horiz-adv-x="562" 
d="M522 164v-52l-482 280v8l482 293v-52l-402 -244zM50 0h472v52h-472v-52z" />
    <glyph glyph-name="logicalnot" unicode="&#xac;" horiz-adv-x="552" 
d="M512 311v-192h-52v140h-420v52h472z" />
    <glyph glyph-name="minus" unicode="&#x2212;" horiz-adv-x="552" 
d="M40 309v-52h472v52h-472z" />
    <glyph glyph-name="multiply" unicode="&#xd7;" horiz-adv-x="562" 
d="M519 77l-37 -37l-200 203l-207 -203l-35 39l205 201l-205 208l37 35l204 -207l205 204l36 -37l-204 -202z" />
    <glyph glyph-name="percent" unicode="%" horiz-adv-x="885" 
d="M184 -40l433 796c-65 -34 -165 -34 -230 -21c31 -34 46 -78 47 -122c1 -97 -70 -195 -194 -195c-139 0 -205 102 -199 201c5 92 72 181 199 181c26 0 50 -5 70 -12c0 0 94 -33 166 -33c81 0 134 30 182 77h51l-477 -872h-48zM240 429c80 0 119 93 117 184
c-2 88 -41 175 -118 175c-79 0 -120 -80 -124 -165c-5 -94 37 -194 125 -194zM651 360c133 0 197 -100 194 -197c-3 -93 -68 -183 -194 -183c-130 0 -196 88 -200 179c-5 98 63 201 200 201zM650 -9c77 0 116 85 118 172c2 92 -38 186 -119 186c-88 0 -130 -96 -127 -188
c3 -86 46 -170 128 -170z" />
    <glyph glyph-name="perthousand" unicode="&#x2030;" horiz-adv-x="1209" 
d="M658 832h51l-477 -872h-48l433 796c-65 -34 -165 -34 -230 -21c34 -38 49 -86 47 -134c-5 -93 -75 -183 -194 -183c-135 0 -201 97 -199 193c1 95 68 189 199 189c26 0 50 -5 70 -12c0 0 94 -33 166 -33c81 0 134 30 182 77zM240 429c77 0 116 86 117 174
c1 92 -38 185 -118 185c-81 0 -122 -84 -125 -171c-2 -92 40 -188 126 -188zM975 360c134 0 198 -101 194 -199c-4 -92 -69 -181 -194 -181c-78 0 -133 31 -165 76c-32 -45 -85 -76 -159 -76c-135 0 -201 96 -200 191s68 189 200 189c75 0 128 -32 159 -77
c33 45 88 77 165 77zM650 -9c78 0 117 88 118 176c1 90 -39 182 -119 182c-84 0 -126 -88 -127 -176c-1 -90 42 -182 128 -182zM974 -9c75 0 114 80 118 164c4 94 -36 194 -119 194c-86 0 -128 -92 -127 -182c1 -88 44 -176 128 -176z" />
    <glyph glyph-name="plus" unicode="+" horiz-adv-x="552" 
d="M512 311v-52h-208v-210h-52v210h-212v52h212v210h52v-210h208z" />
    <glyph glyph-name="plusminus" unicode="&#xb1;" horiz-adv-x="552" 
d="M512 311v-52h-208v-140h-52v140h-212v52h212v140h52v-140h208zM40 52v-52h472v52h-472z" />
    <glyph glyph-name="ampersand" unicode="&#x26;" horiz-adv-x="811" 
d="M777 20l53 -5l1 -15h-176l-104 114c-86 -147 -398 -202 -493 -4c-88 184 95 306 180 340c-17 20 -63 69 -82 99c-29 48 -36 134 10 189c65 76 198 83 264 31c88 -69 79 -211 -100 -286l254 -275l25 41c54 86 65 132 55 171c-11 31 -48 35 -56 69c-6 28 12 43 34 42
c20 0 42 -12 52 -37c28 -69 -6 -159 -64 -250l-30 -51l125 -139c8 -9 27 -30 52 -34zM197 666c5 -54 50 -97 121 -170c51 34 114 102 107 168c-6 74 -58 110 -111 114c-61 4 -123 -36 -117 -112zM534 132l-286 306c-127 -72 -134 -196 -88 -285c94 -181 299 -142 374 -21z
" />
    <glyph glyph-name="at" unicode="@" horiz-adv-x="1059" 
d="M681 438v-259c0 -61 12 -75 24 -75c0 0 203 33 241 210c41 185 -72 476 -390 476c-284 0 -418 -242 -417 -481c0 -233 129 -462 372 -462c389 0 482 266 485 267c2 3 28 10 28 10s-102 -309 -503 -309c-343 0 -493 238 -486 482c8 256 189 519 504 519
c320 0 482 -243 452 -485c-22 -172 -177 -284 -393 -284c-11 0 -10 18 -10 46v39c-14 -46 -75 -85 -128 -85c-118 0 -151 124 -86 198l16 16l198 62v107c0 46 -5 83 -22 100c-31 31 -87 22 -121 0s-55 -50 -55 -78c0 0 8 18 40 18c23 0 44 -19 44 -48c0 -32 -24 -47 -50 -47
c-23 1 -47 15 -56 43c-14 47 12 91 47 120c32 25 62 35 106 38c145 10 160 -86 160 -138zM588 301l-159 -49c-39 -84 16 -142 61 -150c28 -5 98 0 98 98v101z" />
    <glyph glyph-name="bar" unicode="|" horiz-adv-x="131" 
d="M46 -118h45v876h-45v-876z" />
    <glyph glyph-name="brokenbar" unicode="&#xa6;" horiz-adv-x="127" 
d="M40 411v346h47v-346h-47zM40 -118v346h47v-346h-47z" />
    </font>
</defs>
</svg>
